<?xml version="1.0" encoding="UTF-8" standalone="no"?>
<!DOCTYPE svg PUBLIC "-//W3C//DTD SVG 1.1//EN"
 "http://www.w3.org/Graphics/SVG/1.1/DTD/svg11.dtd">
<!-- Generated by graphviz version 2.47.3 (20210619.1520)
 -->
<!-- Title: dependencies Pages: 1 -->
<svg width="1107pt" height="247pt"
 viewBox="0.00 0.00 1107.00 246.80" xmlns="http://www.w3.org/2000/svg" xmlns:xlink="http://www.w3.org/1999/xlink">
<g id="graph0" class="graph" transform="scale(1 1) rotate(0) translate(4 242.8)">
<title>dependencies</title>
<polygon fill="white" stroke="transparent" points="-4,4 -4,-242.8 1103,-242.8 1103,4 -4,4"/>
<text text-anchor="middle" x="549.5" y="-8.2" font-family="sans-serif" font-size="14.00">dependencies</text>
<g id="clust1" class="cluster">
<title>cluster_NtsWizardModule</title>
<polygon fill="none" stroke="black" stroke-dasharray="1,5" points="8,-32.8 8,-230.8 1091,-230.8 1091,-32.8 8,-32.8"/>
</g>
<g id="clust2" class="cluster">
<title>cluster_NtsWizardModule_declarations</title>
<polygon fill="none" stroke="black" points="154,-40.8 154,-92.8 1083,-92.8 1083,-40.8 154,-40.8"/>
</g>
<g id="clust9" class="cluster">
<title>cluster_NtsWizardModule_imports</title>
<polygon fill="none" stroke="black" points="16,-40.8 16,-92.8 146,-92.8 146,-40.8 16,-40.8"/>
</g>
<g id="clust10" class="cluster">
<title>cluster_NtsWizardModule_exports</title>
<polygon fill="none" stroke="black" points="223,-170.8 223,-222.8 881,-222.8 881,-170.8 223,-170.8"/>
</g>
<!-- ChildrenCountPipe -->
<g id="node1" class="node">
<title>ChildrenCountPipe</title>
<polygon fill="#ffffb3" stroke="black" points="1075.11,-84.8 950.89,-84.8 950.89,-48.8 1075.11,-48.8 1075.11,-84.8"/>
<text text-anchor="middle" x="1013" y="-62.6" font-family="Times,serif" font-size="14.00">ChildrenCountPipe</text>
</g>
<!-- NtsWizardModule -->
<g id="node7" class="node">
<title>NtsWizardModule</title>
<polygon fill="#8dd3c7" stroke="black" points="643.19,-149.8 640.19,-153.8 619.19,-153.8 616.19,-149.8 522.81,-149.8 522.81,-113.8 643.19,-113.8 643.19,-149.8"/>
<text text-anchor="middle" x="583" y="-127.6" font-family="Times,serif" font-size="14.00">NtsWizardModule</text>
</g>
<!-- ChildrenCountPipe&#45;&gt;NtsWizardModule -->
<g id="edge1" class="edge">
<title>ChildrenCountPipe&#45;&gt;NtsWizardModule</title>
<path fill="none" stroke="black" d="M1013,-84.93C1013,-105.37 1013,-135.8 1013,-135.8 1013,-135.8 653.24,-135.8 653.24,-135.8"/>
<polygon fill="black" stroke="black" points="653.24,-132.3 643.24,-135.8 653.24,-139.3 653.24,-132.3"/>
</g>
<!-- ContentComponent -->
<g id="node2" class="node">
<title>ContentComponent</title>
<polygon fill="#ffffb3" stroke="black" points="932.67,-84.8 807.33,-84.8 807.33,-48.8 932.67,-48.8 932.67,-84.8"/>
<text text-anchor="middle" x="870" y="-62.6" font-family="Times,serif" font-size="14.00">ContentComponent</text>
</g>
<!-- ContentComponent&#45;&gt;NtsWizardModule -->
<g id="edge2" class="edge">
<title>ContentComponent&#45;&gt;NtsWizardModule</title>
<path fill="none" stroke="black" d="M839.99,-85.07C839.99,-103.36 839.99,-128.8 839.99,-128.8 839.99,-128.8 653.25,-128.8 653.25,-128.8"/>
<polygon fill="black" stroke="black" points="653.25,-125.3 643.25,-128.8 653.25,-132.3 653.25,-125.3"/>
</g>
<!-- NtsTreeComponent -->
<g id="node3" class="node">
<title>NtsTreeComponent</title>
<polygon fill="#ffffb3" stroke="black" points="789.42,-84.8 662.58,-84.8 662.58,-48.8 789.42,-48.8 789.42,-84.8"/>
<text text-anchor="middle" x="726" y="-62.6" font-family="Times,serif" font-size="14.00">NtsTreeComponent</text>
</g>
<!-- NtsTreeComponent&#45;&gt;NtsWizardModule -->
<g id="edge3" class="edge">
<title>NtsTreeComponent&#45;&gt;NtsWizardModule</title>
<path fill="none" stroke="black" d="M694.88,-84.81C694.88,-100.85 694.88,-121.8 694.88,-121.8 694.88,-121.8 653.19,-121.8 653.19,-121.8"/>
<polygon fill="black" stroke="black" points="653.19,-118.3 643.19,-121.8 653.19,-125.3 653.19,-118.3"/>
</g>
<!-- SectionComponent -->
<g id="node4" class="node">
<title>SectionComponent</title>
<polygon fill="#ffffb3" stroke="black" points="644.83,-84.8 521.17,-84.8 521.17,-48.8 644.83,-48.8 644.83,-84.8"/>
<text text-anchor="middle" x="583" y="-62.6" font-family="Times,serif" font-size="14.00">SectionComponent</text>
</g>
<!-- SectionComponent&#45;&gt;NtsWizardModule -->
<g id="edge4" class="edge">
<title>SectionComponent&#45;&gt;NtsWizardModule</title>
<path fill="none" stroke="black" d="M583,-84.91C583,-84.91 583,-103.79 583,-103.79"/>
<polygon fill="black" stroke="black" points="579.5,-103.79 583,-113.79 586.5,-103.79 579.5,-103.79"/>
</g>
<!-- TreeTemplateDirective -->
<g id="node5" class="node">
<title>TreeTemplateDirective</title>
<polygon fill="#ffffb3" stroke="black" points="503.09,-84.8 356.91,-84.8 356.91,-48.8 503.09,-48.8 503.09,-84.8"/>
<text text-anchor="middle" x="430" y="-62.6" font-family="Times,serif" font-size="14.00">TreeTemplateDirective</text>
</g>
<!-- TreeTemplateDirective&#45;&gt;NtsWizardModule -->
<g id="edge5" class="edge">
<title>TreeTemplateDirective&#45;&gt;NtsWizardModule</title>
<path fill="none" stroke="black" d="M466.12,-84.81C466.12,-100.85 466.12,-121.8 466.12,-121.8 466.12,-121.8 512.85,-121.8 512.85,-121.8"/>
<polygon fill="black" stroke="black" points="512.85,-125.3 522.85,-121.8 512.85,-118.3 512.85,-125.3"/>
</g>
<!-- TreeTemplateNodeDirective -->
<g id="node6" class="node">
<title>TreeTemplateNodeDirective</title>
<polygon fill="#ffffb3" stroke="black" points="338.41,-84.8 161.59,-84.8 161.59,-48.8 338.41,-48.8 338.41,-84.8"/>
<text text-anchor="middle" x="250" y="-62.6" font-family="Times,serif" font-size="14.00">TreeTemplateNodeDirective</text>
</g>
<!-- TreeTemplateNodeDirective&#45;&gt;NtsWizardModule -->
<g id="edge6" class="edge">
<title>TreeTemplateNodeDirective&#45;&gt;NtsWizardModule</title>
<path fill="none" stroke="black" d="M284.62,-85.07C284.62,-103.36 284.62,-128.8 284.62,-128.8 284.62,-128.8 512.62,-128.8 512.62,-128.8"/>
<polygon fill="black" stroke="black" points="512.62,-132.3 522.62,-128.8 512.62,-125.3 512.62,-132.3"/>
</g>
<!-- ChildrenCountPipe  -->
<g id="node9" class="node">
<title>ChildrenCountPipe </title>
<polygon fill="#fb8072" stroke="black" points="872.61,-214.8 745.39,-214.8 745.39,-178.8 872.61,-178.8 872.61,-214.8"/>
<text text-anchor="middle" x="809" y="-192.6" font-family="Times,serif" font-size="14.00">ChildrenCountPipe </text>
</g>
<!-- NtsWizardModule&#45;&gt;ChildrenCountPipe  -->
<g id="edge8" class="edge">
<title>NtsWizardModule&#45;&gt;ChildrenCountPipe </title>
<path fill="none" stroke="black" stroke-dasharray="5,2" d="M643.31,-142.8C697.04,-142.8 767.2,-142.8 767.2,-142.8 767.2,-142.8 767.2,-168.52 767.2,-168.52"/>
<polygon fill="black" stroke="black" points="763.7,-168.52 767.2,-178.52 770.7,-168.52 763.7,-168.52"/>
</g>
<!-- NtsTreeComponent  -->
<g id="node10" class="node">
<title>NtsTreeComponent </title>
<polygon fill="#fb8072" stroke="black" points="726.92,-214.8 597.08,-214.8 597.08,-178.8 726.92,-178.8 726.92,-214.8"/>
<text text-anchor="middle" x="662" y="-192.6" font-family="Times,serif" font-size="14.00">NtsTreeComponent </text>
</g>
<!-- NtsWizardModule&#45;&gt;NtsTreeComponent  -->
<g id="edge9" class="edge">
<title>NtsWizardModule&#45;&gt;NtsTreeComponent </title>
<path fill="none" stroke="black" stroke-dasharray="5,2" d="M620.07,-149.91C620.07,-149.91 620.07,-168.79 620.07,-168.79"/>
<polygon fill="black" stroke="black" points="616.57,-168.79 620.07,-178.79 623.57,-168.79 616.57,-168.79"/>
</g>
<!-- TreeTemplateDirective  -->
<g id="node11" class="node">
<title>TreeTemplateDirective </title>
<polygon fill="#fb8072" stroke="black" points="579.09,-214.8 428.91,-214.8 428.91,-178.8 579.09,-178.8 579.09,-214.8"/>
<text text-anchor="middle" x="504" y="-192.6" font-family="Times,serif" font-size="14.00">TreeTemplateDirective </text>
</g>
<!-- NtsWizardModule&#45;&gt;TreeTemplateDirective  -->
<g id="edge10" class="edge">
<title>NtsWizardModule&#45;&gt;TreeTemplateDirective </title>
<path fill="none" stroke="black" stroke-dasharray="5,2" d="M550.98,-149.91C550.98,-149.91 550.98,-168.79 550.98,-168.79"/>
<polygon fill="black" stroke="black" points="547.48,-168.79 550.98,-178.79 554.48,-168.79 547.48,-168.79"/>
</g>
<!-- TreeTemplateNodeDirective  -->
<g id="node12" class="node">
<title>TreeTemplateNodeDirective </title>
<polygon fill="#fb8072" stroke="black" points="411.42,-214.8 230.58,-214.8 230.58,-178.8 411.42,-178.8 411.42,-214.8"/>
<text text-anchor="middle" x="321" y="-192.6" font-family="Times,serif" font-size="14.00">TreeTemplateNodeDirective </text>
</g>
<!-- NtsWizardModule&#45;&gt;TreeTemplateNodeDirective  -->
<g id="edge11" class="edge">
<title>NtsWizardModule&#45;&gt;TreeTemplateNodeDirective </title>
<path fill="none" stroke="black" stroke-dasharray="5,2" d="M522.74,-142.8C464.16,-142.8 383.96,-142.8 383.96,-142.8 383.96,-142.8 383.96,-168.52 383.96,-168.52"/>
<polygon fill="black" stroke="black" points="380.46,-168.52 383.96,-178.52 387.46,-168.52 380.46,-168.52"/>
</g>
<!-- NtsFormsModule -->
<g id="node8" class="node">
<title>NtsFormsModule</title>
<polygon fill="#8dd3c7" stroke="black" points="138.27,-84.8 135.27,-88.8 114.27,-88.8 111.27,-84.8 23.73,-84.8 23.73,-48.8 138.27,-48.8 138.27,-84.8"/>
<text text-anchor="middle" x="81" y="-62.6" font-family="Times,serif" font-size="14.00">NtsFormsModule</text>
</g>
<!-- NtsFormsModule&#45;&gt;NtsWizardModule -->
<g id="edge7" class="edge">
<title>NtsFormsModule&#45;&gt;NtsWizardModule</title>
<path fill="none" stroke="black" d="M81,-84.93C81,-105.37 81,-135.8 81,-135.8 81,-135.8 512.45,-135.8 512.45,-135.8"/>
<polygon fill="black" stroke="black" points="512.45,-139.3 522.45,-135.8 512.45,-132.3 512.45,-139.3"/>
</g>
</g>
</svg>
