<?xml version="1.0" encoding="UTF-8" standalone="no"?>
<!DOCTYPE svg PUBLIC "-//W3C//DTD SVG 1.1//EN"
 "http://www.w3.org/Graphics/SVG/1.1/DTD/svg11.dtd">
<!-- Generated by graphviz version 2.40.1 (20161225.0304)
 -->
<!-- Title: dependencies Pages: 1 -->
<svg width="697pt" height="284pt"
 viewBox="0.00 0.00 697.00 284.00" xmlns="http://www.w3.org/2000/svg" xmlns:xlink="http://www.w3.org/1999/xlink">
<g id="graph0" class="graph" transform="scale(1 1) rotate(0) translate(4 280)">
<title>dependencies</title>
<polygon fill="#ffffff" stroke="transparent" points="-4,4 -4,-280 693,-280 693,4 -4,4"/>
<text text-anchor="start" x="323.5091" y="-42.4" font-family="sans-serif" font-weight="bold" font-size="14.00" fill="#000000">Legend</text>
<polygon fill="#ffffb3" stroke="transparent" points="110.5,-10 110.5,-30 130.5,-30 130.5,-10 110.5,-10"/>
<text text-anchor="start" x="134.129" y="-15.4" font-family="sans-serif" font-size="14.00" fill="#000000"> &#160;Declarations</text>
<polygon fill="#8dd3c7" stroke="transparent" points="223.5,-10 223.5,-30 243.5,-30 243.5,-10 223.5,-10"/>
<text text-anchor="start" x="247.2251" y="-15.4" font-family="sans-serif" font-size="14.00" fill="#000000"> &#160;Module</text>
<polygon fill="#80b1d3" stroke="transparent" points="309.5,-10 309.5,-30 329.5,-30 329.5,-10 309.5,-10"/>
<text text-anchor="start" x="333.2812" y="-15.4" font-family="sans-serif" font-size="14.00" fill="#000000"> &#160;Bootstrap</text>
<polygon fill="#fdb462" stroke="transparent" points="406.5,-10 406.5,-30 426.5,-30 426.5,-10 406.5,-10"/>
<text text-anchor="start" x="430.1732" y="-15.4" font-family="sans-serif" font-size="14.00" fill="#000000"> &#160;Providers</text>
<polygon fill="#fb8072" stroke="transparent" points="502.5,-10 502.5,-30 522.5,-30 522.5,-10 502.5,-10"/>
<text text-anchor="start" x="526.2258" y="-15.4" font-family="sans-serif" font-size="14.00" fill="#000000"> &#160;Exports</text>
<g id="clust1" class="cluster">
<title>cluster_ComponentsModule</title>
<polygon fill="none" stroke="#000000" stroke-dasharray="1,5" points="8,-70 8,-268 681,-268 681,-70 8,-70"/>
</g>
<g id="clust2" class="cluster">
<title>cluster_ComponentsModule_declarations</title>
<polygon fill="none" stroke="#000000" points="258,-78 258,-130 673,-130 673,-78 258,-78"/>
</g>
<g id="clust6" class="cluster">
<title>cluster_ComponentsModule_imports</title>
<polygon fill="none" stroke="#000000" points="16,-78 16,-130 250,-130 250,-78 16,-78"/>
</g>
<g id="clust7" class="cluster">
<title>cluster_ComponentsModule_exports</title>
<polygon fill="none" stroke="#000000" points="106,-208 106,-260 531,-260 531,-208 106,-208"/>
</g>
<!-- AppComponent -->
<g id="node1" class="node">
<title>AppComponent</title>
<polygon fill="#ffffb3" stroke="#000000" points="664.9399,-122 559.0601,-122 559.0601,-86 664.9399,-86 664.9399,-122"/>
<text text-anchor="middle" x="612" y="-99.8" font-family="Times,serif" font-size="14.00" fill="#000000">AppComponent</text>
</g>
<!-- ComponentsModule -->
<g id="node4" class="node">
<title>ComponentsModule</title>
<polygon fill="#8dd3c7" stroke="#000000" points="402.3272,-187 399.3272,-191 378.3272,-191 375.3272,-187 271.6728,-187 271.6728,-151 402.3272,-151 402.3272,-187"/>
<text text-anchor="middle" x="337" y="-164.8" font-family="Times,serif" font-size="14.00" fill="#000000">ComponentsModule</text>
</g>
<!-- AppComponent&#45;&gt;ComponentsModule -->
<g id="edge1" class="edge">
<title>AppComponent&#45;&gt;ComponentsModule</title>
<path fill="none" stroke="#000000" d="M612,-122.1061C612,-141.3391 612,-169 612,-169 612,-169 412.1712,-169 412.1712,-169"/>
<polygon fill="#000000" stroke="#000000" points="412.1712,-165.5001 402.1712,-169 412.1711,-172.5001 412.1712,-165.5001"/>
</g>
<!-- LoginComponent -->
<g id="node2" class="node">
<title>LoginComponent</title>
<polygon fill="#ffffb3" stroke="#000000" points="541.2758,-122 426.7242,-122 426.7242,-86 541.2758,-86 541.2758,-122"/>
<text text-anchor="middle" x="484" y="-99.8" font-family="Times,serif" font-size="14.00" fill="#000000">LoginComponent</text>
</g>
<!-- LoginComponent&#45;&gt;ComponentsModule -->
<g id="edge2" class="edge">
<title>LoginComponent&#45;&gt;ComponentsModule</title>
<path fill="none" stroke="#000000" d="M475.0409,-122.027C475.0409,-138.3976 475.0409,-160 475.0409,-160 475.0409,-160 412.3822,-160 412.3822,-160"/>
<polygon fill="#000000" stroke="#000000" points="412.3822,-156.5001 402.3822,-160 412.3821,-163.5001 412.3822,-156.5001"/>
</g>
<!-- NoContentComponent -->
<g id="node3" class="node">
<title>NoContentComponent</title>
<polygon fill="#ffffb3" stroke="#000000" points="408.2716,-122 265.7284,-122 265.7284,-86 408.2716,-86 408.2716,-122"/>
<text text-anchor="middle" x="337" y="-99.8" font-family="Times,serif" font-size="14.00" fill="#000000">NoContentComponent</text>
</g>
<!-- NoContentComponent&#45;&gt;ComponentsModule -->
<g id="edge3" class="edge">
<title>NoContentComponent&#45;&gt;ComponentsModule</title>
<path fill="none" stroke="#000000" d="M337,-122.1061C337,-122.1061 337,-140.991 337,-140.991"/>
<polygon fill="#000000" stroke="#000000" points="333.5001,-140.9909 337,-150.991 340.5001,-140.991 333.5001,-140.9909"/>
</g>
<!-- AppComponent  -->
<g id="node7" class="node">
<title>AppComponent </title>
<polygon fill="#fb8072" stroke="#000000" points="523.439,-252 414.561,-252 414.561,-216 523.439,-216 523.439,-252"/>
<text text-anchor="middle" x="469" y="-229.8" font-family="Times,serif" font-size="14.00" fill="#000000">AppComponent </text>
</g>
<!-- ComponentsModule&#45;&gt;AppComponent  -->
<g id="edge6" class="edge">
<title>ComponentsModule&#45;&gt;AppComponent </title>
<path fill="none" stroke="#000000" stroke-dasharray="5,2" d="M402.4376,-178C413.0107,-178 420.5714,-178 420.5714,-178 420.5714,-178 420.5714,-205.973 420.5714,-205.973"/>
<polygon fill="#000000" stroke="#000000" points="417.0714,-205.973 420.5714,-215.973 424.0714,-205.973 417.0714,-205.973"/>
</g>
<!-- LoginComponent  -->
<g id="node8" class="node">
<title>LoginComponent </title>
<polygon fill="#fb8072" stroke="#000000" points="396.2759,-252 277.7241,-252 277.7241,-216 396.2759,-216 396.2759,-252"/>
<text text-anchor="middle" x="337" y="-229.8" font-family="Times,serif" font-size="14.00" fill="#000000">LoginComponent </text>
</g>
<!-- ComponentsModule&#45;&gt;LoginComponent  -->
<g id="edge7" class="edge">
<title>ComponentsModule&#45;&gt;LoginComponent </title>
<path fill="none" stroke="#000000" stroke-dasharray="5,2" d="M337,-187.1061C337,-187.1061 337,-205.991 337,-205.991"/>
<polygon fill="#000000" stroke="#000000" points="333.5001,-205.9909 337,-215.991 340.5001,-205.991 333.5001,-205.9909"/>
</g>
<!-- NoContentComponent  -->
<g id="node9" class="node">
<title>NoContentComponent </title>
<polygon fill="#fb8072" stroke="#000000" points="260.2717,-252 113.7283,-252 113.7283,-216 260.2717,-216 260.2717,-252"/>
<text text-anchor="middle" x="187" y="-229.8" font-family="Times,serif" font-size="14.00" fill="#000000">NoContentComponent </text>
</g>
<!-- ComponentsModule&#45;&gt;NoContentComponent  -->
<g id="edge8" class="edge">
<title>ComponentsModule&#45;&gt;NoContentComponent </title>
<path fill="none" stroke="#000000" stroke-dasharray="5,2" d="M271.5131,-178C259.7658,-178 251.1734,-178 251.1734,-178 251.1734,-178 251.1734,-205.973 251.1734,-205.973"/>
<polygon fill="#000000" stroke="#000000" points="247.6735,-205.973 251.1734,-215.973 254.6735,-205.973 247.6735,-205.973"/>
</g>
<!-- SharedModule -->
<g id="node5" class="node">
<title>SharedModule</title>
<polygon fill="#8dd3c7" stroke="#000000" points="242.4231,-122 239.4231,-126 218.4231,-126 215.4231,-122 143.5769,-122 143.5769,-86 242.4231,-86 242.4231,-122"/>
<text text-anchor="middle" x="193" y="-99.8" font-family="Times,serif" font-size="14.00" fill="#000000">SharedModule</text>
</g>
<!-- SharedModule&#45;&gt;ComponentsModule -->
<g id="edge4" class="edge">
<title>SharedModule&#45;&gt;ComponentsModule</title>
<path fill="none" stroke="#000000" d="M193,-122.027C193,-138.3976 193,-160 193,-160 193,-160 261.7412,-160 261.7412,-160"/>
<polygon fill="#000000" stroke="#000000" points="261.7412,-163.5001 271.7412,-160 261.7412,-156.5001 261.7412,-163.5001"/>
</g>
<!-- VendorModule -->
<g id="node6" class="node">
<title>VendorModule</title>
<polygon fill="#8dd3c7" stroke="#000000" points="125.5327,-122 122.5327,-126 101.5327,-126 98.5327,-122 24.4673,-122 24.4673,-86 125.5327,-86 125.5327,-122"/>
<text text-anchor="middle" x="75" y="-99.8" font-family="Times,serif" font-size="14.00" fill="#000000">VendorModule</text>
</g>
<!-- VendorModule&#45;&gt;ComponentsModule -->
<g id="edge5" class="edge">
<title>VendorModule&#45;&gt;ComponentsModule</title>
<path fill="none" stroke="#000000" d="M119.8151,-122.1061C119.8151,-141.3391 119.8151,-169 119.815,-169 119.815,-169 261.5428,-169 261.5428,-169"/>
<polygon fill="#000000" stroke="#000000" points="261.5429,-172.5001 271.5428,-169 261.5428,-165.5001 261.5429,-172.5001"/>
</g>
</g>
</svg>
