<?xml version="1.0" encoding="UTF-8" standalone="no"?>
<!DOCTYPE svg PUBLIC "-//W3C//DTD SVG 1.1//EN"
 "http://www.w3.org/Graphics/SVG/1.1/DTD/svg11.dtd">
<!-- Generated by graphviz version 2.47.3 (20210619.1520)
 -->
<!-- Title: dependencies Pages: 1 -->
<svg width="281pt" height="247pt"
 viewBox="0.00 0.00 281.00 246.80" xmlns="http://www.w3.org/2000/svg" xmlns:xlink="http://www.w3.org/1999/xlink">
<g id="graph0" class="graph" transform="scale(1 1) rotate(0) translate(4 242.8)">
<title>dependencies</title>
<polygon fill="white" stroke="transparent" points="-4,4 -4,-242.8 277,-242.8 277,4 -4,4"/>
<text text-anchor="middle" x="136.5" y="-8.2" font-family="sans-serif" font-size="14.00">dependencies</text>
<g id="clust1" class="cluster">
<title>cluster_SiteModule</title>
<polygon fill="none" stroke="black" stroke-dasharray="1,5" points="8,-32.8 8,-230.8 265,-230.8 265,-32.8 8,-32.8"/>
</g>
<g id="clust3" class="cluster">
<title>cluster_SiteModule_imports</title>
<polygon fill="none" stroke="black" points="20,-40.8 20,-92.8 254,-92.8 254,-40.8 20,-40.8"/>
</g>
<g id="clust4" class="cluster">
<title>cluster_SiteModule_exports</title>
<polygon fill="none" stroke="black" points="16,-170.8 16,-222.8 257,-222.8 257,-170.8 16,-170.8"/>
</g>
<!-- SharedModule -->
<g id="node1" class="node">
<title>SharedModule</title>
<polygon fill="#8dd3c7" stroke="black" points="246.42,-84.8 243.42,-88.8 222.42,-88.8 219.42,-84.8 147.58,-84.8 147.58,-48.8 246.42,-48.8 246.42,-84.8"/>
<text text-anchor="middle" x="197" y="-62.6" font-family="Times,serif" font-size="14.00">SharedModule</text>
</g>
<!-- SiteModule -->
<g id="node3" class="node">
<title>SiteModule</title>
<polygon fill="#8dd3c7" stroke="black" points="120.83,-149.8 117.83,-153.8 96.83,-153.8 93.83,-149.8 39.17,-149.8 39.17,-113.8 120.83,-113.8 120.83,-149.8"/>
<text text-anchor="middle" x="80" y="-127.6" font-family="Times,serif" font-size="14.00">SiteModule</text>
</g>
<!-- SharedModule&#45;&gt;SiteModule -->
<g id="edge1" class="edge">
<title>SharedModule&#45;&gt;SiteModule</title>
<path fill="none" stroke="black" d="M213.4,-84.82C213.4,-102.17 213.4,-125.8 213.4,-125.8 213.4,-125.8 130.75,-125.8 130.75,-125.8"/>
<polygon fill="black" stroke="black" points="130.75,-122.3 120.75,-125.8 130.75,-129.3 130.75,-122.3"/>
</g>
<!-- VendorModule -->
<g id="node2" class="node">
<title>VendorModule</title>
<polygon fill="#8dd3c7" stroke="black" points="129.53,-84.8 126.53,-88.8 105.53,-88.8 102.53,-84.8 28.47,-84.8 28.47,-48.8 129.53,-48.8 129.53,-84.8"/>
<text text-anchor="middle" x="79" y="-62.6" font-family="Times,serif" font-size="14.00">VendorModule</text>
</g>
<!-- VendorModule&#45;&gt;SiteModule -->
<g id="edge2" class="edge">
<title>VendorModule&#45;&gt;SiteModule</title>
<path fill="none" stroke="black" d="M80,-84.91C80,-84.91 80,-103.79 80,-103.79"/>
<polygon fill="black" stroke="black" points="76.5,-103.79 80,-113.79 83.5,-103.79 76.5,-103.79"/>
</g>
<!-- SharedModule  -->
<g id="node4" class="node">
<title>SharedModule </title>
<polygon fill="#fb8072" stroke="black" points="248.92,-214.8 147.08,-214.8 147.08,-178.8 248.92,-178.8 248.92,-214.8"/>
<text text-anchor="middle" x="198" y="-192.6" font-family="Times,serif" font-size="14.00">SharedModule </text>
</g>
<!-- SiteModule&#45;&gt;SharedModule  -->
<g id="edge3" class="edge">
<title>SiteModule&#45;&gt;SharedModule </title>
<path fill="none" stroke="black" stroke-dasharray="5,2" d="M120.92,-137.8C148.77,-137.8 180.6,-137.8 180.6,-137.8 180.6,-137.8 180.6,-168.78 180.6,-168.78"/>
<polygon fill="black" stroke="black" points="177.1,-168.78 180.6,-178.78 184.1,-168.78 177.1,-168.78"/>
</g>
<!-- VendorModule  -->
<g id="node5" class="node">
<title>VendorModule </title>
<polygon fill="#fb8072" stroke="black" points="129.53,-214.8 24.47,-214.8 24.47,-178.8 129.53,-178.8 129.53,-214.8"/>
<text text-anchor="middle" x="77" y="-192.6" font-family="Times,serif" font-size="14.00">VendorModule </text>
</g>
<!-- SiteModule&#45;&gt;VendorModule  -->
<g id="edge4" class="edge">
<title>SiteModule&#45;&gt;VendorModule </title>
<path fill="none" stroke="black" stroke-dasharray="5,2" d="M80,-149.91C80,-149.91 80,-168.79 80,-168.79"/>
<polygon fill="black" stroke="black" points="76.5,-168.79 80,-178.79 83.5,-168.79 76.5,-168.79"/>
</g>
</g>
</svg>
