<?xml version="1.0" encoding="UTF-8" standalone="no"?>
<!DOCTYPE svg PUBLIC "-//W3C//DTD SVG 1.1//EN"
 "http://www.w3.org/Graphics/SVG/1.1/DTD/svg11.dtd">
<!-- Generated by graphviz version 2.47.3 (20210619.1520)
 -->
<!-- Title: dependencies Pages: 1 -->
<svg width="854pt" height="174pt"
 viewBox="0.00 0.00 854.00 173.80" xmlns="http://www.w3.org/2000/svg" xmlns:xlink="http://www.w3.org/1999/xlink">
<g id="graph0" class="graph" transform="scale(1 1) rotate(0) translate(4 169.8)">
<title>dependencies</title>
<polygon fill="white" stroke="transparent" points="-4,4 -4,-169.8 850,-169.8 850,4 -4,4"/>
<text text-anchor="middle" x="423" y="-8.2" font-family="sans-serif" font-size="14.00">dependencies</text>
<g id="clust1" class="cluster">
<title>cluster_RouteModule</title>
<polygon fill="none" stroke="black" stroke-dasharray="1,5" points="8,-32.8 8,-157.8 838,-157.8 838,-32.8 8,-32.8"/>
</g>
<g id="clust7" class="cluster">
<title>cluster_RouteModule_providers</title>
<polygon fill="none" stroke="black" points="254,-40.8 254,-92.8 830,-92.8 830,-40.8 254,-40.8"/>
</g>
<g id="clust2" class="cluster">
<title>cluster_RouteModule_declarations</title>
<polygon fill="none" stroke="black" points="122,-40.8 122,-92.8 246,-92.8 246,-40.8 122,-40.8"/>
</g>
<g id="clust4" class="cluster">
<title>cluster_RouteModule_imports</title>
<polygon fill="none" stroke="black" points="16,-40.8 16,-92.8 114,-92.8 114,-40.8 16,-40.8"/>
</g>
<!-- RootComponent -->
<g id="node1" class="node">
<title>RootComponent</title>
<polygon fill="#ffffb3" stroke="black" points="238.06,-84.8 129.94,-84.8 129.94,-48.8 238.06,-48.8 238.06,-84.8"/>
<text text-anchor="middle" x="184" y="-62.6" font-family="Times,serif" font-size="14.00">RootComponent</text>
</g>
<!-- RouteModule -->
<g id="node2" class="node">
<title>RouteModule</title>
<polygon fill="#8dd3c7" stroke="black" points="391.49,-149.8 388.49,-153.8 367.49,-153.8 364.49,-149.8 298.51,-149.8 298.51,-113.8 391.49,-113.8 391.49,-149.8"/>
<text text-anchor="middle" x="345" y="-127.6" font-family="Times,serif" font-size="14.00">RouteModule</text>
</g>
<!-- RootComponent&#45;&gt;RouteModule -->
<g id="edge1" class="edge">
<title>RootComponent&#45;&gt;RouteModule</title>
<path fill="none" stroke="black" d="M184,-84.82C184,-102.17 184,-125.8 184,-125.8 184,-125.8 288.43,-125.8 288.43,-125.8"/>
<polygon fill="black" stroke="black" points="288.43,-129.3 298.43,-125.8 288.43,-122.3 288.43,-129.3"/>
</g>
<!-- SiteModule -->
<g id="node3" class="node">
<title>SiteModule</title>
<polygon fill="#8dd3c7" stroke="black" points="105.83,-84.8 102.83,-88.8 81.83,-88.8 78.83,-84.8 24.17,-84.8 24.17,-48.8 105.83,-48.8 105.83,-84.8"/>
<text text-anchor="middle" x="65" y="-62.6" font-family="Times,serif" font-size="14.00">SiteModule</text>
</g>
<!-- SiteModule&#45;&gt;RouteModule -->
<g id="edge2" class="edge">
<title>SiteModule&#45;&gt;RouteModule</title>
<path fill="none" stroke="black" d="M65,-85.08C65,-106.12 65,-137.8 65,-137.8 65,-137.8 288.45,-137.8 288.45,-137.8"/>
<polygon fill="black" stroke="black" points="288.45,-141.3 298.45,-137.8 288.45,-134.3 288.45,-141.3"/>
</g>
<!-- RouteUiStateQuery -->
<g id="node4" class="node">
<title>RouteUiStateQuery</title>
<ellipse fill="#fdb462" stroke="black" cx="735" cy="-66.8" rx="87.4" ry="18"/>
<text text-anchor="middle" x="735" y="-62.6" font-family="Times,serif" font-size="14.00">RouteUiStateQuery</text>
</g>
<!-- RouteUiStateQuery&#45;&gt;RouteModule -->
<g id="edge3" class="edge">
<title>RouteUiStateQuery&#45;&gt;RouteModule</title>
<path fill="none" stroke="black" d="M735,-85.08C735,-106.12 735,-137.8 735,-137.8 735,-137.8 401.66,-137.8 401.66,-137.8"/>
<polygon fill="black" stroke="black" points="401.66,-134.3 391.66,-137.8 401.66,-141.3 401.66,-134.3"/>
</g>
<!-- RouteUiStateService -->
<g id="node5" class="node">
<title>RouteUiStateService</title>
<ellipse fill="#fdb462" stroke="black" cx="538" cy="-66.8" rx="92.05" ry="18"/>
<text text-anchor="middle" x="538" y="-62.6" font-family="Times,serif" font-size="14.00">RouteUiStateService</text>
</g>
<!-- RouteUiStateService&#45;&gt;RouteModule -->
<g id="edge4" class="edge">
<title>RouteUiStateService&#45;&gt;RouteModule</title>
<path fill="none" stroke="black" d="M538,-84.82C538,-102.17 538,-125.8 538,-125.8 538,-125.8 401.72,-125.8 401.72,-125.8"/>
<polygon fill="black" stroke="black" points="401.72,-122.3 391.72,-125.8 401.72,-129.3 401.72,-122.3"/>
</g>
<!-- RouteUiStateStore -->
<g id="node6" class="node">
<title>RouteUiStateStore</title>
<ellipse fill="#fdb462" stroke="black" cx="345" cy="-66.8" rx="83.4" ry="18"/>
<text text-anchor="middle" x="345" y="-62.6" font-family="Times,serif" font-size="14.00">RouteUiStateStore</text>
</g>
<!-- RouteUiStateStore&#45;&gt;RouteModule -->
<g id="edge5" class="edge">
<title>RouteUiStateStore&#45;&gt;RouteModule</title>
<path fill="none" stroke="black" d="M345,-84.91C345,-84.91 345,-103.79 345,-103.79"/>
<polygon fill="black" stroke="black" points="341.5,-103.79 345,-113.79 348.5,-103.79 341.5,-103.79"/>
</g>
</g>
</svg>
