<?xml version="1.0" encoding="UTF-8" standalone="no"?>
<!DOCTYPE svg PUBLIC "-//W3C//DTD SVG 1.1//EN"
 "http://www.w3.org/Graphics/SVG/1.1/DTD/svg11.dtd">
<!-- Generated by graphviz version 2.47.3 (20210619.1520)
 -->
<!-- Title: dependencies Pages: 1 -->
<svg width="698pt" height="247pt"
 viewBox="0.00 0.00 698.00 246.80" xmlns="http://www.w3.org/2000/svg" xmlns:xlink="http://www.w3.org/1999/xlink">
<g id="graph0" class="graph" transform="scale(1 1) rotate(0) translate(4 242.8)">
<title>dependencies</title>
<polygon fill="white" stroke="transparent" points="-4,4 -4,-242.8 694,-242.8 694,4 -4,4"/>
<text text-anchor="middle" x="345" y="-8.2" font-family="sans-serif" font-size="14.00">dependencies</text>
<g id="clust1" class="cluster">
<title>cluster_NtsTreeModule</title>
<polygon fill="none" stroke="black" stroke-dasharray="1,5" points="8,-32.8 8,-230.8 682,-230.8 682,-32.8 8,-32.8"/>
</g>
<g id="clust2" class="cluster">
<title>cluster_NtsTreeModule_declarations</title>
<polygon fill="none" stroke="black" points="24,-40.8 24,-92.8 668,-92.8 668,-40.8 24,-40.8"/>
</g>
<g id="clust8" class="cluster">
<title>cluster_NtsTreeModule_exports</title>
<polygon fill="none" stroke="black" points="16,-170.8 16,-222.8 674,-222.8 674,-170.8 16,-170.8"/>
</g>
<!-- ChildrenCountPipe -->
<g id="node1" class="node">
<title>ChildrenCountPipe</title>
<polygon fill="#ffffb3" stroke="black" points="660.11,-84.8 535.89,-84.8 535.89,-48.8 660.11,-48.8 660.11,-84.8"/>
<text text-anchor="middle" x="598" y="-62.6" font-family="Times,serif" font-size="14.00">ChildrenCountPipe</text>
</g>
<!-- NtsTreeModule -->
<g id="node5" class="node">
<title>NtsTreeModule</title>
<polygon fill="#8dd3c7" stroke="black" points="354.13,-149.8 351.13,-153.8 330.13,-153.8 327.13,-149.8 249.87,-149.8 249.87,-113.8 354.13,-113.8 354.13,-149.8"/>
<text text-anchor="middle" x="302" y="-127.6" font-family="Times,serif" font-size="14.00">NtsTreeModule</text>
</g>
<!-- ChildrenCountPipe&#45;&gt;NtsTreeModule -->
<g id="edge1" class="edge">
<title>ChildrenCountPipe&#45;&gt;NtsTreeModule</title>
<path fill="none" stroke="black" d="M619.43,-85.07C619.43,-103.36 619.43,-128.8 619.43,-128.8 619.43,-128.8 364.42,-128.8 364.42,-128.8"/>
<polygon fill="black" stroke="black" points="364.42,-125.3 354.42,-128.8 364.42,-132.3 364.42,-125.3"/>
</g>
<!-- NtsTreeComponent -->
<g id="node2" class="node">
<title>NtsTreeComponent</title>
<polygon fill="#ffffb3" stroke="black" points="518.42,-84.8 391.58,-84.8 391.58,-48.8 518.42,-48.8 518.42,-84.8"/>
<text text-anchor="middle" x="455" y="-62.6" font-family="Times,serif" font-size="14.00">NtsTreeComponent</text>
</g>
<!-- NtsTreeComponent&#45;&gt;NtsTreeModule -->
<g id="edge2" class="edge">
<title>NtsTreeComponent&#45;&gt;NtsTreeModule</title>
<path fill="none" stroke="black" d="M476.07,-84.81C476.07,-100.85 476.07,-121.8 476.07,-121.8 476.07,-121.8 364.23,-121.8 364.23,-121.8"/>
<polygon fill="black" stroke="black" points="364.23,-118.3 354.23,-121.8 364.23,-125.3 364.23,-118.3"/>
</g>
<!-- TreeTemplateDirective -->
<g id="node3" class="node">
<title>TreeTemplateDirective</title>
<polygon fill="#ffffb3" stroke="black" points="373.09,-84.8 226.91,-84.8 226.91,-48.8 373.09,-48.8 373.09,-84.8"/>
<text text-anchor="middle" x="300" y="-62.6" font-family="Times,serif" font-size="14.00">TreeTemplateDirective</text>
</g>
<!-- TreeTemplateDirective&#45;&gt;NtsTreeModule -->
<g id="edge3" class="edge">
<title>TreeTemplateDirective&#45;&gt;NtsTreeModule</title>
<path fill="none" stroke="black" d="M302,-84.91C302,-84.91 302,-103.79 302,-103.79"/>
<polygon fill="black" stroke="black" points="298.5,-103.79 302,-113.79 305.5,-103.79 298.5,-103.79"/>
</g>
<!-- TreeTemplateNodeDirective -->
<g id="node4" class="node">
<title>TreeTemplateNodeDirective</title>
<polygon fill="#ffffb3" stroke="black" points="208.41,-84.8 31.59,-84.8 31.59,-48.8 208.41,-48.8 208.41,-84.8"/>
<text text-anchor="middle" x="120" y="-62.6" font-family="Times,serif" font-size="14.00">TreeTemplateNodeDirective</text>
</g>
<!-- TreeTemplateNodeDirective&#45;&gt;NtsTreeModule -->
<g id="edge4" class="edge">
<title>TreeTemplateNodeDirective&#45;&gt;NtsTreeModule</title>
<path fill="none" stroke="black" d="M146.65,-84.82C146.65,-102.17 146.65,-125.8 146.65,-125.8 146.65,-125.8 239.84,-125.8 239.84,-125.8"/>
<polygon fill="black" stroke="black" points="239.84,-129.3 249.84,-125.8 239.84,-122.3 239.84,-129.3"/>
</g>
<!-- ChildrenCountPipe  -->
<g id="node6" class="node">
<title>ChildrenCountPipe </title>
<polygon fill="#fb8072" stroke="black" points="665.61,-214.8 538.39,-214.8 538.39,-178.8 665.61,-178.8 665.61,-214.8"/>
<text text-anchor="middle" x="602" y="-192.6" font-family="Times,serif" font-size="14.00">ChildrenCountPipe </text>
</g>
<!-- NtsTreeModule&#45;&gt;ChildrenCountPipe  -->
<g id="edge5" class="edge">
<title>NtsTreeModule&#45;&gt;ChildrenCountPipe </title>
<path fill="none" stroke="black" stroke-dasharray="5,2" d="M354.39,-135.8C434.64,-135.8 578.82,-135.8 578.82,-135.8 578.82,-135.8 578.82,-168.5 578.82,-168.5"/>
<polygon fill="black" stroke="black" points="575.32,-168.5 578.82,-178.5 582.32,-168.5 575.32,-168.5"/>
</g>
<!-- NtsTreeComponent  -->
<g id="node7" class="node">
<title>NtsTreeComponent </title>
<polygon fill="#fb8072" stroke="black" points="519.92,-214.8 390.08,-214.8 390.08,-178.8 519.92,-178.8 519.92,-214.8"/>
<text text-anchor="middle" x="455" y="-192.6" font-family="Times,serif" font-size="14.00">NtsTreeComponent </text>
</g>
<!-- NtsTreeModule&#45;&gt;NtsTreeComponent  -->
<g id="edge6" class="edge">
<title>NtsTreeModule&#45;&gt;NtsTreeComponent </title>
<path fill="none" stroke="black" stroke-dasharray="5,2" d="M354.14,-142.8C391.02,-142.8 433.93,-142.8 433.93,-142.8 433.93,-142.8 433.93,-168.52 433.93,-168.52"/>
<polygon fill="black" stroke="black" points="430.43,-168.52 433.93,-178.52 437.43,-168.52 430.43,-168.52"/>
</g>
<!-- TreeTemplateDirective  -->
<g id="node8" class="node">
<title>TreeTemplateDirective </title>
<polygon fill="#fb8072" stroke="black" points="372.09,-214.8 221.91,-214.8 221.91,-178.8 372.09,-178.8 372.09,-214.8"/>
<text text-anchor="middle" x="297" y="-192.6" font-family="Times,serif" font-size="14.00">TreeTemplateDirective </text>
</g>
<!-- NtsTreeModule&#45;&gt;TreeTemplateDirective  -->
<g id="edge7" class="edge">
<title>NtsTreeModule&#45;&gt;TreeTemplateDirective </title>
<path fill="none" stroke="black" stroke-dasharray="5,2" d="M302,-149.91C302,-149.91 302,-168.79 302,-168.79"/>
<polygon fill="black" stroke="black" points="298.5,-168.79 302,-178.79 305.5,-168.79 298.5,-168.79"/>
</g>
<!-- TreeTemplateNodeDirective  -->
<g id="node9" class="node">
<title>TreeTemplateNodeDirective </title>
<polygon fill="#fb8072" stroke="black" points="204.42,-214.8 23.58,-214.8 23.58,-178.8 204.42,-178.8 204.42,-214.8"/>
<text text-anchor="middle" x="114" y="-192.6" font-family="Times,serif" font-size="14.00">TreeTemplateNodeDirective </text>
</g>
<!-- NtsTreeModule&#45;&gt;TreeTemplateNodeDirective  -->
<g id="edge8" class="edge">
<title>NtsTreeModule&#45;&gt;TreeTemplateNodeDirective </title>
<path fill="none" stroke="black" stroke-dasharray="5,2" d="M249.65,-137.8C186.61,-137.8 89.1,-137.8 89.1,-137.8 89.1,-137.8 89.1,-168.78 89.1,-168.78"/>
<polygon fill="black" stroke="black" points="85.6,-168.78 89.1,-178.78 92.6,-168.78 85.6,-168.78"/>
</g>
</g>
</svg>
