<?xml version="1.0" encoding="UTF-8" standalone="no"?>
<!DOCTYPE svg PUBLIC "-//W3C//DTD SVG 1.1//EN"
 "http://www.w3.org/Graphics/SVG/1.1/DTD/svg11.dtd">
<!-- Generated by graphviz version 2.47.3 (20210619.1520)
 -->
<!-- Title: dependencies Pages: 1 -->
<svg width="276pt" height="174pt"
 viewBox="0.00 0.00 276.00 173.80" xmlns="http://www.w3.org/2000/svg" xmlns:xlink="http://www.w3.org/1999/xlink">
<g id="graph0" class="graph" transform="scale(1 1) rotate(0) translate(4 169.8)">
<title>dependencies</title>
<polygon fill="white" stroke="transparent" points="-4,4 -4,-169.8 272,-169.8 272,4 -4,4"/>
<text text-anchor="middle" x="134" y="-8.2" font-family="sans-serif" font-size="14.00">dependencies</text>
<g id="clust1" class="cluster">
<title>cluster_LoginModule</title>
<polygon fill="none" stroke="black" stroke-dasharray="1,5" points="8,-32.8 8,-157.8 260,-157.8 260,-32.8 8,-32.8"/>
</g>
<g id="clust4" class="cluster">
<title>cluster_LoginModule_imports</title>
<polygon fill="none" stroke="black" points="154,-40.8 154,-92.8 252,-92.8 252,-40.8 154,-40.8"/>
</g>
<g id="clust2" class="cluster">
<title>cluster_LoginModule_declarations</title>
<polygon fill="none" stroke="black" points="16,-40.8 16,-92.8 146,-92.8 146,-40.8 16,-40.8"/>
</g>
<!-- LoginComponent -->
<g id="node1" class="node">
<title>LoginComponent</title>
<polygon fill="#ffffb3" stroke="black" points="138.28,-84.8 23.72,-84.8 23.72,-48.8 138.28,-48.8 138.28,-84.8"/>
<text text-anchor="middle" x="81" y="-62.6" font-family="Times,serif" font-size="14.00">LoginComponent</text>
</g>
<!-- LoginModule -->
<g id="node2" class="node">
<title>LoginModule</title>
<polygon fill="#8dd3c7" stroke="black" points="188.49,-149.8 185.49,-153.8 164.49,-153.8 161.49,-149.8 95.51,-149.8 95.51,-113.8 188.49,-113.8 188.49,-149.8"/>
<text text-anchor="middle" x="142" y="-127.6" font-family="Times,serif" font-size="14.00">LoginModule</text>
</g>
<!-- LoginComponent&#45;&gt;LoginModule -->
<g id="edge1" class="edge">
<title>LoginComponent&#45;&gt;LoginModule</title>
<path fill="none" stroke="black" d="M116.95,-84.91C116.95,-84.91 116.95,-103.79 116.95,-103.79"/>
<polygon fill="black" stroke="black" points="113.45,-103.79 116.95,-113.79 120.45,-103.79 113.45,-103.79"/>
</g>
<!-- SiteModule -->
<g id="node3" class="node">
<title>SiteModule</title>
<polygon fill="#8dd3c7" stroke="black" points="243.83,-84.8 240.83,-88.8 219.83,-88.8 216.83,-84.8 162.17,-84.8 162.17,-48.8 243.83,-48.8 243.83,-84.8"/>
<text text-anchor="middle" x="203" y="-62.6" font-family="Times,serif" font-size="14.00">SiteModule</text>
</g>
<!-- SiteModule&#45;&gt;LoginModule -->
<g id="edge2" class="edge">
<title>SiteModule&#45;&gt;LoginModule</title>
<path fill="none" stroke="black" d="M175.42,-84.91C175.42,-84.91 175.42,-103.79 175.42,-103.79"/>
<polygon fill="black" stroke="black" points="171.92,-103.79 175.42,-113.79 178.92,-103.79 171.92,-103.79"/>
</g>
</g>
</svg>
