<?xml version="1.0" encoding="UTF-8" standalone="no"?>
<!DOCTYPE svg PUBLIC "-//W3C//DTD SVG 1.1//EN"
 "http://www.w3.org/Graphics/SVG/1.1/DTD/svg11.dtd">
<!-- Generated by graphviz version 2.47.3 (20210619.1520)
 -->
<!-- Title: dependencies Pages: 1 -->
<svg width="728pt" height="247pt"
 viewBox="0.00 0.00 728.00 246.80" xmlns="http://www.w3.org/2000/svg" xmlns:xlink="http://www.w3.org/1999/xlink">
<g id="graph0" class="graph" transform="scale(1 1) rotate(0) translate(4 242.8)">
<title>dependencies</title>
<polygon fill="white" stroke="transparent" points="-4,4 -4,-242.8 724,-242.8 724,4 -4,4"/>
<text text-anchor="middle" x="360" y="-8.2" font-family="sans-serif" font-size="14.00">dependencies</text>
<g id="clust1" class="cluster">
<title>cluster_NtsStateManagementModule</title>
<polygon fill="none" stroke="black" stroke-dasharray="1,5" points="8,-32.8 8,-230.8 712,-230.8 712,-32.8 8,-32.8"/>
</g>
<g id="clust2" class="cluster">
<title>cluster_NtsStateManagementModule_declarations</title>
<polygon fill="none" stroke="black" points="26,-40.8 26,-92.8 694,-92.8 694,-40.8 26,-40.8"/>
</g>
<g id="clust9" class="cluster">
<title>cluster_NtsStateManagementModule_exports</title>
<polygon fill="none" stroke="black" points="16,-170.8 16,-222.8 704,-222.8 704,-170.8 16,-170.8"/>
</g>
<!-- EntityData -->
<g id="node1" class="node">
<title>EntityData</title>
<polygon fill="#ffffb3" stroke="black" points="686.15,-84.8 609.85,-84.8 609.85,-48.8 686.15,-48.8 686.15,-84.8"/>
<text text-anchor="middle" x="648" y="-62.6" font-family="Times,serif" font-size="14.00">EntityData</text>
</g>
<!-- NtsStateManagementModule -->
<g id="node6" class="node">
<title>NtsStateManagementModule</title>
<polygon fill="#8dd3c7" stroke="black" points="513.07,-149.8 510.07,-153.8 489.07,-153.8 486.07,-149.8 332.93,-149.8 332.93,-113.8 513.07,-113.8 513.07,-149.8"/>
<text text-anchor="middle" x="423" y="-127.6" font-family="Times,serif" font-size="14.00">NtsStateManagementModule</text>
</g>
<!-- EntityData&#45;&gt;NtsStateManagementModule -->
<g id="edge1" class="edge">
<title>EntityData&#45;&gt;NtsStateManagementModule</title>
<path fill="none" stroke="black" d="M662.86,-84.82C662.86,-102.17 662.86,-125.8 662.86,-125.8 662.86,-125.8 523.34,-125.8 523.34,-125.8"/>
<polygon fill="black" stroke="black" points="523.34,-122.3 513.34,-125.8 523.34,-129.3 523.34,-122.3"/>
</g>
<!-- EntityIsLoaded -->
<g id="node2" class="node">
<title>EntityIsLoaded</title>
<polygon fill="#ffffb3" stroke="black" points="592.31,-84.8 489.69,-84.8 489.69,-48.8 592.31,-48.8 592.31,-84.8"/>
<text text-anchor="middle" x="541" y="-62.6" font-family="Times,serif" font-size="14.00">EntityIsLoaded</text>
</g>
<!-- EntityIsLoaded&#45;&gt;NtsStateManagementModule -->
<g id="edge2" class="edge">
<title>EntityIsLoaded&#45;&gt;NtsStateManagementModule</title>
<path fill="none" stroke="black" d="M501.44,-84.91C501.44,-84.91 501.44,-103.79 501.44,-103.79"/>
<polygon fill="black" stroke="black" points="497.94,-103.79 501.44,-113.79 504.94,-103.79 497.94,-103.79"/>
</g>
<!-- EntityToArray -->
<g id="node3" class="node">
<title>EntityToArray</title>
<polygon fill="#ffffb3" stroke="black" points="472.42,-84.8 373.58,-84.8 373.58,-48.8 472.42,-48.8 472.42,-84.8"/>
<text text-anchor="middle" x="423" y="-62.6" font-family="Times,serif" font-size="14.00">EntityToArray</text>
</g>
<!-- EntityToArray&#45;&gt;NtsStateManagementModule -->
<g id="edge3" class="edge">
<title>EntityToArray&#45;&gt;NtsStateManagementModule</title>
<path fill="none" stroke="black" d="M423,-84.91C423,-84.91 423,-103.79 423,-103.79"/>
<polygon fill="black" stroke="black" points="419.5,-103.79 423,-113.79 426.5,-103.79 419.5,-103.79"/>
</g>
<!-- NtsDomainStateComponent -->
<g id="node4" class="node">
<title>NtsDomainStateComponent</title>
<polygon fill="#ffffb3" stroke="black" points="355.87,-84.8 182.13,-84.8 182.13,-48.8 355.87,-48.8 355.87,-84.8"/>
<text text-anchor="middle" x="269" y="-62.6" font-family="Times,serif" font-size="14.00">NtsDomainStateComponent</text>
</g>
<!-- NtsDomainStateComponent&#45;&gt;NtsStateManagementModule -->
<g id="edge4" class="edge">
<title>NtsDomainStateComponent&#45;&gt;NtsStateManagementModule</title>
<path fill="none" stroke="black" d="M344.45,-84.91C344.45,-84.91 344.45,-103.79 344.45,-103.79"/>
<polygon fill="black" stroke="black" points="340.95,-103.79 344.45,-113.79 347.95,-103.79 340.95,-103.79"/>
</g>
<!-- NtsErrorComponent -->
<g id="node5" class="node">
<title>NtsErrorComponent</title>
<polygon fill="#ffffb3" stroke="black" points="164.31,-84.8 33.69,-84.8 33.69,-48.8 164.31,-48.8 164.31,-84.8"/>
<text text-anchor="middle" x="99" y="-62.6" font-family="Times,serif" font-size="14.00">NtsErrorComponent</text>
</g>
<!-- NtsErrorComponent&#45;&gt;NtsStateManagementModule -->
<g id="edge5" class="edge">
<title>NtsErrorComponent&#45;&gt;NtsStateManagementModule</title>
<path fill="none" stroke="black" d="M116.55,-84.82C116.55,-102.17 116.55,-125.8 116.55,-125.8 116.55,-125.8 322.71,-125.8 322.71,-125.8"/>
<polygon fill="black" stroke="black" points="322.71,-129.3 332.71,-125.8 322.71,-122.3 322.71,-129.3"/>
</g>
<!-- EntityData  -->
<g id="node7" class="node">
<title>EntityData </title>
<polygon fill="#fb8072" stroke="black" points="696.15,-214.8 615.85,-214.8 615.85,-178.8 696.15,-178.8 696.15,-214.8"/>
<text text-anchor="middle" x="656" y="-192.6" font-family="Times,serif" font-size="14.00">EntityData </text>
</g>
<!-- NtsStateManagementModule&#45;&gt;EntityData  -->
<g id="edge6" class="edge">
<title>NtsStateManagementModule&#45;&gt;EntityData </title>
<path fill="none" stroke="black" stroke-dasharray="5,2" d="M513.2,-137.8C572.58,-137.8 639.39,-137.8 639.39,-137.8 639.39,-137.8 639.39,-168.78 639.39,-168.78"/>
<polygon fill="black" stroke="black" points="635.89,-168.78 639.39,-178.78 642.89,-168.78 635.89,-168.78"/>
</g>
<!-- EntityIsLoaded  -->
<g id="node8" class="node">
<title>EntityIsLoaded </title>
<polygon fill="#fb8072" stroke="black" points="597.81,-214.8 492.19,-214.8 492.19,-178.8 597.81,-178.8 597.81,-214.8"/>
<text text-anchor="middle" x="545" y="-192.6" font-family="Times,serif" font-size="14.00">EntityIsLoaded </text>
</g>
<!-- NtsStateManagementModule&#45;&gt;EntityIsLoaded  -->
<g id="edge7" class="edge">
<title>NtsStateManagementModule&#45;&gt;EntityIsLoaded </title>
<path fill="none" stroke="black" stroke-dasharray="5,2" d="M502.56,-149.91C502.56,-149.91 502.56,-168.79 502.56,-168.79"/>
<polygon fill="black" stroke="black" points="499.06,-168.79 502.56,-178.79 506.06,-168.79 499.06,-168.79"/>
</g>
<!-- EntityToArray  -->
<g id="node9" class="node">
<title>EntityToArray </title>
<polygon fill="#fb8072" stroke="black" points="473.92,-214.8 372.08,-214.8 372.08,-178.8 473.92,-178.8 473.92,-214.8"/>
<text text-anchor="middle" x="423" y="-192.6" font-family="Times,serif" font-size="14.00">EntityToArray </text>
</g>
<!-- NtsStateManagementModule&#45;&gt;EntityToArray  -->
<g id="edge8" class="edge">
<title>NtsStateManagementModule&#45;&gt;EntityToArray </title>
<path fill="none" stroke="black" stroke-dasharray="5,2" d="M423,-149.91C423,-149.91 423,-168.79 423,-168.79"/>
<polygon fill="black" stroke="black" points="419.5,-168.79 423,-178.79 426.5,-168.79 419.5,-168.79"/>
</g>
<!-- NtsDomainStateComponent  -->
<g id="node10" class="node">
<title>NtsDomainStateComponent </title>
<polygon fill="#fb8072" stroke="black" points="353.87,-214.8 176.13,-214.8 176.13,-178.8 353.87,-178.8 353.87,-214.8"/>
<text text-anchor="middle" x="265" y="-192.6" font-family="Times,serif" font-size="14.00">NtsDomainStateComponent </text>
</g>
<!-- NtsStateManagementModule&#45;&gt;NtsDomainStateComponent  -->
<g id="edge9" class="edge">
<title>NtsStateManagementModule&#45;&gt;NtsDomainStateComponent </title>
<path fill="none" stroke="black" stroke-dasharray="5,2" d="M343.33,-149.91C343.33,-149.91 343.33,-168.79 343.33,-168.79"/>
<polygon fill="black" stroke="black" points="339.83,-168.79 343.33,-178.79 346.83,-168.79 339.83,-168.79"/>
</g>
<!-- NtsErrorComponent  -->
<g id="node11" class="node">
<title>NtsErrorComponent </title>
<polygon fill="#fb8072" stroke="black" points="157.81,-214.8 24.19,-214.8 24.19,-178.8 157.81,-178.8 157.81,-214.8"/>
<text text-anchor="middle" x="91" y="-192.6" font-family="Times,serif" font-size="14.00">NtsErrorComponent </text>
</g>
<!-- NtsStateManagementModule&#45;&gt;NtsErrorComponent  -->
<g id="edge10" class="edge">
<title>NtsStateManagementModule&#45;&gt;NtsErrorComponent </title>
<path fill="none" stroke="black" stroke-dasharray="5,2" d="M332.53,-137.8C229.48,-137.8 75.2,-137.8 75.2,-137.8 75.2,-137.8 75.2,-168.78 75.2,-168.78"/>
<polygon fill="black" stroke="black" points="71.7,-168.78 75.2,-178.78 78.7,-168.78 71.7,-168.78"/>
</g>
</g>
</svg>
