<?xml version="1.0" encoding="UTF-8" standalone="no"?>
<!DOCTYPE svg PUBLIC "-//W3C//DTD SVG 1.1//EN"
 "http://www.w3.org/Graphics/SVG/1.1/DTD/svg11.dtd">
<!-- Generated by graphviz version 2.40.1 (20161225.0304)
 -->
<!-- Title: dependencies Pages: 1 -->
<svg width="1254pt" height="211pt"
 viewBox="0.00 0.00 1254.00 211.00" xmlns="http://www.w3.org/2000/svg" xmlns:xlink="http://www.w3.org/1999/xlink">
<g id="graph0" class="graph" transform="scale(1 1) rotate(0) translate(4 207)">
<title>dependencies</title>
<polygon fill="#ffffff" stroke="transparent" points="-4,4 -4,-207 1250,-207 1250,4 -4,4"/>
<text text-anchor="start" x="602.0091" y="-42.4" font-family="sans-serif" font-weight="bold" font-size="14.00" fill="#000000">Legend</text>
<polygon fill="#ffffb3" stroke="transparent" points="389,-10 389,-30 409,-30 409,-10 389,-10"/>
<text text-anchor="start" x="412.629" y="-15.4" font-family="sans-serif" font-size="14.00" fill="#000000"> &#160;Declarations</text>
<polygon fill="#8dd3c7" stroke="transparent" points="502,-10 502,-30 522,-30 522,-10 502,-10"/>
<text text-anchor="start" x="525.7251" y="-15.4" font-family="sans-serif" font-size="14.00" fill="#000000"> &#160;Module</text>
<polygon fill="#80b1d3" stroke="transparent" points="588,-10 588,-30 608,-30 608,-10 588,-10"/>
<text text-anchor="start" x="611.7812" y="-15.4" font-family="sans-serif" font-size="14.00" fill="#000000"> &#160;Bootstrap</text>
<polygon fill="#fdb462" stroke="transparent" points="685,-10 685,-30 705,-30 705,-10 685,-10"/>
<text text-anchor="start" x="708.6732" y="-15.4" font-family="sans-serif" font-size="14.00" fill="#000000"> &#160;Providers</text>
<polygon fill="#fb8072" stroke="transparent" points="781,-10 781,-30 801,-30 801,-10 781,-10"/>
<text text-anchor="start" x="804.7258" y="-15.4" font-family="sans-serif" font-size="14.00" fill="#000000"> &#160;Exports</text>
<g id="clust1" class="cluster">
<title>cluster_MonolithModule</title>
<polygon fill="none" stroke="#000000" stroke-dasharray="1,5" points="8,-70 8,-195 1238,-195 1238,-70 8,-70"/>
</g>
<g id="clust2" class="cluster">
<title>cluster_MonolithModule_declarations</title>
<polygon fill="none" stroke="#000000" points="888,-78 888,-130 1230,-130 1230,-78 888,-78"/>
</g>
<g id="clust5" class="cluster">
<title>cluster_MonolithModule_imports</title>
<polygon fill="none" stroke="#000000" points="660,-78 660,-130 880,-130 880,-78 660,-78"/>
</g>
<g id="clust8" class="cluster">
<title>cluster_MonolithModule_providers</title>
<polygon fill="none" stroke="#000000" points="16,-78 16,-130 652,-130 652,-78 16,-78"/>
</g>
<!-- HomeComponent -->
<g id="node1" class="node">
<title>HomeComponent</title>
<polygon fill="#ffffb3" stroke="#000000" points="1221.5451,-122 1106.4549,-122 1106.4549,-86 1221.5451,-86 1221.5451,-122"/>
<text text-anchor="middle" x="1164" y="-99.8" font-family="Times,serif" font-size="14.00" fill="#000000">HomeComponent</text>
</g>
<!-- MonolithModule -->
<g id="node3" class="node">
<title>MonolithModule</title>
<polygon fill="#8dd3c7" stroke="#000000" points="764.6667,-187 761.6667,-191 740.6667,-191 737.6667,-187 653.3333,-187 653.3333,-151 764.6667,-151 764.6667,-187"/>
<text text-anchor="middle" x="709" y="-164.8" font-family="Times,serif" font-size="14.00" fill="#000000">MonolithModule</text>
</g>
<!-- HomeComponent&#45;&gt;MonolithModule -->
<g id="edge1" class="edge">
<title>HomeComponent&#45;&gt;MonolithModule</title>
<path fill="none" stroke="#000000" d="M1164,-122.2843C1164,-143.3211 1164,-175 1164,-175 1164,-175 774.7919,-175 774.7919,-175"/>
<polygon fill="#000000" stroke="#000000" points="774.792,-171.5001 764.7919,-175 774.7919,-178.5001 774.792,-171.5001"/>
</g>
<!-- HomeContextMenuComponent -->
<g id="node2" class="node">
<title>HomeContextMenuComponent</title>
<polygon fill="#ffffb3" stroke="#000000" points="1088.0364,-122 895.9636,-122 895.9636,-86 1088.0364,-86 1088.0364,-122"/>
<text text-anchor="middle" x="992" y="-99.8" font-family="Times,serif" font-size="14.00" fill="#000000">HomeContextMenuComponent</text>
</g>
<!-- HomeContextMenuComponent&#45;&gt;MonolithModule -->
<g id="edge2" class="edge">
<title>HomeContextMenuComponent&#45;&gt;MonolithModule</title>
<path fill="none" stroke="#000000" d="M992,-122.0225C992,-139.3734 992,-163 992,-163 992,-163 774.9117,-163 774.9117,-163"/>
<polygon fill="#000000" stroke="#000000" points="774.9117,-159.5001 764.9117,-163 774.9117,-166.5001 774.9117,-159.5001"/>
</g>
<!-- ContextModule -->
<g id="node4" class="node">
<title>ContextModule</title>
<polygon fill="#8dd3c7" stroke="#000000" points="871.8823,-122 868.8823,-126 847.8823,-126 844.8823,-122 768.1177,-122 768.1177,-86 871.8823,-86 871.8823,-122"/>
<text text-anchor="middle" x="820" y="-99.8" font-family="Times,serif" font-size="14.00" fill="#000000">ContextModule</text>
</g>
<!-- ContextModule&#45;&gt;MonolithModule -->
<g id="edge3" class="edge">
<title>ContextModule&#45;&gt;MonolithModule</title>
<path fill="none" stroke="#000000" d="M767.8935,-104C761.5469,-104 757.2486,-104 757.2486,-104 757.2486,-104 757.2486,-140.8939 757.2486,-140.8939"/>
<polygon fill="#000000" stroke="#000000" points="753.7487,-140.8938 757.2486,-150.8939 760.7487,-140.8939 753.7487,-140.8938"/>
</g>
<!-- SiteModule -->
<g id="node5" class="node">
<title>SiteModule</title>
<polygon fill="#8dd3c7" stroke="#000000" points="749.8289,-122 746.8289,-126 725.8289,-126 722.8289,-122 668.1711,-122 668.1711,-86 749.8289,-86 749.8289,-122"/>
<text text-anchor="middle" x="709" y="-99.8" font-family="Times,serif" font-size="14.00" fill="#000000">SiteModule</text>
</g>
<!-- SiteModule&#45;&gt;MonolithModule -->
<g id="edge4" class="edge">
<title>SiteModule&#45;&gt;MonolithModule</title>
<path fill="none" stroke="#000000" d="M709,-122.1061C709,-122.1061 709,-140.991 709,-140.991"/>
<polygon fill="#000000" stroke="#000000" points="705.5001,-140.9909 709,-150.991 712.5001,-140.991 705.5001,-140.9909"/>
</g>
<!-- MonolithApiSelectorsService -->
<g id="node6" class="node">
<title>MonolithApiSelectorsService</title>
<ellipse fill="#fdb462" stroke="#000000" cx="518" cy="-104" rx="125.6382" ry="18"/>
<text text-anchor="middle" x="518" y="-99.8" font-family="Times,serif" font-size="14.00" fill="#000000">MonolithApiSelectorsService</text>
</g>
<!-- MonolithApiSelectorsService&#45;&gt;MonolithModule -->
<g id="edge5" class="edge">
<title>MonolithApiSelectorsService&#45;&gt;MonolithModule</title>
<path fill="none" stroke="#000000" d="M644.0966,-104C654.2816,-104 660.7514,-104 660.7514,-104 660.7514,-104 660.7514,-140.8939 660.7514,-140.8939"/>
<polygon fill="#000000" stroke="#000000" points="657.2515,-140.8938 660.7514,-150.8939 664.2515,-140.8939 657.2515,-140.8938"/>
</g>
<!-- MonolithApiService -->
<g id="node7" class="node">
<title>MonolithApiService</title>
<ellipse fill="#fdb462" stroke="#000000" cx="284" cy="-104" rx="90.3487" ry="18"/>
<text text-anchor="middle" x="284" y="-99.8" font-family="Times,serif" font-size="14.00" fill="#000000">MonolithApiService</text>
</g>
<!-- MonolithApiService&#45;&gt;MonolithModule -->
<g id="edge6" class="edge">
<title>MonolithApiService&#45;&gt;MonolithModule</title>
<path fill="none" stroke="#000000" d="M284,-122.0225C284,-139.3734 284,-163 284,-163 284,-163 643.0016,-163 643.0016,-163"/>
<polygon fill="#000000" stroke="#000000" points="643.0017,-166.5001 653.0016,-163 643.0016,-159.5001 643.0017,-166.5001"/>
</g>
<!-- MonolithService -->
<g id="node8" class="node">
<title>MonolithService</title>
<ellipse fill="#fdb462" stroke="#000000" cx="100" cy="-104" rx="75.8817" ry="18"/>
<text text-anchor="middle" x="100" y="-99.8" font-family="Times,serif" font-size="14.00" fill="#000000">MonolithService</text>
</g>
<!-- MonolithService&#45;&gt;MonolithModule -->
<g id="edge7" class="edge">
<title>MonolithService&#45;&gt;MonolithModule</title>
<path fill="none" stroke="#000000" d="M100,-122.2843C100,-143.3211 100,-175 100,-175 100,-175 643.0699,-175 643.0699,-175"/>
<polygon fill="#000000" stroke="#000000" points="643.0699,-178.5001 653.0699,-175 643.0698,-171.5001 643.0699,-178.5001"/>
</g>
</g>
</svg>
