<?xml version="1.0" encoding="UTF-8" standalone="no"?>
<!DOCTYPE svg PUBLIC "-//W3C//DTD SVG 1.1//EN"
 "http://www.w3.org/Graphics/SVG/1.1/DTD/svg11.dtd">
<!-- Generated by graphviz version 2.40.1 (20161225.0304)
 -->
<!-- Title: dependencies Pages: 1 -->
<svg width="504pt" height="284pt"
 viewBox="0.00 0.00 504.00 284.00" xmlns="http://www.w3.org/2000/svg" xmlns:xlink="http://www.w3.org/1999/xlink">
<g id="graph0" class="graph" transform="scale(1 1) rotate(0) translate(4 280)">
<title>dependencies</title>
<polygon fill="#ffffff" stroke="transparent" points="-4,4 -4,-280 500,-280 500,4 -4,4"/>
<text text-anchor="start" x="227.0091" y="-42.4" font-family="sans-serif" font-weight="bold" font-size="14.00" fill="#000000">Legend</text>
<polygon fill="#ffffb3" stroke="transparent" points="14,-10 14,-30 34,-30 34,-10 14,-10"/>
<text text-anchor="start" x="37.629" y="-15.4" font-family="sans-serif" font-size="14.00" fill="#000000"> &#160;Declarations</text>
<polygon fill="#8dd3c7" stroke="transparent" points="127,-10 127,-30 147,-30 147,-10 127,-10"/>
<text text-anchor="start" x="150.7251" y="-15.4" font-family="sans-serif" font-size="14.00" fill="#000000"> &#160;Module</text>
<polygon fill="#80b1d3" stroke="transparent" points="213,-10 213,-30 233,-30 233,-10 213,-10"/>
<text text-anchor="start" x="236.7812" y="-15.4" font-family="sans-serif" font-size="14.00" fill="#000000"> &#160;Bootstrap</text>
<polygon fill="#fdb462" stroke="transparent" points="310,-10 310,-30 330,-30 330,-10 310,-10"/>
<text text-anchor="start" x="333.6732" y="-15.4" font-family="sans-serif" font-size="14.00" fill="#000000"> &#160;Providers</text>
<polygon fill="#fb8072" stroke="transparent" points="406,-10 406,-30 426,-30 426,-10 406,-10"/>
<text text-anchor="start" x="429.7258" y="-15.4" font-family="sans-serif" font-size="14.00" fill="#000000"> &#160;Exports</text>
<g id="clust1" class="cluster">
<title>cluster_SiteModule</title>
<polygon fill="none" stroke="#000000" stroke-dasharray="1,5" points="119.5,-70 119.5,-268 376.5,-268 376.5,-70 119.5,-70"/>
</g>
<g id="clust3" class="cluster">
<title>cluster_SiteModule_imports</title>
<polygon fill="none" stroke="#000000" points="131.5,-78 131.5,-130 365.5,-130 365.5,-78 131.5,-78"/>
</g>
<g id="clust4" class="cluster">
<title>cluster_SiteModule_exports</title>
<polygon fill="none" stroke="#000000" points="127.5,-208 127.5,-260 368.5,-260 368.5,-208 127.5,-208"/>
</g>
<!-- SharedModule -->
<g id="node1" class="node">
<title>SharedModule</title>
<polygon fill="#8dd3c7" stroke="#000000" points="357.9231,-122 354.9231,-126 333.9231,-126 330.9231,-122 259.0769,-122 259.0769,-86 357.9231,-86 357.9231,-122"/>
<text text-anchor="middle" x="308.5" y="-99.8" font-family="Times,serif" font-size="14.00" fill="#000000">SharedModule</text>
</g>
<!-- SiteModule -->
<g id="node3" class="node">
<title>SiteModule</title>
<polygon fill="#8dd3c7" stroke="#000000" points="232.3289,-187 229.3289,-191 208.3289,-191 205.3289,-187 150.6711,-187 150.6711,-151 232.3289,-151 232.3289,-187"/>
<text text-anchor="middle" x="191.5" y="-164.8" font-family="Times,serif" font-size="14.00" fill="#000000">SiteModule</text>
</g>
<!-- SharedModule&#45;&gt;SiteModule -->
<g id="edge1" class="edge">
<title>SharedModule&#45;&gt;SiteModule</title>
<path fill="none" stroke="#000000" d="M324.9037,-122.0225C324.9037,-139.3734 324.9037,-163 324.9037,-163 324.9037,-163 242.2504,-163 242.2504,-163"/>
<polygon fill="#000000" stroke="#000000" points="242.2504,-159.5001 232.2504,-163 242.2503,-166.5001 242.2504,-159.5001"/>
</g>
<!-- VendorModule -->
<g id="node2" class="node">
<title>VendorModule</title>
<polygon fill="#8dd3c7" stroke="#000000" points="241.0327,-122 238.0327,-126 217.0327,-126 214.0327,-122 139.9673,-122 139.9673,-86 241.0327,-86 241.0327,-122"/>
<text text-anchor="middle" x="190.5" y="-99.8" font-family="Times,serif" font-size="14.00" fill="#000000">VendorModule</text>
</g>
<!-- VendorModule&#45;&gt;SiteModule -->
<g id="edge2" class="edge">
<title>VendorModule&#45;&gt;SiteModule</title>
<path fill="none" stroke="#000000" d="M191.5,-122.1061C191.5,-122.1061 191.5,-140.991 191.5,-140.991"/>
<polygon fill="#000000" stroke="#000000" points="188.0001,-140.9909 191.5,-150.991 195.0001,-140.991 188.0001,-140.9909"/>
</g>
<!-- SharedModule  -->
<g id="node4" class="node">
<title>SharedModule </title>
<polygon fill="#fb8072" stroke="#000000" points="360.4222,-252 258.5778,-252 258.5778,-216 360.4222,-216 360.4222,-252"/>
<text text-anchor="middle" x="309.5" y="-229.8" font-family="Times,serif" font-size="14.00" fill="#000000">SharedModule </text>
</g>
<!-- SiteModule&#45;&gt;SharedModule  -->
<g id="edge3" class="edge">
<title>SiteModule&#45;&gt;SharedModule </title>
<path fill="none" stroke="#000000" stroke-dasharray="5,2" d="M232.4164,-175C260.267,-175 292.0963,-175 292.0963,-175 292.0963,-175 292.0963,-205.9775 292.0963,-205.9775"/>
<polygon fill="#000000" stroke="#000000" points="288.5964,-205.9774 292.0963,-215.9775 295.5964,-205.9775 288.5964,-205.9774"/>
</g>
<!-- VendorModule  -->
<g id="node5" class="node">
<title>VendorModule </title>
<polygon fill="#fb8072" stroke="#000000" points="241.0316,-252 135.9684,-252 135.9684,-216 241.0316,-216 241.0316,-252"/>
<text text-anchor="middle" x="188.5" y="-229.8" font-family="Times,serif" font-size="14.00" fill="#000000">VendorModule </text>
</g>
<!-- SiteModule&#45;&gt;VendorModule  -->
<g id="edge4" class="edge">
<title>SiteModule&#45;&gt;VendorModule </title>
<path fill="none" stroke="#000000" stroke-dasharray="5,2" d="M191.5,-187.1061C191.5,-187.1061 191.5,-205.991 191.5,-205.991"/>
<polygon fill="#000000" stroke="#000000" points="188.0001,-205.9909 191.5,-215.991 195.0001,-205.991 188.0001,-205.9909"/>
</g>
</g>
</svg>
