<?xml version="1.0" encoding="UTF-8" standalone="no"?>
<!DOCTYPE svg PUBLIC "-//W3C//DTD SVG 1.1//EN"
 "http://www.w3.org/Graphics/SVG/1.1/DTD/svg11.dtd">
<!-- Generated by graphviz version 2.47.3 (20210619.1520)
 -->
<!-- Title: dependencies Pages: 1 -->
<svg width="823pt" height="247pt"
 viewBox="0.00 0.00 823.00 246.80" xmlns="http://www.w3.org/2000/svg" xmlns:xlink="http://www.w3.org/1999/xlink">
<g id="graph0" class="graph" transform="scale(1 1) rotate(0) translate(4 242.8)">
<title>dependencies</title>
<polygon fill="white" stroke="transparent" points="-4,4 -4,-242.8 819,-242.8 819,4 -4,4"/>
<text text-anchor="middle" x="407.5" y="-8.2" font-family="sans-serif" font-size="14.00">dependencies</text>
<g id="clust1" class="cluster">
<title>cluster_NtsTableModule</title>
<polygon fill="none" stroke="black" stroke-dasharray="1,5" points="8,-32.8 8,-230.8 807,-230.8 807,-32.8 8,-32.8"/>
</g>
<g id="clust9" class="cluster">
<title>cluster_NtsTableModule_exports</title>
<polygon fill="none" stroke="black" points="79,-170.8 79,-222.8 737,-222.8 737,-170.8 79,-170.8"/>
</g>
<g id="clust2" class="cluster">
<title>cluster_NtsTableModule_declarations</title>
<polygon fill="none" stroke="black" points="16,-40.8 16,-92.8 799,-92.8 799,-40.8 16,-40.8"/>
</g>
<!-- ChildrenCountPipe -->
<g id="node1" class="node">
<title>ChildrenCountPipe</title>
<polygon fill="#ffffb3" stroke="black" points="791.11,-84.8 666.89,-84.8 666.89,-48.8 791.11,-48.8 791.11,-84.8"/>
<text text-anchor="middle" x="729" y="-62.6" font-family="Times,serif" font-size="14.00">ChildrenCountPipe</text>
</g>
<!-- NtsTableModule -->
<g id="node6" class="node">
<title>NtsTableModule</title>
<polygon fill="#8dd3c7" stroke="black" points="499.36,-149.8 496.36,-153.8 475.36,-153.8 472.36,-149.8 388.64,-149.8 388.64,-113.8 499.36,-113.8 499.36,-149.8"/>
<text text-anchor="middle" x="444" y="-127.6" font-family="Times,serif" font-size="14.00">NtsTableModule</text>
</g>
<!-- ChildrenCountPipe&#45;&gt;NtsTableModule -->
<g id="edge1" class="edge">
<title>ChildrenCountPipe&#45;&gt;NtsTableModule</title>
<path fill="none" stroke="black" d="M697.88,-84.91C697.88,-104.14 697.88,-131.8 697.88,-131.8 697.88,-131.8 509.4,-131.8 509.4,-131.8"/>
<polygon fill="black" stroke="black" points="509.4,-128.3 499.4,-131.8 509.4,-135.3 509.4,-128.3"/>
</g>
<!-- NtsTreeComponent -->
<g id="node2" class="node">
<title>NtsTreeComponent</title>
<polygon fill="#ffffb3" stroke="black" points="649.42,-84.8 522.58,-84.8 522.58,-48.8 649.42,-48.8 649.42,-84.8"/>
<text text-anchor="middle" x="586" y="-62.6" font-family="Times,serif" font-size="14.00">NtsTreeComponent</text>
</g>
<!-- NtsTreeComponent&#45;&gt;NtsTableModule -->
<g id="edge2" class="edge">
<title>NtsTreeComponent&#45;&gt;NtsTableModule</title>
<path fill="none" stroke="black" d="M552.88,-84.83C552.88,-101.2 552.88,-122.8 552.88,-122.8 552.88,-122.8 509.39,-122.8 509.39,-122.8"/>
<polygon fill="black" stroke="black" points="509.39,-119.3 499.39,-122.8 509.39,-126.3 509.39,-119.3"/>
</g>
<!-- PhoneNumberPipe -->
<g id="node3" class="node">
<title>PhoneNumberPipe</title>
<polygon fill="#ffffb3" stroke="black" points="504.76,-84.8 383.24,-84.8 383.24,-48.8 504.76,-48.8 504.76,-84.8"/>
<text text-anchor="middle" x="444" y="-62.6" font-family="Times,serif" font-size="14.00">PhoneNumberPipe</text>
</g>
<!-- PhoneNumberPipe&#45;&gt;NtsTableModule -->
<g id="edge3" class="edge">
<title>PhoneNumberPipe&#45;&gt;NtsTableModule</title>
<path fill="none" stroke="black" d="M444,-84.91C444,-84.91 444,-103.79 444,-103.79"/>
<polygon fill="black" stroke="black" points="440.5,-103.79 444,-113.79 447.5,-103.79 440.5,-103.79"/>
</g>
<!-- TreeTemplateDirective -->
<g id="node4" class="node">
<title>TreeTemplateDirective</title>
<polygon fill="#ffffb3" stroke="black" points="365.09,-84.8 218.91,-84.8 218.91,-48.8 365.09,-48.8 365.09,-84.8"/>
<text text-anchor="middle" x="292" y="-62.6" font-family="Times,serif" font-size="14.00">TreeTemplateDirective</text>
</g>
<!-- TreeTemplateDirective&#45;&gt;NtsTableModule -->
<g id="edge4" class="edge">
<title>TreeTemplateDirective&#45;&gt;NtsTableModule</title>
<path fill="none" stroke="black" d="M325.12,-84.83C325.12,-101.2 325.12,-122.8 325.12,-122.8 325.12,-122.8 378.39,-122.8 378.39,-122.8"/>
<polygon fill="black" stroke="black" points="378.39,-126.3 388.39,-122.8 378.39,-119.3 378.39,-126.3"/>
</g>
<!-- TreeTemplateNodeDirective -->
<g id="node5" class="node">
<title>TreeTemplateNodeDirective</title>
<polygon fill="#ffffb3" stroke="black" points="200.41,-84.8 23.59,-84.8 23.59,-48.8 200.41,-48.8 200.41,-84.8"/>
<text text-anchor="middle" x="112" y="-62.6" font-family="Times,serif" font-size="14.00">TreeTemplateNodeDirective</text>
</g>
<!-- TreeTemplateNodeDirective&#45;&gt;NtsTableModule -->
<g id="edge5" class="edge">
<title>TreeTemplateNodeDirective&#45;&gt;NtsTableModule</title>
<path fill="none" stroke="black" d="M143.62,-84.91C143.62,-104.14 143.62,-131.8 143.62,-131.8 143.62,-131.8 378.56,-131.8 378.56,-131.8"/>
<polygon fill="black" stroke="black" points="378.56,-135.3 388.56,-131.8 378.56,-128.3 378.56,-135.3"/>
</g>
<!-- ChildrenCountPipe  -->
<g id="node7" class="node">
<title>ChildrenCountPipe </title>
<polygon fill="#fb8072" stroke="black" points="728.61,-214.8 601.39,-214.8 601.39,-178.8 728.61,-178.8 728.61,-214.8"/>
<text text-anchor="middle" x="665" y="-192.6" font-family="Times,serif" font-size="14.00">ChildrenCountPipe </text>
</g>
<!-- NtsTableModule&#45;&gt;ChildrenCountPipe  -->
<g id="edge6" class="edge">
<title>NtsTableModule&#45;&gt;ChildrenCountPipe </title>
<path fill="none" stroke="black" stroke-dasharray="5,2" d="M499.85,-140.8C553.09,-140.8 625.2,-140.8 625.2,-140.8 625.2,-140.8 625.2,-168.77 625.2,-168.77"/>
<polygon fill="black" stroke="black" points="621.7,-168.77 625.2,-178.77 628.7,-168.77 621.7,-168.77"/>
</g>
<!-- NtsTreeComponent  -->
<g id="node8" class="node">
<title>NtsTreeComponent </title>
<polygon fill="#fb8072" stroke="black" points="582.92,-214.8 453.08,-214.8 453.08,-178.8 582.92,-178.8 582.92,-214.8"/>
<text text-anchor="middle" x="518" y="-192.6" font-family="Times,serif" font-size="14.00">NtsTreeComponent </text>
</g>
<!-- NtsTableModule&#45;&gt;NtsTreeComponent  -->
<g id="edge7" class="edge">
<title>NtsTableModule&#45;&gt;NtsTreeComponent </title>
<path fill="none" stroke="black" stroke-dasharray="5,2" d="M476.24,-149.91C476.24,-149.91 476.24,-168.79 476.24,-168.79"/>
<polygon fill="black" stroke="black" points="472.74,-168.79 476.24,-178.79 479.74,-168.79 472.74,-168.79"/>
</g>
<!-- TreeTemplateDirective  -->
<g id="node9" class="node">
<title>TreeTemplateDirective </title>
<polygon fill="#fb8072" stroke="black" points="435.09,-214.8 284.91,-214.8 284.91,-178.8 435.09,-178.8 435.09,-214.8"/>
<text text-anchor="middle" x="360" y="-192.6" font-family="Times,serif" font-size="14.00">TreeTemplateDirective </text>
</g>
<!-- NtsTableModule&#45;&gt;TreeTemplateDirective  -->
<g id="edge8" class="edge">
<title>NtsTableModule&#45;&gt;TreeTemplateDirective </title>
<path fill="none" stroke="black" stroke-dasharray="5,2" d="M411.81,-149.91C411.81,-149.91 411.81,-168.79 411.81,-168.79"/>
<polygon fill="black" stroke="black" points="408.31,-168.79 411.81,-178.79 415.31,-168.79 408.31,-168.79"/>
</g>
<!-- TreeTemplateNodeDirective  -->
<g id="node10" class="node">
<title>TreeTemplateNodeDirective </title>
<polygon fill="#fb8072" stroke="black" points="267.42,-214.8 86.58,-214.8 86.58,-178.8 267.42,-178.8 267.42,-214.8"/>
<text text-anchor="middle" x="177" y="-192.6" font-family="Times,serif" font-size="14.00">TreeTemplateNodeDirective </text>
</g>
<!-- NtsTableModule&#45;&gt;TreeTemplateNodeDirective  -->
<g id="edge9" class="edge">
<title>NtsTableModule&#45;&gt;TreeTemplateNodeDirective </title>
<path fill="none" stroke="black" stroke-dasharray="5,2" d="M388.53,-140.8C329.02,-140.8 242.96,-140.8 242.96,-140.8 242.96,-140.8 242.96,-168.77 242.96,-168.77"/>
<polygon fill="black" stroke="black" points="239.46,-168.77 242.96,-178.77 246.46,-168.77 239.46,-168.77"/>
</g>
</g>
</svg>
