<?xml version="1.0" encoding="UTF-8" standalone="no"?>
<!DOCTYPE svg PUBLIC "-//W3C//DTD SVG 1.1//EN"
 "http://www.w3.org/Graphics/SVG/1.1/DTD/svg11.dtd">
<!-- Generated by graphviz version 2.47.3 (20210619.1520)
 -->
<!-- Title: dependencies Pages: 1 -->
<svg width="1234pt" height="174pt"
 viewBox="0.00 0.00 1234.00 173.80" xmlns="http://www.w3.org/2000/svg" xmlns:xlink="http://www.w3.org/1999/xlink">
<g id="graph0" class="graph" transform="scale(1 1) rotate(0) translate(4 169.8)">
<title>dependencies</title>
<polygon fill="white" stroke="transparent" points="-4,4 -4,-169.8 1230,-169.8 1230,4 -4,4"/>
<text text-anchor="middle" x="613" y="-8.2" font-family="sans-serif" font-size="14.00">dependencies</text>
<g id="clust1" class="cluster">
<title>cluster_UtilitiesModule</title>
<polygon fill="none" stroke="black" stroke-dasharray="1,5" points="8,-32.8 8,-157.8 1218,-157.8 1218,-32.8 8,-32.8"/>
</g>
<g id="clust6" class="cluster">
<title>cluster_UtilitiesModule_imports</title>
<polygon fill="none" stroke="black" points="1112,-40.8 1112,-92.8 1210,-92.8 1210,-40.8 1112,-40.8"/>
</g>
<g id="clust9" class="cluster">
<title>cluster_UtilitiesModule_providers</title>
<polygon fill="none" stroke="black" points="528,-40.8 528,-92.8 1104,-92.8 1104,-40.8 528,-40.8"/>
</g>
<g id="clust2" class="cluster">
<title>cluster_UtilitiesModule_declarations</title>
<polygon fill="none" stroke="black" points="16,-40.8 16,-92.8 520,-92.8 520,-40.8 16,-40.8"/>
</g>
<!-- Formgroup2ApiComponent -->
<g id="node1" class="node">
<title>Formgroup2ApiComponent</title>
<polygon fill="#ffffb3" stroke="black" points="512.32,-84.8 339.68,-84.8 339.68,-48.8 512.32,-48.8 512.32,-84.8"/>
<text text-anchor="middle" x="426" y="-62.6" font-family="Times,serif" font-size="14.00">Formgroup2ApiComponent</text>
</g>
<!-- UtilitiesModule -->
<g id="node4" class="node">
<title>UtilitiesModule</title>
<polygon fill="#8dd3c7" stroke="black" points="671.16,-149.8 668.16,-153.8 647.16,-153.8 644.16,-149.8 566.84,-149.8 566.84,-113.8 671.16,-113.8 671.16,-149.8"/>
<text text-anchor="middle" x="619" y="-127.6" font-family="Times,serif" font-size="14.00">UtilitiesModule</text>
</g>
<!-- Formgroup2ApiComponent&#45;&gt;UtilitiesModule -->
<g id="edge1" class="edge">
<title>Formgroup2ApiComponent&#45;&gt;UtilitiesModule</title>
<path fill="none" stroke="black" d="M426,-84.83C426,-101.2 426,-122.8 426,-122.8 426,-122.8 556.77,-122.8 556.77,-122.8"/>
<polygon fill="black" stroke="black" points="556.77,-126.3 566.77,-122.8 556.77,-119.3 556.77,-126.3"/>
</g>
<!-- ScriptLoaderComponent -->
<g id="node2" class="node">
<title>ScriptLoaderComponent</title>
<polygon fill="#ffffb3" stroke="black" points="322.41,-84.8 167.59,-84.8 167.59,-48.8 322.41,-48.8 322.41,-84.8"/>
<text text-anchor="middle" x="245" y="-62.6" font-family="Times,serif" font-size="14.00">ScriptLoaderComponent</text>
</g>
<!-- ScriptLoaderComponent&#45;&gt;UtilitiesModule -->
<g id="edge2" class="edge">
<title>ScriptLoaderComponent&#45;&gt;UtilitiesModule</title>
<path fill="none" stroke="black" d="M245,-84.91C245,-104.14 245,-131.8 245,-131.8 245,-131.8 556.6,-131.8 556.6,-131.8"/>
<polygon fill="black" stroke="black" points="556.6,-135.3 566.6,-131.8 556.6,-128.3 556.6,-135.3"/>
</g>
<!-- UtilitiesComponent -->
<g id="node3" class="node">
<title>UtilitiesComponent</title>
<polygon fill="#ffffb3" stroke="black" points="150.44,-84.8 23.56,-84.8 23.56,-48.8 150.44,-48.8 150.44,-84.8"/>
<text text-anchor="middle" x="87" y="-62.6" font-family="Times,serif" font-size="14.00">UtilitiesComponent</text>
</g>
<!-- UtilitiesComponent&#45;&gt;UtilitiesModule -->
<g id="edge3" class="edge">
<title>UtilitiesComponent&#45;&gt;UtilitiesModule</title>
<path fill="none" stroke="black" d="M87,-85.09C87,-107.01 87,-140.8 87,-140.8 87,-140.8 556.53,-140.8 556.53,-140.8"/>
<polygon fill="black" stroke="black" points="556.53,-144.3 566.53,-140.8 556.53,-137.3 556.53,-144.3"/>
</g>
<!-- SiteModule -->
<g id="node5" class="node">
<title>SiteModule</title>
<polygon fill="#8dd3c7" stroke="black" points="1201.83,-84.8 1198.83,-88.8 1177.83,-88.8 1174.83,-84.8 1120.17,-84.8 1120.17,-48.8 1201.83,-48.8 1201.83,-84.8"/>
<text text-anchor="middle" x="1161" y="-62.6" font-family="Times,serif" font-size="14.00">SiteModule</text>
</g>
<!-- SiteModule&#45;&gt;UtilitiesModule -->
<g id="edge4" class="edge">
<title>SiteModule&#45;&gt;UtilitiesModule</title>
<path fill="none" stroke="black" d="M1161,-85.09C1161,-107.01 1161,-140.8 1161,-140.8 1161,-140.8 681.46,-140.8 681.46,-140.8"/>
<polygon fill="black" stroke="black" points="681.46,-137.3 671.46,-140.8 681.46,-144.3 681.46,-137.3"/>
</g>
<!-- RouteUiStateQuery -->
<g id="node6" class="node">
<title>RouteUiStateQuery</title>
<ellipse fill="#fdb462" stroke="black" cx="1009" cy="-66.8" rx="87.4" ry="18"/>
<text text-anchor="middle" x="1009" y="-62.6" font-family="Times,serif" font-size="14.00">RouteUiStateQuery</text>
</g>
<!-- RouteUiStateQuery&#45;&gt;UtilitiesModule -->
<g id="edge5" class="edge">
<title>RouteUiStateQuery&#45;&gt;UtilitiesModule</title>
<path fill="none" stroke="black" d="M1009,-84.91C1009,-104.14 1009,-131.8 1009,-131.8 1009,-131.8 681.19,-131.8 681.19,-131.8"/>
<polygon fill="black" stroke="black" points="681.19,-128.3 671.19,-131.8 681.19,-135.3 681.19,-128.3"/>
</g>
<!-- RouteUiStateService -->
<g id="node7" class="node">
<title>RouteUiStateService</title>
<ellipse fill="#fdb462" stroke="black" cx="812" cy="-66.8" rx="92.05" ry="18"/>
<text text-anchor="middle" x="812" y="-62.6" font-family="Times,serif" font-size="14.00">RouteUiStateService</text>
</g>
<!-- RouteUiStateService&#45;&gt;UtilitiesModule -->
<g id="edge6" class="edge">
<title>RouteUiStateService&#45;&gt;UtilitiesModule</title>
<path fill="none" stroke="black" d="M812,-84.83C812,-101.2 812,-122.8 812,-122.8 812,-122.8 681.23,-122.8 681.23,-122.8"/>
<polygon fill="black" stroke="black" points="681.23,-119.3 671.23,-122.8 681.23,-126.3 681.23,-119.3"/>
</g>
<!-- RouteUiStateStore -->
<g id="node8" class="node">
<title>RouteUiStateStore</title>
<ellipse fill="#fdb462" stroke="black" cx="619" cy="-66.8" rx="83.4" ry="18"/>
<text text-anchor="middle" x="619" y="-62.6" font-family="Times,serif" font-size="14.00">RouteUiStateStore</text>
</g>
<!-- RouteUiStateStore&#45;&gt;UtilitiesModule -->
<g id="edge7" class="edge">
<title>RouteUiStateStore&#45;&gt;UtilitiesModule</title>
<path fill="none" stroke="black" d="M619,-84.91C619,-84.91 619,-103.79 619,-103.79"/>
<polygon fill="black" stroke="black" points="615.5,-103.79 619,-113.79 622.5,-103.79 615.5,-103.79"/>
</g>
</g>
</svg>
