<svg xmlns="http://www.w3.org/2000/svg" version="1.1" xmlns:xlink="http://www.w3.org/1999/xlink" xmlns:svgjs="http://svgjs.com/svgjs" width="1000" height="1000"><g transform="matrix(5.24397598259,0,0,5.24397598259,173.6228225662382,-0.000015541904247129423)"><svg xmlns="http://www.w3.org/2000/svg" version="1.1" xmlns:xlink="http://www.w3.org/1999/xlink" xmlns:svgjs="http://svgjs.com/svgjs" width="124.477" height="190.695"><svg viewBox="186.918 118.818 124.477 190.695" width="124.477" height="190.695" xmlns="http://www.w3.org/2000/svg">
  <path d="M 249.608 212.145 L 250.516 213.741 L 251.424 215.335 L 252.334 216.93 L 253.241 218.524 L 254.151 220.12 L 255.059 221.714 L 255.969 223.309 L 256.877 224.903 L 257.785 226.499 L 258.693 228.094 L 259.603 229.688 L 260.511 231.282 L 261.421 232.878 L 262.328 234.473 L 263.238 236.067 L 264.146 237.661 L 265.054 239.257 L 265.962 240.852 L 266.872 242.446 L 267.78 244.04 L 268.69 245.637 L 269.598 247.231 L 270.508 248.825 L 271.416 250.419 L 272.323 252.016 L 273.231 253.61 L 274.141 255.204 L 275.049 256.799 L 275.959 258.395 L 276.867 259.989 L 277.777 261.583 L 278.685 263.178 L 279.593 264.774 L 280.501 266.368 L 281.41 267.963 L 282.318 269.557 L 282.297 267.963 L 282.275 266.368 L 282.253 264.774 L 282.231 263.178 L 282.21 261.583 L 282.188 259.989 L 282.166 258.395 L 282.144 256.799 L 282.123 255.204 L 282.101 253.61 L 282.081 252.016 L 282.059 250.419 L 282.038 248.825 L 282.016 247.231 L 281.994 245.637 L 281.972 244.04 L 281.95 242.446 L 281.929 240.852 L 281.907 239.257 L 281.885 237.661 L 281.863 236.067 L 281.842 234.473 L 281.82 232.878 L 281.798 231.282 L 281.776 229.688 L 281.755 228.094 L 281.735 226.499 L 281.713 224.903 L 281.691 223.309 L 281.67 221.714 L 281.648 220.12 L 281.626 218.524 L 281.604 216.93 L 281.583 215.335 L 281.561 213.741 L 281.539 212.145 L 281.517 210.55 L 281.496 208.956 L 281.474 207.362 L 281.452 205.766 L 281.43 204.171 L 281.408 202.577 L 281.389 200.983 L 281.367 199.386 L 281.345 197.792 L 281.323 196.198 L 281.302 194.604 L 281.28 193.007 L 281.258 191.413 L 281.236 189.819 L 281.215 188.224 L 281.193 186.628 L 281.171 185.034 L 281.149 183.44 L 281.128 181.843 L 281.106 180.249 L 281.084 178.655 L 281.062 177.061 L 281.043 175.466 L 281.021 173.87 L 280.999 172.276 L 280.977 170.681 L 280.956 169.087 L 280.934 167.491 L 281.41 167.491 L 281.885 167.491 L 282.362 167.491 L 282.839 167.491 L 283.315 167.491 L 283.79 167.491 L 284.267 167.491 L 284.741 167.491 L 285.218 167.491 L 285.693 167.491 L 286.17 167.491 L 286.646 167.491 L 287.123 167.491 L 287.598 167.491 L 288.074 167.491 L 288.549 167.491 L 289.026 167.491 L 289.501 167.491 L 289.977 167.491 L 290.454 167.491 L 290.931 167.491 L 291.405 167.491 L 291.882 167.491 L 292.357 167.491 L 292.834 167.491 L 293.308 167.491 L 293.785 167.491 L 294.262 167.491 L 294.738 167.491 L 295.213 167.491 L 295.69 167.491 L 296.165 167.491 L 296.641 167.491 L 297.116 167.491 L 297.593 167.491 L 298.069 167.491 L 298.546 167.491 L 299.021 167.491 L 299.498 167.491 L 299.972 167.491 L 300.449 167.491 L 300.924 167.491 L 301.4 167.491 L 301.877 167.491 L 302.354 167.491 L 302.829 167.491 L 303.305 167.491 L 303.78 167.491 L 304.257 167.491 L 304.731 167.491 L 305.208 167.491 L 305.685 167.491 L 306.161 167.491 L 306.636 167.491 L 307.113 167.491 L 307.588 167.491 L 308.064 167.491 L 308.539 167.491 L 309.016 167.491 L 309.492 167.491 L 309.969 167.491 L 310.444 167.491 L 310.921 167.491 L 311.395 167.491 L 311.395 169.71 L 311.395 171.93 L 311.395 174.149 L 311.395 176.368 L 311.395 178.588 L 311.395 180.807 L 311.395 183.026 L 311.395 185.244 L 311.395 187.463 L 311.395 189.682 L 311.395 191.902 L 311.395 194.121 L 311.395 196.34 L 311.395 198.56 L 311.395 200.779 L 311.395 202.996 L 311.395 205.216 L 311.395 207.435 L 311.395 209.654 L 311.395 211.874 L 311.395 214.093 L 311.395 216.312 L 311.395 218.532 L 311.395 220.749 L 311.395 222.968 L 311.395 225.188 L 311.395 227.407 L 311.395 229.626 L 311.395 231.846 L 311.395 234.065 L 311.395 236.285 L 311.395 238.502 L 311.395 240.721 L 311.395 242.941 L 311.395 245.16 L 311.395 247.379 L 311.395 249.599 L 311.395 251.818 L 311.395 254.037 L 311.395 256.255 L 311.395 258.474 L 311.395 260.693 L 311.395 262.913 L 311.395 265.132 L 311.395 267.351 L 311.395 269.571 L 311.395 271.79 L 311.395 274.007 L 311.395 276.227 L 311.395 278.446 L 311.395 280.665 L 311.395 282.885 L 311.395 285.104 L 311.395 287.323 L 311.395 289.543 L 311.395 291.76 L 311.395 293.979 L 311.395 296.199 L 311.395 298.418 L 311.395 300.638 L 311.395 302.857 L 311.395 305.076 L 311.395 307.296 L 311.395 309.513 L 310.855 309.513 L 310.313 309.513 L 309.773 309.513 L 309.231 309.513 L 308.691 309.513 L 308.149 309.513 L 307.609 309.513 L 307.067 309.513 L 306.527 309.513 L 305.985 309.513 L 305.445 309.513 L 304.905 309.513 L 304.365 309.513 L 303.823 309.513 L 303.283 309.513 L 302.741 309.513 L 302.201 309.513 L 301.659 309.513 L 301.119 309.513 L 300.578 309.513 L 300.038 309.513 L 299.496 309.513 L 298.956 309.513 L 298.414 309.513 L 297.874 309.513 L 297.332 309.513 L 296.792 309.513 L 296.252 309.513 L 295.712 309.513 L 295.17 309.513 L 294.63 309.513 L 294.088 309.513 L 293.548 309.513 L 293.006 309.513 L 292.466 309.513 L 291.924 309.513 L 291.384 309.513 L 290.842 309.513 L 290.302 309.513 L 289.76 309.513 L 289.22 309.513 L 288.678 309.513 L 288.138 309.513 L 287.598 309.513 L 287.058 309.513 L 286.516 309.513 L 285.976 309.513 L 285.434 309.513 L 284.894 309.513 L 284.352 309.513 L 283.812 309.513 L 283.27 309.513 L 282.73 309.513 L 282.188 309.513 L 281.648 309.513 L 281.106 309.513 L 280.566 309.513 L 280.024 309.513 L 279.484 309.513 L 278.944 309.513 L 278.404 309.513 L 277.862 309.513 L 277.322 309.513 L 276.78 309.513 L 275.825 307.836 L 274.869 306.156 L 273.916 304.479 L 272.96 302.799 L 272.005 301.122 L 271.05 299.443 L 270.094 297.765 L 269.139 296.086 L 268.183 294.409 L 267.228 292.731 L 266.275 291.054 L 265.319 289.375 L 264.364 287.697 L 263.408 286.018 L 262.455 284.341 L 261.5 282.661 L 260.544 280.984 L 259.589 279.305 L 258.636 277.627 L 257.68 275.948 L 256.725 274.27 L 255.769 272.591 L 254.814 270.914 L 253.859 269.234 L 252.903 267.557 L 251.948 265.88 L 250.994 264.202 L 250.039 262.523 L 249.084 260.846 Z" id="path-8" style="stroke-width: 0px; fill: rgb(255, 102, 0);" vector-effect="non-scaling-stroke"></path>
  <path d="M 249.618 212.172 L 248.662 210.493 L 247.709 208.816 L 246.754 207.136 L 245.798 205.459 L 244.843 203.78 L 243.889 202.102 L 242.934 200.423 L 241.979 198.746 L 241.023 197.066 L 240.068 195.389 L 239.112 193.71 L 238.157 192.032 L 237.202 190.355 L 236.248 188.677 L 235.293 186.998 L 234.337 185.321 L 233.382 183.641 L 232.429 181.964 L 231.473 180.285 L 230.518 178.607 L 229.563 176.93 L 228.609 175.253 L 227.654 173.573 L 226.698 171.896 L 225.743 170.217 L 224.788 168.539 L 223.832 166.86 L 222.877 165.182 L 221.921 163.503 L 220.968 161.826 L 220.013 160.146 L 219.057 158.469 L 218.102 156.79 L 217.148 155.112 L 216.193 153.433 L 216.215 155.112 L 216.237 156.79 L 216.258 158.469 L 216.28 160.146 L 216.302 161.826 L 216.322 163.503 L 216.343 165.182 L 216.365 166.86 L 216.387 168.539 L 216.409 170.217 L 216.43 171.896 L 216.452 173.573 L 216.474 175.253 L 216.496 176.93 L 216.517 178.607 L 216.539 180.285 L 216.561 181.964 L 216.583 183.641 L 216.605 185.321 L 216.626 186.998 L 216.648 188.677 L 216.668 190.355 L 216.69 192.032 L 216.711 193.71 L 216.733 195.389 L 216.755 197.066 L 216.777 198.746 L 216.798 200.423 L 216.82 202.102 L 216.842 203.78 L 216.864 205.459 L 216.885 207.136 L 216.907 208.816 L 216.929 210.493 L 216.951 212.172 L 216.972 213.85 L 216.994 215.529 L 217.014 217.206 L 217.036 218.884 L 217.057 220.561 L 217.079 222.241 L 217.101 223.918 L 217.123 225.597 L 217.145 227.275 L 217.166 228.954 L 217.188 230.631 L 217.21 232.311 L 217.232 233.988 L 217.253 235.667 L 217.275 237.345 L 217.297 239.024 L 217.319 240.701 L 217.34 242.381 L 217.36 244.058 L 217.382 245.736 L 217.404 247.413 L 217.425 249.092 L 217.447 250.77 L 217.469 252.449 L 217.491 254.126 L 217.512 255.806 L 217.534 257.483 L 217.556 259.162 L 217.578 260.84 L 217.099 260.84 L 216.62 260.84 L 216.142 260.84 L 215.663 260.84 L 215.184 260.84 L 214.704 260.84 L 214.225 260.84 L 213.746 260.84 L 213.268 260.84 L 212.787 260.84 L 212.308 260.84 L 211.83 260.84 L 211.351 260.84 L 210.87 260.84 L 210.392 260.84 L 209.913 260.84 L 209.434 260.84 L 208.955 260.84 L 208.477 260.84 L 207.998 260.84 L 207.519 260.84 L 207.039 260.84 L 206.56 260.84 L 206.081 260.84 L 205.603 260.84 L 205.122 260.84 L 204.643 260.84 L 204.165 260.84 L 203.686 260.84 L 203.205 260.84 L 202.727 260.84 L 202.248 260.84 L 201.769 260.84 L 201.291 260.84 L 200.812 260.84 L 200.333 260.84 L 199.855 260.84 L 199.374 260.84 L 198.895 260.84 L 198.417 260.84 L 197.938 260.84 L 197.457 260.84 L 196.979 260.84 L 196.5 260.84 L 196.021 260.84 L 195.541 260.84 L 195.062 260.84 L 194.583 260.84 L 194.104 260.84 L 193.626 260.84 L 193.147 260.84 L 192.668 260.84 L 192.19 260.84 L 191.709 260.84 L 191.23 260.84 L 190.752 260.84 L 190.273 260.84 L 189.792 260.84 L 189.314 260.84 L 188.835 260.84 L 188.356 260.84 L 187.876 260.84 L 187.397 260.84 L 186.918 260.84 L 186.918 258.622 L 186.918 256.403 L 186.918 254.184 L 186.918 251.964 L 186.918 249.745 L 186.918 247.526 L 186.918 245.306 L 186.918 243.087 L 186.918 240.87 L 186.918 238.65 L 186.918 236.431 L 186.918 234.212 L 186.918 231.992 L 186.918 229.773 L 186.918 227.554 L 186.918 225.334 L 186.918 223.117 L 186.918 220.897 L 186.918 218.678 L 186.918 216.459 L 186.918 214.239 L 186.918 212.02 L 186.918 209.801 L 186.918 207.581 L 186.918 205.364 L 186.918 203.145 L 186.918 200.925 L 186.918 198.706 L 186.918 196.487 L 186.918 194.267 L 186.918 192.048 L 186.918 189.829 L 186.918 187.611 L 186.918 185.392 L 186.918 183.173 L 186.918 180.953 L 186.918 178.734 L 186.918 176.515 L 186.918 174.295 L 186.918 172.076 L 186.918 169.859 L 186.918 167.639 L 186.918 165.42 L 186.918 163.201 L 186.918 160.981 L 186.918 158.762 L 186.918 156.542 L 186.918 154.323 L 186.918 152.106 L 186.918 149.886 L 186.918 147.667 L 186.918 145.448 L 186.918 143.228 L 186.918 141.009 L 186.918 138.79 L 186.918 136.57 L 186.918 134.353 L 186.918 132.134 L 186.918 129.914 L 186.918 127.695 L 186.918 125.476 L 186.918 123.256 L 186.918 121.037 L 186.918 118.818 L 187.508 118.818 L 188.099 118.818 L 188.689 118.818 L 189.28 118.818 L 189.87 118.818 L 190.461 118.818 L 191.05 118.818 L 191.642 118.818 L 192.231 118.818 L 192.823 118.818 L 193.412 118.818 L 194.004 118.818 L 194.593 118.818 L 195.184 118.818 L 195.774 118.818 L 196.363 118.818 L 196.953 118.818 L 197.544 118.818 L 198.134 118.818 L 198.725 118.818 L 199.315 118.818 L 199.906 118.818 L 200.495 118.818 L 201.087 118.818 L 201.676 118.818 L 202.268 118.818 L 202.857 118.818 L 203.449 118.818 L 204.038 118.818 L 204.63 118.818 L 205.219 118.818 L 205.808 118.818 L 206.398 118.818 L 206.989 118.818 L 207.579 118.818 L 208.17 118.818 L 208.76 118.818 L 209.351 118.818 L 209.941 118.818 L 210.532 118.818 L 211.121 118.818 L 211.713 118.818 L 212.302 118.818 L 212.894 118.818 L 213.483 118.818 L 214.075 118.818 L 214.664 118.818 L 215.254 118.818 L 215.843 118.818 L 216.434 118.818 L 217.024 118.818 L 217.615 118.818 L 218.205 118.818 L 218.796 118.818 L 219.386 118.818 L 219.977 118.818 L 220.566 118.818 L 221.158 118.818 L 221.747 118.818 L 222.339 118.818 L 222.928 118.818 L 223.518 118.818 L 224.107 118.818 L 224.699 118.818 L 225.606 120.414 L 226.516 122.008 L 227.424 123.602 L 228.334 125.197 L 229.242 126.791 L 230.15 128.385 L 231.058 129.98 L 231.968 131.576 L 232.878 133.17 L 233.786 134.766 L 234.696 136.361 L 235.603 137.955 L 236.511 139.551 L 237.419 141.146 L 238.329 142.74 L 239.237 144.334 L 240.147 145.93 L 241.055 147.525 L 241.965 149.119 L 242.873 150.713 L 243.781 152.31 L 244.688 153.904 L 245.598 155.498 L 246.506 157.092 L 247.416 158.689 L 248.324 160.283 L 249.234 161.877 L 250.142 163.472 Z" id="path-8" style="stroke-width: 0px; fill: rgb(0, 24, 138);" vector-effect="non-scaling-stroke"></path>
</svg></svg></g></svg>