<?xml version="1.0" encoding="utf-8"?>
<svg viewBox="-363.88 -229.768 124.477 190.695" width="124.477" height="190.695" xmlns="http://www.w3.org/2000/svg">
  <path d="M -140.018 -63.598 L -139.559 -62.791 L -139.1 -61.985 L -138.64 -61.179 L -138.181 -60.373 L -137.721 -59.566 L -137.262 -58.76 L -136.802 -57.954 L -136.343 -57.148 L -135.884 -56.341 L -135.425 -55.535 L -134.965 -54.729 L -134.506 -53.923 L -134.046 -53.116 L -133.587 -52.31 L -133.127 -51.504 L -132.668 -50.698 L -132.209 -49.891 L -131.75 -49.085 L -131.29 -48.279 L -130.831 -47.473 L -130.371 -46.666 L -129.912 -45.86 L -129.452 -45.054 L -128.993 -44.248 L -128.534 -43.441 L -128.075 -42.635 L -127.615 -41.829 L -127.156 -41.023 L -126.696 -40.216 L -126.237 -39.41 L -125.777 -38.604 L -125.318 -37.798 L -124.859 -36.991 L -124.4 -36.185 L -123.94 -35.379 L -123.481 -34.573 L -123.492 -35.379 L -123.503 -36.185 L -123.514 -36.991 L -123.525 -37.798 L -123.536 -38.604 L -123.547 -39.41 L -123.558 -40.216 L -123.569 -41.023 L -123.58 -41.829 L -123.591 -42.635 L -123.601 -43.441 L -123.612 -44.248 L -123.623 -45.054 L -123.634 -45.86 L -123.645 -46.666 L -123.656 -47.473 L -123.667 -48.279 L -123.678 -49.085 L -123.689 -49.891 L -123.7 -50.698 L -123.711 -51.504 L -123.722 -52.31 L -123.733 -53.116 L -123.744 -53.923 L -123.755 -54.729 L -123.766 -55.535 L -123.776 -56.341 L -123.787 -57.148 L -123.798 -57.954 L -123.809 -58.76 L -123.82 -59.566 L -123.831 -60.373 L -123.842 -61.179 L -123.853 -61.985 L -123.864 -62.791 L -123.875 -63.598 L -123.886 -64.404 L -123.897 -65.21 L -123.908 -66.016 L -123.919 -66.823 L -123.93 -67.629 L -123.941 -68.435 L -123.951 -69.241 L -123.962 -70.048 L -123.973 -70.854 L -123.984 -71.66 L -123.995 -72.466 L -124.006 -73.273 L -124.017 -74.079 L -124.028 -74.885 L -124.039 -75.691 L -124.05 -76.498 L -124.061 -77.304 L -124.072 -78.11 L -124.083 -78.917 L -124.094 -79.723 L -124.105 -80.529 L -124.116 -81.335 L -124.126 -82.141 L -124.137 -82.948 L -124.148 -83.754 L -124.159 -84.56 L -124.17 -85.366 L -124.181 -86.173 L -123.94 -86.173 L -123.7 -86.173 L -123.459 -86.173 L -123.218 -86.173 L -122.977 -86.173 L -122.737 -86.173 L -122.496 -86.173 L -122.256 -86.173 L -122.015 -86.173 L -121.775 -86.173 L -121.534 -86.173 L -121.293 -86.173 L -121.052 -86.173 L -120.812 -86.173 L -120.571 -86.173 L -120.331 -86.173 L -120.09 -86.173 L -119.85 -86.173 L -119.609 -86.173 L -119.368 -86.173 L -119.127 -86.173 L -118.887 -86.173 L -118.646 -86.173 L -118.406 -86.173 L -118.165 -86.173 L -117.925 -86.173 L -117.684 -86.173 L -117.443 -86.173 L -117.202 -86.173 L -116.962 -86.173 L -116.721 -86.173 L -116.481 -86.173 L -116.24 -86.173 L -116 -86.173 L -115.759 -86.173 L -115.518 -86.173 L -115.277 -86.173 L -115.037 -86.173 L -114.796 -86.173 L -114.556 -86.173 L -114.315 -86.173 L -114.075 -86.173 L -113.834 -86.173 L -113.593 -86.173 L -113.352 -86.173 L -113.112 -86.173 L -112.871 -86.173 L -112.631 -86.173 L -112.39 -86.173 L -112.15 -86.173 L -111.909 -86.173 L -111.668 -86.173 L -111.427 -86.173 L -111.187 -86.173 L -110.946 -86.173 L -110.706 -86.173 L -110.465 -86.173 L -110.225 -86.173 L -109.984 -86.173 L -109.743 -86.173 L -109.502 -86.173 L -109.262 -86.173 L -109.021 -86.173 L -108.781 -86.173 L -108.781 -85.051 L -108.781 -83.929 L -108.781 -82.807 L -108.781 -81.685 L -108.781 -80.563 L -108.781 -79.441 L -108.781 -78.319 L -108.781 -77.198 L -108.781 -76.076 L -108.781 -74.954 L -108.781 -73.832 L -108.781 -72.71 L -108.781 -71.588 L -108.781 -70.466 L -108.781 -69.344 L -108.781 -68.223 L -108.781 -67.101 L -108.781 -65.979 L -108.781 -64.857 L -108.781 -63.735 L -108.781 -62.613 L -108.781 -61.491 L -108.781 -60.369 L -108.781 -59.248 L -108.781 -58.126 L -108.781 -57.004 L -108.781 -55.882 L -108.781 -54.76 L -108.781 -53.638 L -108.781 -52.516 L -108.781 -51.394 L -108.781 -50.273 L -108.781 -49.151 L -108.781 -48.029 L -108.781 -46.907 L -108.781 -45.785 L -108.781 -44.663 L -108.781 -43.541 L -108.781 -42.419 L -108.781 -41.298 L -108.781 -40.176 L -108.781 -39.054 L -108.781 -37.932 L -108.781 -36.81 L -108.781 -35.688 L -108.781 -34.566 L -108.781 -33.444 L -108.781 -32.323 L -108.781 -31.201 L -108.781 -30.079 L -108.781 -28.957 L -108.781 -27.835 L -108.781 -26.713 L -108.781 -25.591 L -108.781 -24.469 L -108.781 -23.348 L -108.781 -22.226 L -108.781 -21.104 L -108.781 -19.982 L -108.781 -18.86 L -108.781 -17.738 L -108.781 -16.616 L -108.781 -15.494 L -108.781 -14.373 L -109.054 -14.373 L -109.328 -14.373 L -109.601 -14.373 L -109.875 -14.373 L -110.148 -14.373 L -110.422 -14.373 L -110.695 -14.373 L -110.969 -14.373 L -111.242 -14.373 L -111.516 -14.373 L -111.789 -14.373 L -112.062 -14.373 L -112.335 -14.373 L -112.609 -14.373 L -112.882 -14.373 L -113.156 -14.373 L -113.429 -14.373 L -113.703 -14.373 L -113.976 -14.373 L -114.25 -14.373 L -114.523 -14.373 L -114.797 -14.373 L -115.07 -14.373 L -115.344 -14.373 L -115.617 -14.373 L -115.891 -14.373 L -116.164 -14.373 L -116.437 -14.373 L -116.71 -14.373 L -116.984 -14.373 L -117.257 -14.373 L -117.531 -14.373 L -117.804 -14.373 L -118.078 -14.373 L -118.351 -14.373 L -118.625 -14.373 L -118.898 -14.373 L -119.172 -14.373 L -119.445 -14.373 L -119.719 -14.373 L -119.992 -14.373 L -120.266 -14.373 L -120.539 -14.373 L -120.812 -14.373 L -121.085 -14.373 L -121.359 -14.373 L -121.632 -14.373 L -121.906 -14.373 L -122.179 -14.373 L -122.453 -14.373 L -122.726 -14.373 L -123 -14.373 L -123.273 -14.373 L -123.547 -14.373 L -123.82 -14.373 L -124.094 -14.373 L -124.367 -14.373 L -124.641 -14.373 L -124.914 -14.373 L -125.187 -14.373 L -125.46 -14.373 L -125.734 -14.373 L -126.007 -14.373 L -126.281 -14.373 L -126.764 -15.221 L -127.247 -16.07 L -127.729 -16.918 L -128.212 -17.767 L -128.695 -18.615 L -129.178 -19.464 L -129.661 -20.312 L -130.144 -21.161 L -130.627 -22.009 L -131.11 -22.857 L -131.592 -23.705 L -132.075 -24.554 L -132.558 -25.402 L -133.041 -26.251 L -133.523 -27.099 L -134.006 -27.948 L -134.489 -28.796 L -134.972 -29.645 L -135.454 -30.493 L -135.937 -31.342 L -136.42 -32.19 L -136.903 -33.039 L -137.386 -33.887 L -137.869 -34.736 L -138.352 -35.584 L -138.835 -36.432 L -139.317 -37.28 L -139.8 -38.129 L -140.283 -38.977 Z" id="path-8" style="stroke-width: 0px;" vector-effect="non-scaling-stroke" transform="matrix(1.978023, 0, 0, 1.978023, -24.232025, -10.643021)"/>
  <path d="M -140.013 -63.584 L -140.496 -64.433 L -140.978 -65.281 L -141.461 -66.13 L -141.944 -66.978 L -142.427 -67.827 L -142.909 -68.675 L -143.392 -69.524 L -143.875 -70.372 L -144.358 -71.221 L -144.841 -72.069 L -145.324 -72.918 L -145.807 -73.766 L -146.29 -74.614 L -146.772 -75.462 L -147.255 -76.311 L -147.738 -77.159 L -148.221 -78.008 L -148.703 -78.856 L -149.186 -79.705 L -149.669 -80.553 L -150.152 -81.401 L -150.634 -82.249 L -151.117 -83.098 L -151.6 -83.946 L -152.083 -84.795 L -152.566 -85.643 L -153.049 -86.492 L -153.532 -87.34 L -154.015 -88.189 L -154.497 -89.037 L -154.98 -89.886 L -155.463 -90.734 L -155.946 -91.583 L -156.428 -92.431 L -156.911 -93.28 L -156.9 -92.431 L -156.889 -91.583 L -156.878 -90.734 L -156.867 -89.886 L -156.856 -89.037 L -156.846 -88.189 L -156.835 -87.34 L -156.824 -86.492 L -156.813 -85.643 L -156.802 -84.795 L -156.791 -83.946 L -156.78 -83.098 L -156.769 -82.249 L -156.758 -81.401 L -156.747 -80.553 L -156.736 -79.705 L -156.725 -78.856 L -156.714 -78.008 L -156.703 -77.159 L -156.692 -76.311 L -156.681 -75.462 L -156.671 -74.614 L -156.66 -73.766 L -156.649 -72.918 L -156.638 -72.069 L -156.627 -71.221 L -156.616 -70.372 L -156.605 -69.524 L -156.594 -68.675 L -156.583 -67.827 L -156.572 -66.978 L -156.561 -66.13 L -156.55 -65.281 L -156.539 -64.433 L -156.528 -63.584 L -156.517 -62.736 L -156.506 -61.887 L -156.496 -61.039 L -156.485 -60.191 L -156.474 -59.343 L -156.463 -58.494 L -156.452 -57.646 L -156.441 -56.797 L -156.43 -55.949 L -156.419 -55.1 L -156.408 -54.252 L -156.397 -53.403 L -156.386 -52.555 L -156.375 -51.706 L -156.364 -50.858 L -156.353 -50.009 L -156.342 -49.161 L -156.331 -48.312 L -156.321 -47.464 L -156.31 -46.616 L -156.299 -45.768 L -156.288 -44.919 L -156.277 -44.071 L -156.266 -43.222 L -156.255 -42.374 L -156.244 -41.525 L -156.233 -40.677 L -156.222 -39.828 L -156.211 -38.98 L -156.453 -38.98 L -156.695 -38.98 L -156.937 -38.98 L -157.179 -38.98 L -157.421 -38.98 L -157.664 -38.98 L -157.906 -38.98 L -158.148 -38.98 L -158.39 -38.98 L -158.633 -38.98 L -158.875 -38.98 L -159.117 -38.98 L -159.359 -38.98 L -159.602 -38.98 L -159.844 -38.98 L -160.086 -38.98 L -160.328 -38.98 L -160.57 -38.98 L -160.812 -38.98 L -161.054 -38.98 L -161.296 -38.98 L -161.539 -38.98 L -161.781 -38.98 L -162.023 -38.98 L -162.265 -38.98 L -162.508 -38.98 L -162.75 -38.98 L -162.992 -38.98 L -163.234 -38.98 L -163.477 -38.98 L -163.719 -38.98 L -163.961 -38.98 L -164.203 -38.98 L -164.445 -38.98 L -164.687 -38.98 L -164.929 -38.98 L -165.171 -38.98 L -165.414 -38.98 L -165.656 -38.98 L -165.898 -38.98 L -166.14 -38.98 L -166.383 -38.98 L -166.625 -38.98 L -166.867 -38.98 L -167.109 -38.98 L -167.352 -38.98 L -167.594 -38.98 L -167.836 -38.98 L -168.078 -38.98 L -168.32 -38.98 L -168.562 -38.98 L -168.804 -38.98 L -169.046 -38.98 L -169.289 -38.98 L -169.531 -38.98 L -169.773 -38.98 L -170.015 -38.98 L -170.258 -38.98 L -170.5 -38.98 L -170.742 -38.98 L -170.984 -38.98 L -171.227 -38.98 L -171.469 -38.98 L -171.711 -38.98 L -171.711 -40.101 L -171.711 -41.223 L -171.711 -42.345 L -171.711 -43.467 L -171.711 -44.589 L -171.711 -45.711 L -171.711 -46.833 L -171.711 -47.955 L -171.711 -49.076 L -171.711 -50.198 L -171.711 -51.32 L -171.711 -52.442 L -171.711 -53.564 L -171.711 -54.686 L -171.711 -55.808 L -171.711 -56.93 L -171.711 -58.051 L -171.711 -59.173 L -171.711 -60.295 L -171.711 -61.417 L -171.711 -62.539 L -171.711 -63.661 L -171.711 -64.783 L -171.711 -65.905 L -171.711 -67.026 L -171.711 -68.148 L -171.711 -69.27 L -171.711 -70.392 L -171.711 -71.514 L -171.711 -72.636 L -171.711 -73.758 L -171.711 -74.88 L -171.711 -76.001 L -171.711 -77.123 L -171.711 -78.245 L -171.711 -79.367 L -171.711 -80.489 L -171.711 -81.611 L -171.711 -82.733 L -171.711 -83.855 L -171.711 -84.976 L -171.711 -86.098 L -171.711 -87.22 L -171.711 -88.342 L -171.711 -89.464 L -171.711 -90.586 L -171.711 -91.708 L -171.711 -92.83 L -171.711 -93.951 L -171.711 -95.073 L -171.711 -96.195 L -171.711 -97.317 L -171.711 -98.439 L -171.711 -99.561 L -171.711 -100.683 L -171.711 -101.805 L -171.711 -102.926 L -171.711 -104.048 L -171.711 -105.17 L -171.711 -106.292 L -171.711 -107.414 L -171.711 -108.536 L -171.711 -109.658 L -171.711 -110.78 L -171.413 -110.78 L -171.114 -110.78 L -170.816 -110.78 L -170.517 -110.78 L -170.219 -110.78 L -169.92 -110.78 L -169.622 -110.78 L -169.323 -110.78 L -169.025 -110.78 L -168.726 -110.78 L -168.428 -110.78 L -168.129 -110.78 L -167.831 -110.78 L -167.532 -110.78 L -167.234 -110.78 L -166.936 -110.78 L -166.638 -110.78 L -166.339 -110.78 L -166.041 -110.78 L -165.742 -110.78 L -165.444 -110.78 L -165.145 -110.78 L -164.847 -110.78 L -164.548 -110.78 L -164.25 -110.78 L -163.951 -110.78 L -163.653 -110.78 L -163.354 -110.78 L -163.056 -110.78 L -162.757 -110.78 L -162.459 -110.78 L -162.161 -110.78 L -161.863 -110.78 L -161.564 -110.78 L -161.266 -110.78 L -160.967 -110.78 L -160.669 -110.78 L -160.37 -110.78 L -160.072 -110.78 L -159.773 -110.78 L -159.475 -110.78 L -159.176 -110.78 L -158.878 -110.78 L -158.579 -110.78 L -158.281 -110.78 L -157.982 -110.78 L -157.684 -110.78 L -157.386 -110.78 L -157.088 -110.78 L -156.789 -110.78 L -156.491 -110.78 L -156.192 -110.78 L -155.894 -110.78 L -155.595 -110.78 L -155.297 -110.78 L -154.998 -110.78 L -154.7 -110.78 L -154.401 -110.78 L -154.103 -110.78 L -153.804 -110.78 L -153.506 -110.78 L -153.208 -110.78 L -152.91 -110.78 L -152.611 -110.78 L -152.152 -109.973 L -151.692 -109.167 L -151.233 -108.361 L -150.773 -107.555 L -150.314 -106.749 L -149.855 -105.943 L -149.396 -105.137 L -148.936 -104.33 L -148.476 -103.524 L -148.017 -102.717 L -147.557 -101.911 L -147.098 -101.105 L -146.639 -100.298 L -146.18 -99.492 L -145.72 -98.686 L -145.261 -97.88 L -144.801 -97.073 L -144.342 -96.267 L -143.882 -95.461 L -143.423 -94.655 L -142.964 -93.848 L -142.505 -93.042 L -142.045 -92.236 L -141.586 -91.43 L -141.126 -90.623 L -140.667 -89.817 L -140.207 -89.011 L -139.748 -88.205 Z" id="path-8" style="stroke-width: 0px;" vector-effect="non-scaling-stroke" transform="matrix(1.978023, 0, 0, 1.978023, -24.232025, -10.643021)"/>
</svg>