<?xml version="1.0" encoding="utf-8"?>
<svg viewBox="13.057 146.121 495.152 125.7" width="495.152" height="125.7" xmlns="http://www.w3.org/2000/svg">
  <path d="M 110.702 179.375 L 126.432 179.375 L 150.643 221.868 L 150.066 179.375 L 162.748 179.375 L 162.748 238.503 L 148.336 238.503 L 122.89 193.786 L 123.466 238.503 L 110.702 238.503 L 110.702 179.375 Z" id="path-1" style="stroke-width: 0px; fill: rgb(0, 24, 138);" vector-effect="non-scaling-stroke"/>
  <path d="M 187.701 189.752 L 168.677 189.752 L 168.677 179.458 L 219.734 179.458 L 219.734 189.752 L 200.548 189.752 L 200.548 238.503 L 187.701 238.503 L 187.701 189.752 Z" id="path-2" style="stroke-width: 0px; fill: rgb(0, 24, 138);" vector-effect="non-scaling-stroke"/>
  <path d="M 236.123 203.503 L 270.545 203.422 L 270.545 213.716 L 236.039 213.716 C 236.033 215.71 236.261 217.696 236.719 219.636 C 236.726 219.666 236.733 219.695 236.74 219.727 C 237.162 221.436 237.957 223.029 239.068 224.393 C 239.235 224.6 239.405 224.8 239.581 224.997 C 240.163 225.691 240.849 226.292 241.616 226.777 C 242.368 227.245 243.199 227.579 244.07 227.756 C 245.8 228.113 247.57 228.292 249.381 228.292 L 249.752 228.292 L 250.122 228.292 L 270.545 228.209 L 270.545 238.503 L 249.545 238.503 C 246.497 238.511 243.453 238.244 240.453 237.706 C 240.259 237.67 240.063 237.634 239.87 237.598 C 237.39 237.102 235.031 236.125 232.927 234.723 C 232.297 234.31 231.687 233.867 231.099 233.397 C 227.804 230.707 225.499 227.426 224.182 223.555 C 222.864 219.686 222.15 215.719 222.041 211.657 C 222.003 211.083 221.986 210.51 221.985 209.936 C 221.985 209.659 221.991 209.381 221.999 209.104 C 222.028 208.281 222.068 207.456 222.124 206.633 C 222.276 204.057 222.626 201.496 223.171 198.973 C 224.405 193.443 226.594 189.133 229.741 186.046 C 232.033 183.843 234.794 182.189 237.817 181.209 C 241.241 180.041 245.259 179.458 249.875 179.458 L 270.545 179.375 L 270.545 189.67 L 250.122 189.67 C 248.817 189.675 247.515 189.804 246.232 190.052 C 244.779 190.346 243.491 190.806 242.367 191.431 C 241.455 191.936 240.626 192.577 239.911 193.333 C 238.691 194.65 237.764 196.208 237.188 197.908 C 236.609 199.545 236.252 201.411 236.123 203.503 Z" id="path-3" style="stroke-width: 0px; fill: rgb(0, 24, 138);" vector-effect="non-scaling-stroke"/>
  <path d="M 281.415 179.375 L 312.051 179.375 C 312.653 179.429 313.244 179.458 313.82 179.458 C 314.397 179.458 314.987 179.484 315.591 179.539 C 317.842 179.65 320.052 180.005 322.22 180.611 C 324.389 181.213 326.297 182.34 327.942 183.987 C 329.426 185.414 330.539 187.088 331.278 189.01 C 332.02 190.931 332.472 192.908 332.638 194.939 C 332.638 195.323 332.651 195.708 332.679 196.093 C 332.706 196.477 332.72 196.861 332.72 197.245 C 332.747 199.297 332.525 201.211 332.055 202.983 C 331.598 204.731 330.863 206.395 329.879 207.909 C 328.445 210.088 326.398 211.792 323.997 212.81 C 322.959 213.261 321.882 213.621 320.778 213.88 L 335.52 238.503 L 321.52 238.503 L 308.508 215.279 L 293.85 215.279 L 293.85 238.503 L 281.415 238.503 L 281.415 179.375 Z M 309.084 189.998 L 309.084 189.916 L 293.85 189.916 L 293.85 204.821 L 309.084 204.821 C 309.144 204.85 309.206 204.873 309.27 204.888 C 309.316 204.899 309.366 204.903 309.414 204.904 L 309.744 204.904 C 311.162 204.909 312.576 204.783 313.97 204.525 C 314.985 204.336 315.981 204.064 316.949 203.709 C 318.251 203.235 319.253 202.179 319.658 200.855 C 319.967 199.972 320.122 198.907 320.122 197.66 C 320.122 197.575 320.121 197.493 320.121 197.41 C 320.125 196.682 320.067 195.955 319.945 195.238 C 319.808 194.472 319.589 193.806 319.292 193.237 C 318.766 192.189 317.828 191.404 316.702 191.069 C 315.25 190.621 313.759 190.316 312.246 190.161 C 311.196 190.05 310.141 189.996 309.084 189.998 Z" id="path-4" style="stroke-width: 0px; fill: rgb(0, 24, 138);" vector-effect="non-scaling-stroke"/>
  <path d="M 393.165 189.916 L 362.448 189.916 C 359.983 189.966 357.874 190.443 356.124 191.347 C 355.965 191.428 355.809 191.515 355.655 191.603 C 354.578 192.24 353.772 193.248 353.387 194.438 C 353.166 195.061 353.022 195.763 352.948 196.54 C 352.913 196.939 352.895 197.34 352.896 197.739 C 352.891 198.373 352.959 199.003 353.102 199.619 C 353.374 200.885 354.146 201.99 355.242 202.68 C 356.471 203.447 357.856 203.926 359.295 204.081 C 359.769 204.136 360.244 204.162 360.718 204.162 L 377.19 204.08 C 377.658 204.122 378.125 204.149 378.594 204.157 C 378.758 204.161 378.92 204.162 379.084 204.162 C 379.743 204.162 380.401 204.191 381.06 204.245 C 382.981 204.354 384.875 204.67 386.743 205.193 C 388.608 205.714 390.257 206.659 391.683 208.032 C 393.001 209.241 393.989 210.696 394.647 212.398 C 395.307 214.1 395.718 215.856 395.884 217.668 C 395.935 218.194 395.977 218.722 396.005 219.249 C 396.005 219.257 396.006 219.266 396.006 219.273 C 396.035 219.795 396.047 220.33 396.047 220.88 C 396.032 222.511 395.885 224.139 395.607 225.746 C 395.302 227.438 394.842 228.939 394.225 230.245 C 393.389 232.103 392.052 233.694 390.365 234.839 C 387.464 236.766 383.739 237.933 379.198 238.339 C 377.927 238.45 376.653 238.505 375.378 238.503 L 342.273 238.503 L 342.273 227.962 L 373.402 227.962 C 373.553 227.965 373.704 227.966 373.854 227.966 C 376.41 227.966 378.631 227.526 380.524 226.644 C 382.387 225.778 383.218 223.89 383.018 220.982 C 383.001 220.755 382.981 220.529 382.953 220.303 C 382.895 219.711 382.783 219.128 382.621 218.556 C 382.441 217.947 382.202 217.423 381.906 216.982 C 381.467 216.312 380.823 215.8 380.071 215.527 C 379.226 215.221 378.354 214.992 377.466 214.842 C 376.622 214.695 375.722 214.6 374.763 214.558 C 374.584 214.549 374.404 214.544 374.225 214.539 L 359.565 214.456 C 359.436 214.456 359.306 214.457 359.175 214.457 C 354.847 214.457 351.172 213.801 348.156 212.491 C 347.086 212.03 346.067 211.46 345.114 210.792 C 343.322 209.5 341.957 207.706 341.19 205.635 C 340.319 203.427 339.882 200.731 339.882 197.544 C 339.882 197.444 339.884 197.344 339.884 197.245 C 339.899 195.577 340.054 193.914 340.346 192.271 C 341.125 188.066 342.879 185.044 345.607 183.205 C 348.616 181.175 352.486 179.97 357.214 179.59 C 358.353 179.5 359.494 179.455 360.636 179.458 L 393.165 179.375 L 393.165 189.916 Z" id="path-5" style="stroke-width: 0px; fill: rgb(255, 102, 0);" vector-effect="non-scaling-stroke"/>
  <path d="M 403.212 195.927 L 403.212 195.844 C 403.856 193.849 404.71 191.927 405.76 190.113 C 406.789 188.335 408.05 186.705 409.512 185.263 C 411.32 183.515 413.423 182.099 415.724 181.086 C 417.24 180.407 418.813 179.864 420.424 179.458 C 422.069 179.073 423.772 178.771 425.529 178.552 C 427.286 178.332 429.044 178.221 430.799 178.221 C 432.666 178.166 434.56 178.25 436.482 178.47 C 438.234 178.665 439.968 178.993 441.669 179.448 C 441.779 179.478 441.89 179.508 441.999 179.539 C 444.02 180.032 445.974 180.761 447.822 181.715 C 449.646 182.661 451.318 183.869 452.787 185.304 C 454.762 187.261 456.361 189.563 457.511 192.095 C 458.083 193.338 458.569 194.617 458.964 195.927 C 459.421 197.585 459.786 199.264 460.058 200.963 C 460.122 201.37 460.184 201.777 460.24 202.185 C 460.542 204.383 460.693 206.578 460.693 208.774 C 460.693 211.133 460.555 213.44 460.281 215.691 C 460.006 217.943 459.568 220.083 458.964 222.115 C 457.646 226.561 455.561 230.143 452.706 232.861 C 450.763 234.689 448.496 236.138 446.021 237.13 C 444.61 237.705 443.154 238.164 441.669 238.503 C 439.914 238.942 438.101 239.258 436.234 239.451 C 434.369 239.642 432.474 239.738 430.552 239.738 C 428.851 239.738 427.148 239.628 425.446 239.408 C 423.745 239.188 422.069 238.887 420.424 238.503 C 418.38 238.037 416.399 237.33 414.522 236.397 C 412.673 235.474 410.971 234.282 409.47 232.861 C 407.545 231.007 405.977 228.814 404.844 226.395 C 404.187 225.014 403.642 223.583 403.212 222.115 C 402.857 220.864 402.563 219.597 402.327 218.319 C 402.176 217.502 402.046 216.68 401.936 215.856 C 401.633 213.605 401.482 211.326 401.482 209.021 C 401.482 206.716 401.62 204.424 401.895 202.145 C 402.038 200.918 402.246 199.7 402.513 198.495 C 402.706 197.63 402.94 196.771 403.212 195.927 Z M 416.058 200.127 L 416.058 200.044 C 415.674 201.528 415.4 203.023 415.236 204.534 C 415.072 206.042 414.989 207.539 414.989 209.021 C 414.989 210.557 415.085 212.082 415.276 213.591 C 415.469 215.102 415.728 216.568 416.058 217.997 C 416.402 219.472 416.922 220.898 417.607 222.248 C 418.025 223.067 418.513 223.849 419.064 224.586 C 420.123 225.982 421.49 227.115 423.059 227.898 C 423.672 228.21 424.303 228.479 424.953 228.703 C 425.822 229.007 426.716 229.24 427.626 229.396 C 427.723 229.413 427.82 229.429 427.918 229.444 C 428.96 229.61 430.003 229.691 431.047 229.691 C 432.09 229.691 433.133 229.61 434.177 229.444 C 435.062 229.306 435.936 229.099 436.788 228.823 C 436.906 228.784 437.023 228.743 437.14 228.703 C 438.302 228.309 439.406 227.761 440.423 227.079 C 441.434 226.395 442.327 225.553 443.07 224.586 C 444.251 223.026 445.136 221.263 445.68 219.383 C 445.815 218.926 445.933 218.464 446.034 217.997 C 446.365 216.568 446.625 215.102 446.817 213.591 C 447.008 212.082 447.104 210.557 447.104 209.021 C 447.104 207.539 447.008 206.042 446.817 204.534 C 446.625 203.023 446.365 201.554 446.034 200.127 C 445.698 198.537 445.143 197.001 444.387 195.565 C 444.002 194.841 443.562 194.152 443.07 193.498 C 441.908 191.968 440.372 190.76 438.612 189.989 C 438.132 189.774 437.64 189.584 437.14 189.422 C 436.271 189.118 435.376 188.885 434.467 188.729 C 434.37 188.712 434.273 188.696 434.177 188.68 C 433.133 188.515 432.09 188.434 431.047 188.434 C 430.003 188.434 428.96 188.515 427.918 188.68 C 427.033 188.818 426.159 189.026 425.305 189.301 C 425.187 189.34 425.07 189.38 424.953 189.422 C 423.851 189.796 422.8 190.31 421.829 190.95 C 420.776 191.649 419.856 192.523 419.106 193.539 C 418.094 194.931 417.283 196.456 416.7 198.074 C 416.453 198.747 416.239 199.434 416.058 200.127 Z" id="path-6" style="stroke-width: 0px; fill: rgb(255, 102, 0);" vector-effect="non-scaling-stroke"/>
  <path d="M 467.61 214.621 L 467.61 179.375 L 480.046 179.375 L 480.046 211.821 C 480.044 212.047 480.041 212.274 480.041 212.501 C 480.041 217.413 480.59 221.251 481.689 224.015 C 481.743 224.151 481.799 224.286 481.857 224.42 C 482.394 225.591 483.314 226.544 484.467 227.123 C 486.49 228.231 489.518 228.785 493.551 228.785 L 508.209 228.703 L 508.209 238.503 L 492.48 238.503 C 490.232 238.508 487.989 238.394 485.753 238.165 C 484.49 238.034 483.232 237.858 481.98 237.639 C 479.802 237.238 477.744 236.352 475.954 235.045 C 474.874 234.265 473.872 233.383 472.964 232.409 C 471.663 231.069 470.584 229.531 469.765 227.853 C 469.191 226.658 468.772 225.393 468.516 224.091 C 467.912 221.017 467.61 217.861 467.61 214.621 Z" id="path-7" style="stroke-width: 0px; fill: rgb(255, 102, 0);" vector-effect="non-scaling-stroke"/>
  <path d="M 54.381 207.639 L 54.979 208.692 L 55.578 209.742 L 56.178 210.794 L 56.776 211.844 L 57.375 212.897 L 57.973 213.947 L 58.573 214.998 L 59.172 216.05 L 59.77 217.101 L 60.369 218.153 L 60.969 219.203 L 61.567 220.254 L 62.167 221.306 L 62.764 222.357 L 63.366 223.409 L 63.964 224.459 L 64.563 225.512 L 65.161 226.562 L 65.76 227.613 L 66.358 228.665 L 66.958 229.716 L 67.557 230.768 L 68.158 231.818 L 68.757 232.868 L 69.354 233.921 L 69.952 234.972 L 70.552 236.024 L 71.151 237.074 L 71.751 238.127 L 72.349 239.177 L 72.949 240.227 L 73.548 241.28 L 74.146 242.331 L 74.745 243.383 L 75.343 244.433 L 75.942 245.484 L 75.928 244.433 L 75.913 243.383 L 75.9 242.331 L 75.885 241.28 L 75.871 240.227 L 75.856 239.177 L 75.841 238.127 L 75.828 237.074 L 75.814 236.024 L 75.799 234.972 L 75.786 233.921 L 75.772 232.868 L 75.757 231.818 L 75.742 230.768 L 75.729 229.716 L 75.714 228.665 L 75.7 227.613 L 75.685 226.562 L 75.67 225.512 L 75.657 224.459 L 75.642 223.409 L 75.628 222.357 L 75.615 221.306 L 75.6 220.254 L 75.585 219.203 L 75.571 218.153 L 75.558 217.101 L 75.543 216.05 L 75.529 214.998 L 75.514 213.947 L 75.501 212.897 L 75.486 211.844 L 75.471 210.794 L 75.457 209.742 L 75.444 208.692 L 75.429 207.639 L 75.414 206.589 L 75.4 205.538 L 75.385 204.486 L 75.372 203.435 L 75.357 202.383 L 75.343 201.333 L 75.33 200.282 L 75.315 199.23 L 75.301 198.179 L 75.286 197.127 L 75.273 196.077 L 75.258 195.024 L 75.243 193.974 L 75.229 192.923 L 75.216 191.871 L 75.201 190.82 L 75.186 189.768 L 75.171 188.718 L 75.157 187.665 L 75.144 186.615 L 75.129 185.564 L 75.114 184.512 L 75.102 183.462 L 75.087 182.409 L 75.072 181.359 L 75.058 180.308 L 75.045 179.256 L 75.03 178.205 L 75.343 178.205 L 75.657 178.205 L 75.972 178.205 L 76.285 178.205 L 76.599 178.205 L 76.912 178.205 L 77.227 178.205 L 77.539 178.205 L 77.854 178.205 L 78.166 178.205 L 78.481 178.205 L 78.795 178.205 L 79.11 178.205 L 79.422 178.205 L 79.735 178.205 L 80.049 178.205 L 80.364 178.205 L 80.677 178.205 L 80.991 178.205 L 81.306 178.205 L 81.619 178.205 L 81.933 178.205 L 82.246 178.205 L 82.56 178.205 L 82.875 178.205 L 83.185 178.205 L 83.5 178.205 L 83.815 178.205 L 84.129 178.205 L 84.442 178.205 L 84.756 178.205 L 85.069 178.205 L 85.384 178.205 L 85.696 178.205 L 86.011 178.205 L 86.325 178.205 L 86.64 178.205 L 86.952 178.205 L 87.267 178.205 L 87.579 178.205 L 87.894 178.205 L 88.206 178.205 L 88.521 178.205 L 88.834 178.205 L 89.149 178.205 L 89.463 178.205 L 89.776 178.205 L 90.09 178.205 L 90.403 178.205 L 90.715 178.205 L 91.03 178.205 L 91.345 178.205 L 91.659 178.205 L 91.972 178.205 L 92.286 178.205 L 92.599 178.205 L 92.913 178.205 L 93.226 178.205 L 93.54 178.205 L 93.855 178.205 L 94.168 178.205 L 94.482 178.205 L 94.797 178.205 L 95.109 178.205 L 95.109 179.667 L 95.109 181.131 L 95.109 182.594 L 95.109 184.056 L 95.109 185.52 L 95.109 186.983 L 95.109 188.445 L 95.109 189.908 L 95.109 191.37 L 95.109 192.833 L 95.109 194.295 L 95.109 195.759 L 95.109 197.222 L 95.109 198.684 L 95.109 200.147 L 95.109 201.609 L 95.109 203.073 L 95.109 204.534 L 95.109 205.997 L 95.109 207.461 L 95.109 208.923 L 95.109 210.386 L 95.109 211.85 L 95.109 213.311 L 95.109 214.773 L 95.109 216.237 L 95.109 217.7 L 95.109 219.162 L 95.109 220.626 L 95.109 222.089 L 95.109 223.553 L 95.109 225.014 L 95.109 226.476 L 95.109 227.939 L 95.109 229.401 L 95.109 230.865 L 95.109 232.328 L 95.109 233.79 L 95.109 235.254 L 95.109 236.715 L 95.109 238.179 L 95.109 239.64 L 95.109 241.104 L 95.109 242.567 L 95.109 244.029 L 95.109 245.493 L 95.109 246.956 L 95.109 248.417 L 95.109 249.881 L 95.109 251.343 L 95.109 252.806 L 95.109 254.27 L 95.109 255.732 L 95.109 257.195 L 95.109 258.659 L 95.109 260.12 L 95.109 261.582 L 95.109 263.045 L 95.109 264.507 L 95.109 265.971 L 95.109 267.434 L 95.109 268.896 L 95.109 270.36 L 95.109 271.821 L 94.753 271.821 L 94.395 271.821 L 94.039 271.821 L 93.682 271.821 L 93.327 271.821 L 92.968 271.821 L 92.613 271.821 L 92.256 271.821 L 91.9 271.821 L 91.542 271.821 L 91.186 271.821 L 90.831 271.821 L 90.475 271.821 L 90.117 271.821 L 89.761 271.821 L 89.404 271.821 L 89.049 271.821 L 88.69 271.821 L 88.335 271.821 L 87.978 271.821 L 87.622 271.821 L 87.265 271.821 L 86.91 271.821 L 86.551 271.821 L 86.196 271.821 L 85.839 271.821 L 85.483 271.821 L 85.126 271.821 L 84.771 271.821 L 84.414 271.821 L 84.058 271.821 L 83.7 271.821 L 83.344 271.821 L 82.987 271.821 L 82.632 271.821 L 82.273 271.821 L 81.918 271.821 L 81.561 271.821 L 81.205 271.821 L 80.847 271.821 L 80.491 271.821 L 80.134 271.821 L 79.777 271.821 L 79.422 271.821 L 79.066 271.821 L 78.709 271.821 L 78.354 271.821 L 77.995 271.821 L 77.64 271.821 L 77.283 271.821 L 76.926 271.821 L 76.57 271.821 L 76.213 271.821 L 75.856 271.821 L 75.501 271.821 L 75.144 271.821 L 74.787 271.821 L 74.43 271.821 L 74.074 271.821 L 73.717 271.821 L 73.362 271.821 L 73.005 271.821 L 72.648 271.821 L 72.292 271.821 L 71.662 270.716 L 71.032 269.609 L 70.404 268.503 L 69.774 267.396 L 69.144 266.291 L 68.514 265.184 L 67.884 264.078 L 67.255 262.971 L 66.624 261.866 L 65.995 260.759 L 65.367 259.653 L 64.737 258.548 L 64.107 257.441 L 63.478 256.334 L 62.85 255.228 L 62.22 254.121 L 61.59 253.016 L 60.96 251.909 L 60.331 250.803 L 59.701 249.696 L 59.073 248.591 L 58.441 247.484 L 57.813 246.378 L 57.183 245.271 L 56.553 244.166 L 55.923 243.06 L 55.294 241.953 L 54.664 240.848 L 54.036 239.742 Z" id="path-8" style="stroke-width: 0px; fill: rgb(255, 102, 0);" vector-effect="non-scaling-stroke"/>
  <path d="M 54.387 207.657 L 53.758 206.55 L 53.13 205.445 L 52.5 204.338 L 51.87 203.232 L 51.24 202.125 L 50.611 201.02 L 49.981 199.913 L 49.353 198.807 L 48.721 197.699 L 48.093 196.595 L 47.461 195.488 L 46.833 194.382 L 46.203 193.277 L 45.574 192.17 L 44.944 191.063 L 44.314 189.957 L 43.684 188.85 L 43.056 187.745 L 42.426 186.638 L 41.797 185.532 L 41.167 184.427 L 40.539 183.321 L 39.91 182.214 L 39.279 181.109 L 38.65 180.002 L 38.02 178.896 L 37.39 177.789 L 36.76 176.682 L 36.13 175.577 L 35.502 174.471 L 34.873 173.363 L 34.242 172.257 L 33.613 171.152 L 32.983 170.045 L 32.355 168.938 L 32.368 170.045 L 32.383 171.152 L 32.398 172.257 L 32.412 173.363 L 32.427 174.471 L 32.44 175.577 L 32.454 176.682 L 32.467 177.789 L 32.482 178.896 L 32.497 180.002 L 32.511 181.109 L 32.526 182.214 L 32.539 183.321 L 32.554 184.427 L 32.568 185.532 L 32.583 186.638 L 32.598 187.745 L 32.611 188.85 L 32.626 189.957 L 32.64 191.063 L 32.655 192.17 L 32.668 193.277 L 32.682 194.382 L 32.695 195.488 L 32.71 196.595 L 32.725 197.699 L 32.739 198.807 L 32.754 199.913 L 32.767 201.02 L 32.782 202.125 L 32.797 203.232 L 32.811 204.338 L 32.826 205.445 L 32.839 206.55 L 32.854 207.657 L 32.868 208.764 L 32.883 209.87 L 32.895 210.975 L 32.91 212.082 L 32.925 213.188 L 32.938 214.295 L 32.953 215.4 L 32.967 216.507 L 32.982 217.613 L 32.997 218.72 L 33.01 219.825 L 33.025 220.932 L 33.039 222.038 L 33.054 223.145 L 33.069 224.25 L 33.082 225.357 L 33.097 226.463 L 33.111 227.57 L 33.124 228.675 L 33.138 229.782 L 33.153 230.888 L 33.166 231.995 L 33.181 233.1 L 33.196 234.207 L 33.21 235.313 L 33.225 236.42 L 33.238 237.525 L 33.253 238.632 L 33.268 239.738 L 32.952 239.738 L 32.637 239.738 L 32.32 239.738 L 32.005 239.738 L 31.689 239.738 L 31.374 239.738 L 31.057 239.738 L 30.742 239.738 L 30.426 239.738 L 30.109 239.738 L 29.794 239.738 L 29.478 239.738 L 29.163 239.738 L 28.846 239.738 L 28.531 239.738 L 28.215 239.738 L 27.9 239.738 L 27.583 239.738 L 27.268 239.738 L 26.952 239.738 L 26.637 239.738 L 26.32 239.738 L 26.004 239.738 L 25.689 239.738 L 25.374 239.738 L 25.057 239.738 L 24.741 239.738 L 24.426 239.738 L 24.111 239.738 L 23.793 239.738 L 23.478 239.738 L 23.161 239.738 L 22.846 239.738 L 22.531 239.738 L 22.216 239.738 L 21.9 239.738 L 21.585 239.738 L 21.268 239.738 L 20.952 239.738 L 20.637 239.738 L 20.322 239.738 L 20.004 239.738 L 19.689 239.738 L 19.374 239.738 L 19.057 239.738 L 18.741 239.738 L 18.426 239.738 L 18.109 239.738 L 17.794 239.738 L 17.479 239.738 L 17.163 239.738 L 16.848 239.738 L 16.533 239.738 L 16.215 239.738 L 15.9 239.738 L 15.585 239.738 L 15.27 239.738 L 14.952 239.738 L 14.637 239.738 L 14.322 239.738 L 14.005 239.738 L 13.689 239.738 L 13.372 239.738 L 13.057 239.738 L 13.057 238.275 L 13.057 236.813 L 13.057 235.35 L 13.057 233.888 L 13.057 232.424 L 13.057 230.961 L 13.057 229.499 L 13.057 228.036 L 13.057 226.575 L 13.057 225.111 L 13.057 223.647 L 13.057 222.186 L 13.057 220.722 L 13.057 219.258 L 13.057 217.797 L 13.057 216.333 L 13.057 214.872 L 13.057 213.408 L 13.057 211.946 L 13.057 210.483 L 13.057 209.019 L 13.057 207.557 L 13.057 206.094 L 13.057 204.632 L 13.057 203.169 L 13.057 201.707 L 13.057 200.244 L 13.057 198.782 L 13.057 197.318 L 13.057 195.855 L 13.057 194.393 L 13.057 192.93 L 13.057 191.468 L 13.057 190.005 L 13.057 188.541 L 13.057 187.079 L 13.057 185.616 L 13.057 184.152 L 13.057 182.69 L 13.057 181.227 L 13.057 179.766 L 13.057 178.302 L 13.057 176.84 L 13.057 175.377 L 13.057 173.913 L 13.057 172.451 L 13.057 170.988 L 13.057 169.524 L 13.057 168.063 L 13.057 166.599 L 13.057 165.138 L 13.057 163.676 L 13.057 162.212 L 13.057 160.749 L 13.057 159.287 L 13.057 157.823 L 13.057 156.362 L 13.057 154.898 L 13.057 153.435 L 13.057 151.973 L 13.057 150.51 L 13.057 149.046 L 13.057 147.584 L 13.057 146.121 L 13.446 146.121 L 13.836 146.121 L 14.224 146.121 L 14.614 146.121 L 15.003 146.121 L 15.393 146.121 L 15.781 146.121 L 16.171 146.121 L 16.56 146.121 L 16.95 146.121 L 17.338 146.121 L 17.728 146.121 L 18.117 146.121 L 18.505 146.121 L 18.895 146.121 L 19.282 146.121 L 19.672 146.121 L 20.061 146.121 L 20.451 146.121 L 20.839 146.121 L 21.229 146.121 L 21.618 146.121 L 22.008 146.121 L 22.396 146.121 L 22.785 146.121 L 23.175 146.121 L 23.563 146.121 L 23.953 146.121 L 24.342 146.121 L 24.732 146.121 L 25.12 146.121 L 25.509 146.121 L 25.899 146.121 L 26.287 146.121 L 26.677 146.121 L 27.066 146.121 L 27.456 146.121 L 27.844 146.121 L 28.234 146.121 L 28.623 146.121 L 29.011 146.121 L 29.401 146.121 L 29.79 146.121 L 30.18 146.121 L 30.568 146.121 L 30.958 146.121 L 31.347 146.121 L 31.735 146.121 L 32.124 146.121 L 32.514 146.121 L 32.902 146.121 L 33.292 146.121 L 33.681 146.121 L 34.071 146.121 L 34.459 146.121 L 34.849 146.121 L 35.236 146.121 L 35.628 146.121 L 36.015 146.121 L 36.406 146.121 L 36.793 146.121 L 37.182 146.121 L 37.572 146.121 L 37.96 146.121 L 38.559 147.173 L 39.159 148.224 L 39.757 149.276 L 40.357 150.326 L 40.956 151.377 L 41.554 152.427 L 42.153 153.479 L 42.753 154.532 L 43.353 155.582 L 43.951 156.635 L 44.551 157.685 L 45.15 158.736 L 45.748 159.788 L 46.347 160.839 L 46.945 161.891 L 47.544 162.941 L 48.144 163.994 L 48.742 165.044 L 49.342 166.095 L 49.941 167.145 L 50.539 168.198 L 51.138 169.248 L 51.738 170.3 L 52.336 171.35 L 52.936 172.403 L 53.535 173.454 L 54.133 174.504 L 54.732 175.556 Z" id="path-8" style="stroke-width: 0px; fill: rgb(0, 24, 138);" vector-effect="non-scaling-stroke"/>
</svg>