<?xml version="1.0" encoding="utf-8"?>
<svg viewBox="-24.232 -10.643 954.792 147.798" width="954.792" height="147.798" xmlns="http://www.w3.org/2000/svg">
  <path d="M 0 1.42 L 19.1 1.42 L 48.5 53.02 L 47.8 1.42 L 63.2 1.42 L 63.2 73.22 L 45.7 73.22 L 14.8 18.92 L 15.5 73.22 L 0 73.22 L 0 1.42 Z" id="path-1" style="stroke-width: 0px;" vector-effect="non-scaling-stroke" transform="matrix(1.978023, 0, 0, 1.978023, -24.232025, -10.643021)"/>
  <path d="M 93.5 14.02 L 70.4 14.02 L 70.4 1.52 L 132.4 1.52 L 132.4 14.02 L 109.1 14.02 L 109.1 73.22 L 93.5 73.22 L 93.5 14.02 Z" id="path-2" style="stroke-width: 0px;" vector-effect="non-scaling-stroke" transform="matrix(1.978023, 0, 0, 1.978023, -24.232025, -10.643021)"/>
  <path d="M 152.3 30.72 L 194.1 30.62 L 194.1 43.12 L 152.2 43.12 A 30.864 30.864 0 0 0 153.024 50.311 A 28.939 28.939 0 0 0 153.05 50.42 A 14.451 14.451 0 0 0 155.877 56.086 A 17.221 17.221 0 0 0 156.5 56.82 A 10.631 10.631 0 0 0 158.97 58.981 A 9.066 9.066 0 0 0 161.95 60.17 Q 165.1 60.82 168.4 60.82 L 168.85 60.82 L 169.3 60.82 L 194.1 60.72 L 194.1 73.22 L 168.6 73.22 A 61.69 61.69 0 0 1 157.558 72.253 A 57.064 57.064 0 0 1 156.85 72.12 A 23.51 23.51 0 0 1 148.419 68.631 A 28.806 28.806 0 0 1 146.2 67.02 Q 140.2 62.12 137.8 55.07 Q 135.4 48.02 135.2 40.62 A 33.492 33.492 0 0 1 135.133 38.531 A 30.35 30.35 0 0 1 135.15 37.52 Q 135.2 36.02 135.3 34.52 A 60.925 60.925 0 0 1 136.574 25.219 Q 138.82 15.145 144.55 9.52 A 25.504 25.504 0 0 1 154.357 3.647 Q 160.595 1.52 169 1.52 L 194.1 1.42 L 194.1 13.92 L 169.3 13.92 A 25.491 25.491 0 0 0 164.577 14.386 Q 161.93 14.92 159.883 16.06 A 12.282 12.282 0 0 0 156.9 18.37 A 15.528 15.528 0 0 0 153.594 23.924 Q 152.538 26.908 152.3 30.72 Z" id="path-3" style="stroke-width: 0px;" vector-effect="non-scaling-stroke" transform="matrix(1.978023, 0, 0, 1.978023, -24.232025, -10.643021)"/>
  <path d="M 207.3 1.42 L 244.5 1.42 Q 245.6 1.52 246.65 1.52 Q 247.7 1.52 248.8 1.62 Q 252.9 1.82 256.85 2.92 Q 260.8 4.02 263.8 7.02 Q 266.5 9.62 267.85 13.12 Q 269.2 16.62 269.5 20.32 Q 269.5 21.02 269.55 21.72 Q 269.6 22.42 269.6 23.12 Q 269.65 26.859 268.793 30.088 A 20.533 20.533 0 0 1 266.15 36.07 A 16.024 16.024 0 0 1 259.007 42.019 A 22.777 22.777 0 0 1 255.1 43.32 L 273 73.22 L 256 73.22 L 240.2 45.02 L 222.4 45.02 L 222.4 73.22 L 207.3 73.22 L 207.3 1.42 Z M 240.9 14.32 L 240.9 14.22 L 222.4 14.22 L 222.4 32.32 L 240.9 32.32 A 0.963 0.963 0 0 0 241.125 32.401 A 0.817 0.817 0 0 0 241.3 32.42 L 241.7 32.42 A 27.638 27.638 0 0 0 246.831 31.961 A 22.696 22.696 0 0 0 250.45 30.97 A 5.353 5.353 0 0 0 253.738 27.504 Q 254.302 25.895 254.302 23.623 A 18.806 18.806 0 0 0 254.3 23.32 A 15.005 15.005 0 0 0 254.087 20.682 Q 253.837 19.288 253.294 18.254 A 5.177 5.177 0 0 0 250.15 15.62 A 28.106 28.106 0 0 0 244.739 14.518 A 35.963 35.963 0 0 0 240.9 14.32 Z" id="path-4" style="stroke-width: 0px;" vector-effect="non-scaling-stroke" transform="matrix(1.978023, 0, 0, 1.978023, -24.232025, -10.643021)"/>
  <path d="M 343 14.22 L 305.7 14.22 Q 301.209 14.312 298.02 15.957 A 12.815 12.815 0 0 0 297.45 16.27 A 6.21 6.21 0 0 0 294.696 19.711 Q 294.296 20.846 294.164 22.265 A 15.792 15.792 0 0 0 294.1 23.72 A 9.68 9.68 0 0 0 294.351 26.002 A 5.835 5.835 0 0 0 296.95 29.72 A 11.639 11.639 0 0 0 301.871 31.421 A 14.757 14.757 0 0 0 303.6 31.52 L 323.6 31.42 A 24.643 24.643 0 0 0 325.306 31.514 A 27.914 27.914 0 0 0 325.9 31.52 Q 327.1 31.52 328.3 31.62 Q 331.8 31.82 335.2 32.77 Q 338.6 33.72 341.2 36.22 Q 343.6 38.42 344.8 41.52 Q 346 44.62 346.3 47.92 A 41.611 41.611 0 0 1 346.448 49.84 A 39.048 39.048 0 0 1 346.45 49.87 Q 346.5 50.82 346.5 51.82 A 36.794 36.794 0 0 1 345.965 57.73 Q 345.41 60.813 344.287 63.192 A 13.356 13.356 0 0 1 339.6 68.77 Q 334.313 72.281 326.038 73.022 A 52.071 52.071 0 0 1 321.4 73.22 L 281.2 73.22 L 281.2 60.42 L 319 60.42 A 27.575 27.575 0 0 0 319.551 60.426 Q 324.203 60.426 327.65 58.82 Q 331.043 57.24 330.677 51.944 A 17.555 17.555 0 0 0 330.6 51.12 A 11.965 11.965 0 0 0 330.195 48.999 Q 329.867 47.89 329.327 47.087 A 4.503 4.503 0 0 0 327.1 45.32 A 18.319 18.319 0 0 0 323.936 44.489 Q 322.399 44.221 320.654 44.143 A 31.749 31.749 0 0 0 320 44.12 L 302.2 44.02 A 52.751 52.751 0 0 1 301.725 44.022 Q 293.839 44.022 288.344 41.633 A 20.709 20.709 0 0 1 284.65 39.57 A 13.496 13.496 0 0 1 279.886 33.308 Q 278.298 29.286 278.298 23.482 A 43.036 43.036 0 0 1 278.3 23.12 A 36.454 36.454 0 0 1 278.861 17.081 Q 280.28 9.42 285.25 6.07 Q 290.731 2.375 299.344 1.681 A 51.738 51.738 0 0 1 303.5 1.52 L 343 1.42 L 343 14.22 Z" id="path-5" style="stroke-width: 0px;" vector-effect="non-scaling-stroke" transform="matrix(1.978023, 0, 0, 1.978023, -24.232025, -10.643021)"/>
  <path d="M 355.2 21.52 L 355.2 21.42 A 36.056 36.056 0 0 1 358.294 14.459 A 27.975 27.975 0 0 1 362.85 8.57 A 25.847 25.847 0 0 1 370.393 3.496 A 34.873 34.873 0 0 1 376.1 1.52 Q 379.1 0.82 382.3 0.42 Q 385.5 0.02 388.7 0.02 Q 392.1 -0.08 395.6 0.32 A 42.787 42.787 0 0 1 401.899 1.509 A 39.456 39.456 0 0 1 402.3 1.62 A 31.822 31.822 0 0 1 409.37 4.261 A 25.344 25.344 0 0 1 415.4 8.62 A 27.78 27.78 0 0 1 421.136 16.866 A 35.737 35.737 0 0 1 422.9 21.52 A 56.541 56.541 0 0 1 424.228 27.634 A 63.677 63.677 0 0 1 424.45 29.12 Q 425 33.12 425 37.12 Q 425 41.42 424.5 45.52 Q 424 49.62 422.9 53.32 Q 420.5 61.42 415.3 66.37 A 25.945 25.945 0 0 1 407.183 71.553 A 34.113 34.113 0 0 1 401.9 73.22 Q 398.7 74.02 395.3 74.37 Q 391.9 74.72 388.4 74.72 Q 385.3 74.72 382.2 74.32 Q 379.1 73.92 376.1 73.22 A 32.161 32.161 0 0 1 368.934 70.664 A 25.466 25.466 0 0 1 362.8 66.37 A 26.551 26.551 0 0 1 357.181 58.517 A 35.047 35.047 0 0 1 355.2 53.32 A 49.922 49.922 0 0 1 354.126 48.711 A 60.529 60.529 0 0 1 353.65 45.72 Q 353.1 41.62 353.1 37.42 Q 353.1 33.22 353.6 29.07 A 44.53 44.53 0 0 1 354.352 24.639 A 35.179 35.179 0 0 1 355.2 21.52 Z M 370.8 26.62 L 370.8 26.52 Q 370.1 29.22 369.8 31.97 Q 369.5 34.72 369.5 37.42 Q 369.5 40.22 369.85 42.97 Q 370.2 45.72 370.8 48.32 A 22.978 22.978 0 0 0 372.679 53.481 A 19.706 19.706 0 0 0 374.45 56.32 A 13.844 13.844 0 0 0 379.301 60.343 A 18.005 18.005 0 0 0 381.6 61.32 A 20.124 20.124 0 0 0 384.846 62.161 A 22.347 22.347 0 0 0 385.2 62.22 Q 387.1 62.52 389 62.52 Q 390.9 62.52 392.8 62.22 A 20.558 20.558 0 0 0 395.972 61.465 A 18.776 18.776 0 0 0 396.4 61.32 A 16.927 16.927 0 0 0 400.387 59.348 A 13.757 13.757 0 0 0 403.6 56.32 A 19.378 19.378 0 0 0 406.769 50.003 A 23.234 23.234 0 0 0 407.2 48.32 Q 407.8 45.72 408.15 42.97 Q 408.5 40.22 408.5 37.42 Q 408.5 34.72 408.15 31.97 Q 407.8 29.22 407.2 26.62 A 21.362 21.362 0 0 0 405.198 21.078 A 19.051 19.051 0 0 0 403.6 18.57 A 13.71 13.71 0 0 0 398.186 14.31 A 17.506 17.506 0 0 0 396.4 13.62 A 20.124 20.124 0 0 0 393.154 12.779 A 22.347 22.347 0 0 0 392.8 12.72 Q 390.9 12.42 389 12.42 Q 387.1 12.42 385.2 12.72 A 20.558 20.558 0 0 0 382.028 13.475 A 18.776 18.776 0 0 0 381.6 13.62 A 16.591 16.591 0 0 0 377.806 15.477 A 13.108 13.108 0 0 0 374.5 18.62 A 22.093 22.093 0 0 0 371.578 24.127 A 26.974 26.974 0 0 0 370.8 26.62 Z" id="path-6" style="stroke-width: 0px;" vector-effect="non-scaling-stroke" transform="matrix(1.978023, 0, 0, 1.978023, -24.232025, -10.643021)"/>
  <path d="M 433.4 44.22 L 433.4 1.42 L 448.5 1.42 L 448.5 40.82 A 82.525 82.525 0 0 0 448.496 41.645 Q 448.496 50.594 450.495 55.627 A 17.058 17.058 0 0 0 450.7 56.12 A 6.884 6.884 0 0 0 453.868 59.401 Q 457.555 61.42 464.9 61.42 L 482.7 61.32 L 482.7 73.22 L 463.6 73.22 A 78.473 78.473 0 0 1 455.432 72.81 A 65.764 65.764 0 0 1 450.85 72.17 A 17.849 17.849 0 0 1 443.533 69.021 A 24.893 24.893 0 0 1 439.9 65.82 A 21.424 21.424 0 0 1 436.017 60.289 A 18.971 18.971 0 0 1 434.5 55.72 Q 433.4 50.12 433.4 44.22 Z" id="path-7" style="stroke-width: 0px;" vector-effect="non-scaling-stroke" transform="matrix(1.978023, 0, 0, 1.978023, -24.232025, -10.643021)"/>
</svg>