<?xml version="1.0" encoding="utf-8"?>
<svg viewBox="21.551 130.148 442.776 68.54" width="442.776" height="68.54" xmlns="http://www.w3.org/2000/svg">
  <path d="M 21.551 131.451 L 39.072 131.451 L 66.04 178.783 L 65.398 131.451 L 79.524 131.451 L 79.524 197.312 L 63.471 197.312 L 35.127 147.503 L 35.769 197.312 L 21.551 197.312 L 21.551 131.451 Z" id="path-1" style="stroke-width: 0px; fill: rgb(0, 24, 138);" vector-effect="non-scaling-stroke"/>
  <path d="M 107.318 143.008 L 86.128 143.008 L 86.128 131.542 L 143 131.542 L 143 143.008 L 121.628 143.008 L 121.628 197.312 L 107.318 197.312 L 107.318 143.008 Z" id="path-2" style="stroke-width: 0px; fill: rgb(0, 24, 138);" vector-effect="non-scaling-stroke"/>
  <path d="M 161.255 158.327 L 199.597 158.235 L 199.597 169.702 L 161.163 169.702 C 161.155 171.922 161.409 174.136 161.919 176.298 C 161.927 176.331 161.934 176.364 161.942 176.398 C 162.412 178.301 163.298 180.076 164.536 181.595 C 164.72 181.825 164.91 182.049 165.107 182.268 C 165.755 183.042 166.52 183.711 167.373 184.251 C 168.212 184.774 169.138 185.143 170.106 185.341 C 172.033 185.739 174.005 185.938 176.023 185.938 L 176.436 185.938 L 176.848 185.938 L 199.597 185.846 L 199.597 197.312 L 176.206 197.312 C 172.81 197.321 169.42 197.024 166.078 196.425 C 165.861 196.386 165.644 196.345 165.428 196.303 C 162.666 195.751 160.039 194.664 157.695 193.102 C 156.993 192.642 156.314 192.149 155.659 191.625 C 151.99 188.628 149.421 184.974 147.954 180.663 C 146.486 176.352 145.691 171.934 145.569 167.408 C 145.528 166.77 145.508 166.131 145.507 165.492 C 145.507 165.183 145.513 164.874 145.523 164.565 C 145.554 163.647 145.599 162.73 145.661 161.813 C 145.83 158.943 146.221 156.091 146.829 153.281 C 148.203 147.121 150.641 142.32 154.146 138.881 C 156.698 136.427 159.774 134.585 163.141 133.493 C 166.956 132.193 171.433 131.542 176.573 131.542 L 199.597 131.451 L 199.597 142.917 L 176.848 142.917 C 175.394 142.924 173.944 143.067 172.516 143.344 C 170.897 143.671 169.462 144.183 168.21 144.88 C 167.195 145.441 166.272 146.156 165.474 146.999 C 164.117 148.465 163.084 150.201 162.441 152.093 C 161.796 153.918 161.4 155.996 161.255 158.327 Z" id="path-3" style="stroke-width: 0px; fill: rgb(0, 24, 138);" vector-effect="non-scaling-stroke"/>
  <path d="M 211.705 131.451 L 245.829 131.451 C 246.501 131.512 247.159 131.542 247.801 131.542 C 248.443 131.542 249.1 131.573 249.773 131.634 C 252.28 131.756 254.742 132.154 257.157 132.826 C 259.573 133.499 261.698 134.753 263.532 136.587 C 265.183 138.177 266.422 140.042 267.247 142.183 C 268.073 144.323 268.577 146.525 268.761 148.787 C 268.761 149.215 268.776 149.643 268.807 150.072 C 268.837 150.5 268.853 150.928 268.853 151.356 C 268.883 153.642 268.636 155.773 268.112 157.747 C 267.603 159.694 266.784 161.547 265.688 163.235 C 264.091 165.661 261.811 167.56 259.136 168.692 C 257.98 169.197 256.78 169.596 255.552 169.885 L 271.971 197.312 L 256.377 197.312 L 241.884 171.444 L 225.556 171.444 L 225.556 197.312 L 211.705 197.312 L 211.705 131.451 Z M 242.526 143.284 L 242.526 143.192 L 225.556 143.192 L 225.556 159.795 L 242.526 159.795 C 242.592 159.828 242.661 159.853 242.733 159.869 C 242.785 159.881 242.839 159.886 242.893 159.887 L 243.26 159.887 C 244.839 159.893 246.414 159.752 247.967 159.465 C 249.097 159.255 250.207 158.951 251.286 158.556 C 252.735 158.029 253.852 156.852 254.303 155.377 C 254.647 154.393 254.82 153.206 254.82 151.817 C 254.82 151.724 254.819 151.632 254.818 151.539 C 254.824 150.728 254.759 149.919 254.623 149.119 C 254.47 148.267 254.227 147.525 253.895 146.892 C 253.308 145.724 252.264 144.85 251.011 144.476 C 249.394 143.977 247.731 143.638 246.048 143.465 C 244.878 143.342 243.703 143.281 242.526 143.284 Z" id="path-4" style="stroke-width: 0px; fill: rgb(0, 24, 138);" vector-effect="non-scaling-stroke"/>
  <path d="M 336.182 143.192 L 301.967 143.192 C 299.22 143.248 296.872 143.779 294.922 144.785 C 294.745 144.876 294.571 144.972 294.399 145.072 C 293.199 145.78 292.301 146.903 291.873 148.229 C 291.628 148.923 291.466 149.704 291.385 150.571 C 291.345 151.015 291.325 151.461 291.326 151.906 C 291.32 152.611 291.397 153.313 291.556 153.999 C 291.859 155.411 292.718 156.641 293.94 157.41 C 295.308 158.264 296.851 158.798 298.454 158.97 C 298.981 159.031 299.51 159.062 300.04 159.061 L 318.386 158.969 C 318.907 159.016 319.429 159.045 319.951 159.055 C 320.133 159.059 320.314 159.061 320.496 159.061 C 321.23 159.061 321.964 159.092 322.697 159.153 C 324.838 159.275 326.948 159.627 329.027 160.208 C 331.106 160.789 332.941 161.843 334.53 163.372 C 335.998 164.718 337.099 166.338 337.833 168.234 C 338.567 170.13 339.025 172.086 339.209 174.104 C 339.268 174.69 339.313 175.278 339.344 175.866 C 339.345 175.875 339.346 175.884 339.346 175.893 C 339.377 176.474 339.392 177.07 339.392 177.682 C 339.375 179.499 339.211 181.312 338.901 183.103 C 338.562 184.988 338.049 186.659 337.362 188.113 C 336.431 190.184 334.942 191.956 333.063 193.23 C 329.83 195.377 325.683 196.677 320.623 197.13 C 319.208 197.254 317.788 197.315 316.368 197.312 L 279.493 197.312 L 279.493 185.571 L 314.167 185.571 C 314.335 185.574 314.504 185.576 314.672 185.576 C 317.517 185.576 319.993 185.085 322.101 184.103 C 324.176 183.137 325.102 181.034 324.878 177.796 C 324.86 177.543 324.837 177.291 324.807 177.04 C 324.742 176.381 324.618 175.73 324.436 175.094 C 324.235 174.416 323.97 173.831 323.64 173.34 C 323.151 172.594 322.435 172.025 321.597 171.72 C 320.654 171.379 319.683 171.124 318.694 170.957 C 317.754 170.793 316.751 170.688 315.684 170.64 C 315.484 170.631 315.284 170.624 315.084 170.619 L 298.756 170.527 C 298.611 170.528 298.466 170.529 298.32 170.529 C 293.498 170.529 289.407 169.798 286.046 168.337 C 284.855 167.824 283.72 167.19 282.658 166.445 C 280.663 165.007 279.142 163.007 278.288 160.701 C 277.317 158.242 276.831 155.237 276.831 151.688 C 276.831 151.577 276.832 151.466 276.833 151.356 C 276.85 149.498 277.022 147.645 277.348 145.816 C 278.215 141.131 280.169 137.765 283.208 135.716 C 286.56 133.456 290.869 132.114 296.136 131.69 C 297.405 131.59 298.676 131.54 299.949 131.542 L 336.182 131.451 L 336.182 143.192 Z" id="path-5" style="stroke-width: 0px; fill: rgb(255, 102, 0);" vector-effect="non-scaling-stroke"/>
  <path d="M 347.373 149.888 L 347.373 149.796 C 348.09 147.574 349.042 145.433 350.211 143.411 C 351.357 141.432 352.762 139.616 354.39 138.009 C 356.403 136.061 358.746 134.485 361.309 133.355 C 362.998 132.6 364.75 131.994 366.544 131.542 C 368.378 131.114 370.274 130.778 372.231 130.533 C 374.188 130.289 376.145 130.166 378.102 130.166 C 380.181 130.105 382.291 130.197 384.431 130.442 C 386.382 130.66 388.313 131.025 390.209 131.532 C 390.332 131.565 390.454 131.599 390.577 131.634 C 392.827 132.181 395.004 132.995 397.062 134.057 C 399.093 135.11 400.956 136.457 402.593 138.055 C 404.792 140.236 406.575 142.799 407.855 145.619 C 408.493 147.003 409.034 148.429 409.473 149.888 C 409.982 151.734 410.389 153.606 410.691 155.496 C 410.764 155.95 410.832 156.404 410.895 156.859 C 411.231 159.306 411.399 161.752 411.399 164.198 C 411.399 166.827 411.246 169.396 410.941 171.903 C 410.635 174.41 410.146 176.795 409.473 179.058 C 408.005 184.011 405.682 188.001 402.502 191.028 C 400.338 193.064 397.813 194.677 395.056 195.783 C 393.485 196.423 391.864 196.934 390.21 197.312 C 388.253 197.801 386.235 198.153 384.156 198.367 C 382.077 198.581 379.967 198.688 377.827 198.688 C 375.931 198.688 374.035 198.566 372.139 198.321 C 370.244 198.076 368.378 197.74 366.544 197.312 C 364.268 196.793 362.061 196.006 359.971 194.967 C 357.911 193.939 356.015 192.611 354.344 191.028 C 352.2 188.963 350.453 186.521 349.19 183.825 C 348.459 182.287 347.851 180.693 347.373 179.058 C 346.978 177.665 346.649 176.254 346.387 174.83 C 346.219 173.919 346.073 173.004 345.951 172.086 C 345.614 169.579 345.446 167.041 345.446 164.473 C 345.446 161.905 345.599 159.351 345.905 156.814 C 346.066 155.448 346.296 154.091 346.595 152.749 C 346.81 151.784 347.07 150.829 347.373 149.888 Z M 361.682 154.566 L 361.682 154.474 C 361.254 156.126 360.948 157.792 360.765 159.474 C 360.582 161.155 360.49 162.822 360.49 164.473 C 360.49 166.185 360.597 167.882 360.811 169.564 C 361.025 171.246 361.315 172.881 361.682 174.471 C 362.065 176.113 362.644 177.702 363.406 179.206 C 363.873 180.118 364.416 180.989 365.03 181.81 C 366.21 183.366 367.733 184.628 369.48 185.5 C 370.162 185.847 370.866 186.147 371.589 186.396 C 372.558 186.736 373.554 186.994 374.567 187.168 C 374.675 187.187 374.783 187.205 374.891 187.222 C 376.053 187.405 377.215 187.497 378.377 187.497 C 379.539 187.497 380.701 187.405 381.863 187.222 C 382.849 187.068 383.822 186.837 384.772 186.529 C 384.904 186.486 385.035 186.442 385.165 186.396 C 386.458 185.957 387.688 185.348 388.822 184.587 C 389.948 183.826 390.943 182.888 391.769 181.81 C 393.085 180.073 394.071 178.109 394.676 176.015 C 394.827 175.506 394.959 174.991 395.072 174.471 C 395.439 172.881 395.729 171.246 395.943 169.564 C 396.157 167.882 396.264 166.185 396.264 164.473 C 396.264 162.822 396.157 161.155 395.943 159.474 C 395.729 157.792 395.439 156.156 395.072 154.566 C 394.697 152.795 394.079 151.084 393.235 149.483 C 392.807 148.679 392.317 147.91 391.769 147.182 C 390.474 145.478 388.764 144.133 386.803 143.274 C 386.269 143.034 385.722 142.822 385.165 142.641 C 384.196 142.302 383.2 142.044 382.187 141.87 C 382.079 141.851 381.971 141.833 381.863 141.816 C 380.701 141.632 379.539 141.541 378.377 141.541 C 377.215 141.541 376.053 141.632 374.891 141.816 C 373.905 141.969 372.932 142.201 371.982 142.508 C 371.85 142.551 371.719 142.596 371.589 142.641 C 370.361 143.059 369.192 143.631 368.109 144.345 C 366.937 145.121 365.911 146.097 365.076 147.228 C 363.949 148.777 363.046 150.477 362.396 152.279 C 362.121 153.03 361.883 153.793 361.682 154.566 Z" id="path-6" style="stroke-width: 0px; fill: rgb(255, 102, 0);" vector-effect="non-scaling-stroke"/>
  <path d="M 419.105 170.711 L 419.105 131.451 L 432.956 131.451 L 432.956 167.592 C 432.953 167.844 432.952 168.096 432.952 168.349 C 432.952 173.821 433.563 178.096 434.786 181.174 C 434.846 181.326 434.909 181.477 434.974 181.626 C 435.572 182.931 436.597 183.992 437.88 184.636 C 440.134 185.871 443.508 186.488 447.999 186.488 L 464.327 186.396 L 464.327 197.312 L 446.807 197.312 C 444.304 197.317 441.804 197.191 439.314 196.936 C 437.907 196.79 436.505 196.594 435.111 196.349 C 432.685 195.904 430.391 194.916 428.399 193.46 C 427.196 192.592 426.08 191.609 425.067 190.524 C 423.619 189.032 422.417 187.319 421.505 185.45 C 420.865 184.118 420.398 182.71 420.114 181.259 C 419.441 177.835 419.105 174.319 419.105 170.711 Z" id="path-7" style="stroke-width: 0px; fill: rgb(255, 102, 0);" vector-effect="non-scaling-stroke"/>
</svg>