<?xml version="1.0" standalone="no"?>
<!DOCTYPE svg PUBLIC "-//W3C//DTD SVG 20010904//EN"
 "http://www.w3.org/TR/2001/REC-SVG-20010904/DTD/svg10.dtd">
<svg version="1.0" xmlns="http://www.w3.org/2000/svg"
 width="1528.000000pt" height="1528.000000pt" viewBox="0 0 1528.000000 1528.000000"
 preserveAspectRatio="xMidYMid meet">
<metadata>
Created by potrace 1.14, written by Peter Selinger 2001-2017
</metadata>
<g transform="translate(0.000000,1528.000000) scale(0.100000,-0.100000)"
fill="#000000" stroke="none">
<path d="M2660 9590 l0 -5690 1227 0 1226 0 -7 613 c-3 336 -13 1121 -21 1742
-48 3711 -75 5968 -73 6092 l3 141 755 -1326 c415 -730 822 -1446 905 -1592
83 -146 259 -454 390 -685 131 -231 323 -568 425 -748 l187 -328 7 328 c3 180
13 1057 22 1948 l17 1620 -878 1540 c-483 847 -941 1651 -1018 1788 l-140 247
-1514 0 -1513 0 0 -5690z"/>
<path d="M10200 11253 c0 -65 11 -930 25 -1923 73 -5293 84 -6115 77 -6122 -5
-5 -57 79 -117 184 -60 106 -186 328 -280 493 -95 165 -342 599 -550 965 -345
606 -772 1357 -1310 2300 -111 195 -236 415 -277 488 l-75 133 -7 -318 c-3
-175 -13 -1045 -23 -1934 l-16 -1616 83 -149 c46 -82 154 -273 240 -424 87
-151 346 -606 575 -1010 230 -404 501 -881 603 -1060 102 -179 256 -451 344
-605 88 -154 207 -364 266 -467 l107 -188 1383 0 1382 0 0 5685 0 5685 -1215
0 -1215 0 0 -117z"/>
</g>
</svg>
