<?xml version="1.0" encoding="UTF-8" standalone="no"?>
<!DOCTYPE svg PUBLIC "-//W3C//DTD SVG 1.1//EN"
 "http://www.w3.org/Graphics/SVG/1.1/DTD/svg11.dtd">
<!-- Generated by graphviz version 2.40.1 (20161225.0304)
 -->
<!-- Title: dependencies Pages: 1 -->
<svg width="504pt" height="211pt"
 viewBox="0.00 0.00 504.00 211.00" xmlns="http://www.w3.org/2000/svg" xmlns:xlink="http://www.w3.org/1999/xlink">
<g id="graph0" class="graph" transform="scale(1 1) rotate(0) translate(4 207)">
<title>dependencies</title>
<polygon fill="#ffffff" stroke="transparent" points="-4,4 -4,-207 500,-207 500,4 -4,4"/>
<text text-anchor="start" x="227.0091" y="-42.4" font-family="sans-serif" font-weight="bold" font-size="14.00" fill="#000000">Legend</text>
<polygon fill="#ffffb3" stroke="transparent" points="14,-10 14,-30 34,-30 34,-10 14,-10"/>
<text text-anchor="start" x="37.629" y="-15.4" font-family="sans-serif" font-size="14.00" fill="#000000"> &#160;Declarations</text>
<polygon fill="#8dd3c7" stroke="transparent" points="127,-10 127,-30 147,-30 147,-10 127,-10"/>
<text text-anchor="start" x="150.7251" y="-15.4" font-family="sans-serif" font-size="14.00" fill="#000000"> &#160;Module</text>
<polygon fill="#80b1d3" stroke="transparent" points="213,-10 213,-30 233,-30 233,-10 213,-10"/>
<text text-anchor="start" x="236.7812" y="-15.4" font-family="sans-serif" font-size="14.00" fill="#000000"> &#160;Bootstrap</text>
<polygon fill="#fdb462" stroke="transparent" points="310,-10 310,-30 330,-30 330,-10 310,-10"/>
<text text-anchor="start" x="333.6732" y="-15.4" font-family="sans-serif" font-size="14.00" fill="#000000"> &#160;Providers</text>
<polygon fill="#fb8072" stroke="transparent" points="406,-10 406,-30 426,-30 426,-10 406,-10"/>
<text text-anchor="start" x="429.7258" y="-15.4" font-family="sans-serif" font-size="14.00" fill="#000000"> &#160;Exports</text>
<g id="clust1" class="cluster">
<title>cluster_HomeModule</title>
<polygon fill="none" stroke="#000000" stroke-dasharray="1,5" points="69.5,-70 69.5,-195 426.5,-195 426.5,-70 69.5,-70"/>
</g>
<g id="clust2" class="cluster">
<title>cluster_HomeModule_declarations</title>
<polygon fill="none" stroke="#000000" points="286.5,-78 286.5,-130 418.5,-130 418.5,-78 286.5,-78"/>
</g>
<g id="clust4" class="cluster">
<title>cluster_HomeModule_imports</title>
<polygon fill="none" stroke="#000000" points="77.5,-78 77.5,-130 278.5,-130 278.5,-78 77.5,-78"/>
</g>
<!-- HomeComponent -->
<g id="node1" class="node">
<title>HomeComponent</title>
<polygon fill="#ffffb3" stroke="#000000" points="410.0451,-122 294.9549,-122 294.9549,-86 410.0451,-86 410.0451,-122"/>
<text text-anchor="middle" x="352.5" y="-99.8" font-family="Times,serif" font-size="14.00" fill="#000000">HomeComponent</text>
</g>
<!-- HomeModule -->
<g id="node2" class="node">
<title>HomeModule</title>
<polygon fill="#8dd3c7" stroke="#000000" points="274.2619,-187 271.2619,-191 250.2619,-191 247.2619,-187 180.7381,-187 180.7381,-151 274.2619,-151 274.2619,-187"/>
<text text-anchor="middle" x="227.5" y="-164.8" font-family="Times,serif" font-size="14.00" fill="#000000">HomeModule</text>
</g>
<!-- HomeComponent&#45;&gt;HomeModule -->
<g id="edge1" class="edge">
<title>HomeComponent&#45;&gt;HomeModule</title>
<path fill="none" stroke="#000000" d="M352.5,-122.1061C352.5,-141.3391 352.5,-169 352.5,-169 352.5,-169 284.401,-169 284.401,-169"/>
<polygon fill="#000000" stroke="#000000" points="284.4011,-165.5001 274.401,-169 284.401,-172.5001 284.4011,-165.5001"/>
</g>
<!-- GridModule -->
<g id="node3" class="node">
<title>GridModule</title>
<polygon fill="#8dd3c7" stroke="#000000" points="270.2079,-122 267.2079,-126 246.2079,-126 243.2079,-122 184.7921,-122 184.7921,-86 270.2079,-86 270.2079,-122"/>
<text text-anchor="middle" x="227.5" y="-99.8" font-family="Times,serif" font-size="14.00" fill="#000000">GridModule</text>
</g>
<!-- GridModule&#45;&gt;HomeModule -->
<g id="edge2" class="edge">
<title>GridModule&#45;&gt;HomeModule</title>
<path fill="none" stroke="#000000" d="M227.5,-122.1061C227.5,-122.1061 227.5,-140.991 227.5,-140.991"/>
<polygon fill="#000000" stroke="#000000" points="224.0001,-140.9909 227.5,-150.991 231.0001,-140.991 224.0001,-140.9909"/>
</g>
<!-- SiteModule -->
<g id="node4" class="node">
<title>SiteModule</title>
<polygon fill="#8dd3c7" stroke="#000000" points="167.3289,-122 164.3289,-126 143.3289,-126 140.3289,-122 85.6711,-122 85.6711,-86 167.3289,-86 167.3289,-122"/>
<text text-anchor="middle" x="126.5" y="-99.8" font-family="Times,serif" font-size="14.00" fill="#000000">SiteModule</text>
</g>
<!-- SiteModule&#45;&gt;HomeModule -->
<g id="edge3" class="edge">
<title>SiteModule&#45;&gt;HomeModule</title>
<path fill="none" stroke="#000000" d="M126.5,-122.1061C126.5,-141.3391 126.5,-169 126.5,-169 126.5,-169 170.5482,-169 170.5482,-169"/>
<polygon fill="#000000" stroke="#000000" points="170.5482,-172.5001 180.5482,-169 170.5481,-165.5001 170.5482,-172.5001"/>
</g>
</g>
</svg>
