<?xml version="1.0" encoding="UTF-8" standalone="no"?>
<!DOCTYPE svg PUBLIC "-//W3C//DTD SVG 1.1//EN"
 "http://www.w3.org/Graphics/SVG/1.1/DTD/svg11.dtd">
<!-- Generated by graphviz version 2.47.3 (20210619.1520)
 -->
<!-- Title: dependencies Pages: 1 -->
<svg width="1107pt" height="174pt"
 viewBox="0.00 0.00 1107.00 173.80" xmlns="http://www.w3.org/2000/svg" xmlns:xlink="http://www.w3.org/1999/xlink">
<g id="graph0" class="graph" transform="scale(1 1) rotate(0) translate(4 169.8)">
<title>dependencies</title>
<polygon fill="white" stroke="transparent" points="-4,4 -4,-169.8 1103,-169.8 1103,4 -4,4"/>
<text text-anchor="middle" x="549.5" y="-8.2" font-family="sans-serif" font-size="14.00">dependencies</text>
<g id="clust1" class="cluster">
<title>cluster_HomeModule</title>
<polygon fill="none" stroke="black" stroke-dasharray="1,5" points="8,-32.8 8,-157.8 1091,-157.8 1091,-32.8 8,-32.8"/>
</g>
<g id="clust4" class="cluster">
<title>cluster_HomeModule_imports</title>
<polygon fill="none" stroke="black" points="985,-40.8 985,-92.8 1083,-92.8 1083,-40.8 985,-40.8"/>
</g>
<g id="clust7" class="cluster">
<title>cluster_HomeModule_providers</title>
<polygon fill="none" stroke="black" points="156,-40.8 156,-92.8 977,-92.8 977,-40.8 156,-40.8"/>
</g>
<g id="clust2" class="cluster">
<title>cluster_HomeModule_declarations</title>
<polygon fill="none" stroke="black" points="16,-40.8 16,-92.8 148,-92.8 148,-40.8 16,-40.8"/>
</g>
<!-- HomeComponent -->
<g id="node1" class="node">
<title>HomeComponent</title>
<polygon fill="#ffffb3" stroke="black" points="139.55,-84.8 24.45,-84.8 24.45,-48.8 139.55,-48.8 139.55,-84.8"/>
<text text-anchor="middle" x="82" y="-62.6" font-family="Times,serif" font-size="14.00">HomeComponent</text>
</g>
<!-- HomeModule -->
<g id="node2" class="node">
<title>HomeModule</title>
<polygon fill="#8dd3c7" stroke="black" points="584.76,-149.8 581.76,-153.8 560.76,-153.8 557.76,-149.8 491.24,-149.8 491.24,-113.8 584.76,-113.8 584.76,-149.8"/>
<text text-anchor="middle" x="538" y="-127.6" font-family="Times,serif" font-size="14.00">HomeModule</text>
</g>
<!-- HomeComponent&#45;&gt;HomeModule -->
<g id="edge1" class="edge">
<title>HomeComponent&#45;&gt;HomeModule</title>
<path fill="none" stroke="black" d="M82,-85.08C82,-106.12 82,-137.8 82,-137.8 82,-137.8 480.92,-137.8 480.92,-137.8"/>
<polygon fill="black" stroke="black" points="480.92,-141.3 490.92,-137.8 480.92,-134.3 480.92,-141.3"/>
</g>
<!-- SiteModule -->
<g id="node3" class="node">
<title>SiteModule</title>
<polygon fill="#8dd3c7" stroke="black" points="1074.83,-84.8 1071.83,-88.8 1050.83,-88.8 1047.83,-84.8 993.17,-84.8 993.17,-48.8 1074.83,-48.8 1074.83,-84.8"/>
<text text-anchor="middle" x="1034" y="-62.6" font-family="Times,serif" font-size="14.00">SiteModule</text>
</g>
<!-- SiteModule&#45;&gt;HomeModule -->
<g id="edge2" class="edge">
<title>SiteModule&#45;&gt;HomeModule</title>
<path fill="none" stroke="black" d="M1034,-85.08C1034,-106.12 1034,-137.8 1034,-137.8 1034,-137.8 595.11,-137.8 595.11,-137.8"/>
<polygon fill="black" stroke="black" points="595.11,-134.3 585.11,-137.8 595.11,-141.3 595.11,-134.3"/>
</g>
<!-- RouteDomainStateService -->
<g id="node4" class="node">
<title>RouteDomainStateService</title>
<ellipse fill="#fdb462" stroke="black" cx="856" cy="-66.8" rx="113.46" ry="18"/>
<text text-anchor="middle" x="856" y="-62.6" font-family="Times,serif" font-size="14.00">RouteDomainStateService</text>
</g>
<!-- RouteDomainStateService&#45;&gt;HomeModule -->
<g id="edge3" class="edge">
<title>RouteDomainStateService&#45;&gt;HomeModule</title>
<path fill="none" stroke="black" d="M856,-84.82C856,-102.17 856,-125.8 856,-125.8 856,-125.8 594.92,-125.8 594.92,-125.8"/>
<polygon fill="black" stroke="black" points="594.92,-122.3 584.92,-125.8 594.92,-129.3 594.92,-122.3"/>
</g>
<!-- RouteUiStateQuery -->
<g id="node5" class="node">
<title>RouteUiStateQuery</title>
<ellipse fill="#fdb462" stroke="black" cx="637" cy="-66.8" rx="87.4" ry="18"/>
<text text-anchor="middle" x="637" y="-62.6" font-family="Times,serif" font-size="14.00">RouteUiStateQuery</text>
</g>
<!-- RouteUiStateQuery&#45;&gt;HomeModule -->
<g id="edge4" class="edge">
<title>RouteUiStateQuery&#45;&gt;HomeModule</title>
<path fill="none" stroke="black" d="M567.34,-77.83C567.34,-77.83 567.34,-103.58 567.34,-103.58"/>
<polygon fill="black" stroke="black" points="563.84,-103.58 567.34,-113.58 570.84,-103.58 563.84,-103.58"/>
</g>
<!-- RouteUiStateService -->
<g id="node6" class="node">
<title>RouteUiStateService</title>
<ellipse fill="#fdb462" stroke="black" cx="440" cy="-66.8" rx="92.05" ry="18"/>
<text text-anchor="middle" x="440" y="-62.6" font-family="Times,serif" font-size="14.00">RouteUiStateService</text>
</g>
<!-- RouteUiStateService&#45;&gt;HomeModule -->
<g id="edge5" class="edge">
<title>RouteUiStateService&#45;&gt;HomeModule</title>
<path fill="none" stroke="black" d="M511.57,-78.12C511.57,-78.12 511.57,-103.74 511.57,-103.74"/>
<polygon fill="black" stroke="black" points="508.07,-103.74 511.57,-113.74 515.07,-103.74 508.07,-103.74"/>
</g>
<!-- RouteUiStateStore -->
<g id="node7" class="node">
<title>RouteUiStateStore</title>
<ellipse fill="#fdb462" stroke="black" cx="247" cy="-66.8" rx="83.4" ry="18"/>
<text text-anchor="middle" x="247" y="-62.6" font-family="Times,serif" font-size="14.00">RouteUiStateStore</text>
</g>
<!-- RouteUiStateStore&#45;&gt;HomeModule -->
<g id="edge6" class="edge">
<title>RouteUiStateStore&#45;&gt;HomeModule</title>
<path fill="none" stroke="black" d="M247,-84.82C247,-102.17 247,-125.8 247,-125.8 247,-125.8 480.92,-125.8 480.92,-125.8"/>
<polygon fill="black" stroke="black" points="480.92,-129.3 490.92,-125.8 480.92,-122.3 480.92,-129.3"/>
</g>
</g>
</svg>
