<?xml version="1.0" encoding="UTF-8" standalone="no"?>
<!DOCTYPE svg PUBLIC "-//W3C//DTD SVG 1.1//EN"
 "http://www.w3.org/Graphics/SVG/1.1/DTD/svg11.dtd">
<!-- Generated by graphviz version 2.47.3 (20210619.1520)
 -->
<!-- Title: dependencies Pages: 1 -->
<svg width="652pt" height="247pt"
 viewBox="0.00 0.00 652.00 246.80" xmlns="http://www.w3.org/2000/svg" xmlns:xlink="http://www.w3.org/1999/xlink">
<g id="graph0" class="graph" transform="scale(1 1) rotate(0) translate(4 242.8)">
<title>dependencies</title>
<polygon fill="white" stroke="transparent" points="-4,4 -4,-242.8 648,-242.8 648,4 -4,4"/>
<text text-anchor="middle" x="322" y="-8.2" font-family="sans-serif" font-size="14.00">dependencies</text>
<g id="clust1" class="cluster">
<title>cluster_AppModule</title>
<polygon fill="none" stroke="black" stroke-dasharray="1,5" points="8,-32.8 8,-230.8 636,-230.8 636,-32.8 8,-32.8"/>
</g>
<g id="clust2" class="cluster">
<title>cluster_AppModule_declarations</title>
<polygon fill="none" stroke="black" points="346,-40.8 346,-92.8 628,-92.8 628,-40.8 346,-40.8"/>
</g>
<g id="clust5" class="cluster">
<title>cluster_AppModule_imports</title>
<polygon fill="none" stroke="black" points="240,-40.8 240,-92.8 338,-92.8 338,-40.8 240,-40.8"/>
</g>
<g id="clust7" class="cluster">
<title>cluster_AppModule_bootstrap</title>
<polygon fill="none" stroke="black" points="227,-170.8 227,-222.8 351,-222.8 351,-170.8 227,-170.8"/>
</g>
<g id="clust8" class="cluster">
<title>cluster_AppModule_providers</title>
<polygon fill="none" stroke="black" points="16,-40.8 16,-92.8 232,-92.8 232,-40.8 16,-40.8"/>
</g>
<!-- AppComponent -->
<g id="node1" class="node">
<title>AppComponent</title>
<polygon fill="#ffffb3" stroke="black" points="619.94,-84.8 514.06,-84.8 514.06,-48.8 619.94,-48.8 619.94,-84.8"/>
<text text-anchor="middle" x="567" y="-62.6" font-family="Times,serif" font-size="14.00">AppComponent</text>
</g>
<!-- AppModule -->
<g id="node3" class="node">
<title>AppModule</title>
<polygon fill="#8dd3c7" stroke="black" points="330.66,-149.8 327.66,-153.8 306.66,-153.8 303.66,-149.8 247.34,-149.8 247.34,-113.8 330.66,-113.8 330.66,-149.8"/>
<text text-anchor="middle" x="289" y="-127.6" font-family="Times,serif" font-size="14.00">AppModule</text>
</g>
<!-- AppComponent&#45;&gt;AppModule -->
<g id="edge1" class="edge">
<title>AppComponent&#45;&gt;AppModule</title>
<path fill="none" stroke="black" d="M567,-85.08C567,-106.12 567,-137.8 567,-137.8 567,-137.8 340.92,-137.8 340.92,-137.8"/>
<polygon fill="black" stroke="black" points="340.92,-134.3 330.92,-137.8 340.92,-141.3 340.92,-134.3"/>
</g>
<!-- NoContentComponent -->
<g id="node2" class="node">
<title>NoContentComponent</title>
<polygon fill="#ffffb3" stroke="black" points="496.27,-84.8 353.73,-84.8 353.73,-48.8 496.27,-48.8 496.27,-84.8"/>
<text text-anchor="middle" x="425" y="-62.6" font-family="Times,serif" font-size="14.00">NoContentComponent</text>
</g>
<!-- NoContentComponent&#45;&gt;AppModule -->
<g id="edge2" class="edge">
<title>NoContentComponent&#45;&gt;AppModule</title>
<path fill="none" stroke="black" d="M425,-84.82C425,-102.17 425,-125.8 425,-125.8 425,-125.8 340.91,-125.8 340.91,-125.8"/>
<polygon fill="black" stroke="black" points="340.91,-122.3 330.91,-125.8 340.91,-129.3 340.91,-122.3"/>
</g>
<!-- AppComponent  -->
<g id="node5" class="node">
<title>AppComponent </title>
<polygon fill="#80b1d3" stroke="black" points="343.44,-214.8 234.56,-214.8 234.56,-178.8 343.44,-178.8 343.44,-214.8"/>
<text text-anchor="middle" x="289" y="-192.6" font-family="Times,serif" font-size="14.00">AppComponent </text>
</g>
<!-- AppModule&#45;&gt;AppComponent  -->
<g id="edge4" class="edge">
<title>AppModule&#45;&gt;AppComponent </title>
<path fill="none" stroke="black" stroke-dasharray="1,5" d="M289,-149.91C289,-149.91 289,-168.79 289,-168.79"/>
<polygon fill="black" stroke="black" points="285.5,-168.79 289,-178.79 292.5,-168.79 285.5,-168.79"/>
</g>
<!-- SiteModule -->
<g id="node4" class="node">
<title>SiteModule</title>
<polygon fill="#8dd3c7" stroke="black" points="329.83,-84.8 326.83,-88.8 305.83,-88.8 302.83,-84.8 248.17,-84.8 248.17,-48.8 329.83,-48.8 329.83,-84.8"/>
<text text-anchor="middle" x="289" y="-62.6" font-family="Times,serif" font-size="14.00">SiteModule</text>
</g>
<!-- SiteModule&#45;&gt;AppModule -->
<g id="edge3" class="edge">
<title>SiteModule&#45;&gt;AppModule</title>
<path fill="none" stroke="black" d="M289,-84.91C289,-84.91 289,-103.79 289,-103.79"/>
<polygon fill="black" stroke="black" points="285.5,-103.79 289,-113.79 292.5,-103.79 285.5,-103.79"/>
</g>
<!-- HttpInterceptorService -->
<g id="node6" class="node">
<title>HttpInterceptorService</title>
<ellipse fill="#fdb462" stroke="black" cx="124" cy="-66.8" rx="99.53" ry="18"/>
<text text-anchor="middle" x="124" y="-62.6" font-family="Times,serif" font-size="14.00">HttpInterceptorService</text>
</g>
<!-- HttpInterceptorService&#45;&gt;AppModule -->
<g id="edge5" class="edge">
<title>HttpInterceptorService&#45;&gt;AppModule</title>
<path fill="none" stroke="black" d="M157.17,-83.87C157.17,-101.29 157.17,-125.8 157.17,-125.8 157.17,-125.8 237.29,-125.8 237.29,-125.8"/>
<polygon fill="black" stroke="black" points="237.29,-129.3 247.29,-125.8 237.29,-122.3 237.29,-129.3"/>
</g>
<!-- HttpInterceptorService&#45;&gt;AppModule -->
<g id="edge6" class="edge">
<title>HttpInterceptorService&#45;&gt;AppModule</title>
<path fill="none" stroke="black" d="M90.83,-83.99C90.83,-105 90.83,-137.8 90.83,-137.8 90.83,-137.8 236.97,-137.8 236.97,-137.8"/>
<polygon fill="black" stroke="black" points="236.97,-141.3 246.97,-137.8 236.97,-134.3 236.97,-141.3"/>
</g>
</g>
</svg>
