<?xml version="1.0" encoding="UTF-8" standalone="no"?>
<!DOCTYPE svg PUBLIC "-//W3C//DTD SVG 1.1//EN"
 "http://www.w3.org/Graphics/SVG/1.1/DTD/svg11.dtd">
<!-- Generated by graphviz version 2.47.3 (20210619.1520)
 -->
<!-- Title: dependencies Pages: 1 -->
<svg width="564pt" height="247pt"
 viewBox="0.00 0.00 564.00 246.80" xmlns="http://www.w3.org/2000/svg" xmlns:xlink="http://www.w3.org/1999/xlink">
<g id="graph0" class="graph" transform="scale(1 1) rotate(0) translate(4 242.8)">
<title>dependencies</title>
<polygon fill="white" stroke="transparent" points="-4,4 -4,-242.8 560,-242.8 560,4 -4,4"/>
<text text-anchor="middle" x="278" y="-8.2" font-family="sans-serif" font-size="14.00">dependencies</text>
<g id="clust1" class="cluster">
<title>cluster_ComponentsModule</title>
<polygon fill="none" stroke="black" stroke-dasharray="1,5" points="8,-32.8 8,-230.8 548,-230.8 548,-32.8 8,-32.8"/>
</g>
<g id="clust2" class="cluster">
<title>cluster_ComponentsModule_declarations</title>
<polygon fill="none" stroke="black" points="258,-40.8 258,-92.8 540,-92.8 540,-40.8 258,-40.8"/>
</g>
<g id="clust6" class="cluster">
<title>cluster_ComponentsModule_exports</title>
<polygon fill="none" stroke="black" points="108,-170.8 108,-222.8 397,-222.8 397,-170.8 108,-170.8"/>
</g>
<g id="clust5" class="cluster">
<title>cluster_ComponentsModule_imports</title>
<polygon fill="none" stroke="black" points="16,-40.8 16,-92.8 250,-92.8 250,-40.8 16,-40.8"/>
</g>
<!-- AppComponent -->
<g id="node1" class="node">
<title>AppComponent</title>
<polygon fill="#ffffb3" stroke="black" points="531.94,-84.8 426.06,-84.8 426.06,-48.8 531.94,-48.8 531.94,-84.8"/>
<text text-anchor="middle" x="479" y="-62.6" font-family="Times,serif" font-size="14.00">AppComponent</text>
</g>
<!-- ComponentsModule -->
<g id="node3" class="node">
<title>ComponentsModule</title>
<polygon fill="#8dd3c7" stroke="black" points="327.33,-149.8 324.33,-153.8 303.33,-153.8 300.33,-149.8 196.67,-149.8 196.67,-113.8 327.33,-113.8 327.33,-149.8"/>
<text text-anchor="middle" x="262" y="-127.6" font-family="Times,serif" font-size="14.00">ComponentsModule</text>
</g>
<!-- AppComponent&#45;&gt;ComponentsModule -->
<g id="edge1" class="edge">
<title>AppComponent&#45;&gt;ComponentsModule</title>
<path fill="none" stroke="black" d="M479,-84.91C479,-104.14 479,-131.8 479,-131.8 479,-131.8 337.4,-131.8 337.4,-131.8"/>
<polygon fill="black" stroke="black" points="337.4,-128.3 327.4,-131.8 337.4,-135.3 337.4,-128.3"/>
</g>
<!-- NoContentComponent -->
<g id="node2" class="node">
<title>NoContentComponent</title>
<polygon fill="#ffffb3" stroke="black" points="408.27,-84.8 265.73,-84.8 265.73,-48.8 408.27,-48.8 408.27,-84.8"/>
<text text-anchor="middle" x="337" y="-62.6" font-family="Times,serif" font-size="14.00">NoContentComponent</text>
</g>
<!-- NoContentComponent&#45;&gt;ComponentsModule -->
<g id="edge2" class="edge">
<title>NoContentComponent&#45;&gt;ComponentsModule</title>
<path fill="none" stroke="black" d="M296.39,-84.91C296.39,-84.91 296.39,-103.79 296.39,-103.79"/>
<polygon fill="black" stroke="black" points="292.89,-103.79 296.39,-113.79 299.89,-103.79 292.89,-103.79"/>
</g>
<!-- AppComponent  -->
<g id="node6" class="node">
<title>AppComponent </title>
<polygon fill="#fb8072" stroke="black" points="389.44,-214.8 280.56,-214.8 280.56,-178.8 389.44,-178.8 389.44,-214.8"/>
<text text-anchor="middle" x="335" y="-192.6" font-family="Times,serif" font-size="14.00">AppComponent </text>
</g>
<!-- ComponentsModule&#45;&gt;AppComponent  -->
<g id="edge5" class="edge">
<title>ComponentsModule&#45;&gt;AppComponent </title>
<path fill="none" stroke="black" stroke-dasharray="5,2" d="M303.85,-149.91C303.85,-149.91 303.85,-168.79 303.85,-168.79"/>
<polygon fill="black" stroke="black" points="300.35,-168.79 303.85,-178.79 307.35,-168.79 300.35,-168.79"/>
</g>
<!-- NoContentComponent  -->
<g id="node7" class="node">
<title>NoContentComponent </title>
<polygon fill="#fb8072" stroke="black" points="262.27,-214.8 115.73,-214.8 115.73,-178.8 262.27,-178.8 262.27,-214.8"/>
<text text-anchor="middle" x="189" y="-192.6" font-family="Times,serif" font-size="14.00">NoContentComponent </text>
</g>
<!-- ComponentsModule&#45;&gt;NoContentComponent  -->
<g id="edge6" class="edge">
<title>ComponentsModule&#45;&gt;NoContentComponent </title>
<path fill="none" stroke="black" stroke-dasharray="5,2" d="M229.49,-149.91C229.49,-149.91 229.49,-168.79 229.49,-168.79"/>
<polygon fill="black" stroke="black" points="225.99,-168.79 229.49,-178.79 232.99,-168.79 225.99,-168.79"/>
</g>
<!-- SharedModule -->
<g id="node4" class="node">
<title>SharedModule</title>
<polygon fill="#8dd3c7" stroke="black" points="242.42,-84.8 239.42,-88.8 218.42,-88.8 215.42,-84.8 143.58,-84.8 143.58,-48.8 242.42,-48.8 242.42,-84.8"/>
<text text-anchor="middle" x="193" y="-62.6" font-family="Times,serif" font-size="14.00">SharedModule</text>
</g>
<!-- SharedModule&#45;&gt;ComponentsModule -->
<g id="edge3" class="edge">
<title>SharedModule&#45;&gt;ComponentsModule</title>
<path fill="none" stroke="black" d="M219.52,-84.91C219.52,-84.91 219.52,-103.79 219.52,-103.79"/>
<polygon fill="black" stroke="black" points="216.02,-103.79 219.52,-113.79 223.02,-103.79 216.02,-103.79"/>
</g>
<!-- VendorModule -->
<g id="node5" class="node">
<title>VendorModule</title>
<polygon fill="#8dd3c7" stroke="black" points="125.53,-84.8 122.53,-88.8 101.53,-88.8 98.53,-84.8 24.47,-84.8 24.47,-48.8 125.53,-48.8 125.53,-84.8"/>
<text text-anchor="middle" x="75" y="-62.6" font-family="Times,serif" font-size="14.00">VendorModule</text>
</g>
<!-- VendorModule&#45;&gt;ComponentsModule -->
<g id="edge4" class="edge">
<title>VendorModule&#45;&gt;ComponentsModule</title>
<path fill="none" stroke="black" d="M120.82,-84.91C120.82,-104.14 120.82,-131.8 120.82,-131.8 120.82,-131.8 186.78,-131.8 186.78,-131.8"/>
<polygon fill="black" stroke="black" points="186.78,-135.3 196.78,-131.8 186.78,-128.3 186.78,-135.3"/>
</g>
</g>
</svg>
