<?xml version="1.0" encoding="UTF-8" standalone="no"?>
<!DOCTYPE svg PUBLIC "-//W3C//DTD SVG 1.1//EN"
 "http://www.w3.org/Graphics/SVG/1.1/DTD/svg11.dtd">
<!-- Generated by graphviz version 2.47.3 (20210619.1520)
 -->
<!-- Title: dependencies Pages: 1 -->
<svg width="726pt" height="247pt"
 viewBox="0.00 0.00 726.00 246.80" xmlns="http://www.w3.org/2000/svg" xmlns:xlink="http://www.w3.org/1999/xlink">
<g id="graph0" class="graph" transform="scale(1 1) rotate(0) translate(4 242.8)">
<title>dependencies</title>
<polygon fill="white" stroke="transparent" points="-4,4 -4,-242.8 722,-242.8 722,4 -4,4"/>
<text text-anchor="middle" x="359" y="-8.2" font-family="sans-serif" font-size="14.00">dependencies</text>
<g id="clust1" class="cluster">
<title>cluster_NtsFormsModule</title>
<polygon fill="none" stroke="black" stroke-dasharray="1,5" points="8,-32.8 8,-230.8 710,-230.8 710,-32.8 8,-32.8"/>
</g>
<g id="clust6" class="cluster">
<title>cluster_NtsFormsModule_imports</title>
<polygon fill="none" stroke="black" points="576,-40.8 576,-92.8 702,-92.8 702,-40.8 576,-40.8"/>
</g>
<g id="clust2" class="cluster">
<title>cluster_NtsFormsModule_declarations</title>
<polygon fill="none" stroke="black" points="16,-40.8 16,-92.8 568,-92.8 568,-40.8 16,-40.8"/>
</g>
<g id="clust7" class="cluster">
<title>cluster_NtsFormsModule_exports</title>
<polygon fill="none" stroke="black" points="78,-170.8 78,-222.8 640,-222.8 640,-170.8 78,-170.8"/>
</g>
<!-- NtsAutocompleteComponent -->
<g id="node1" class="node">
<title>NtsAutocompleteComponent</title>
<polygon fill="#ffffb3" stroke="black" points="560.09,-84.8 379.91,-84.8 379.91,-48.8 560.09,-48.8 560.09,-84.8"/>
<text text-anchor="middle" x="470" y="-62.6" font-family="Times,serif" font-size="14.00">NtsAutocompleteComponent</text>
</g>
<!-- NtsFormsModule -->
<g id="node4" class="node">
<title>NtsFormsModule</title>
<polygon fill="#8dd3c7" stroke="black" points="406.27,-149.8 403.27,-153.8 382.27,-153.8 379.27,-149.8 291.73,-149.8 291.73,-113.8 406.27,-113.8 406.27,-149.8"/>
<text text-anchor="middle" x="349" y="-127.6" font-family="Times,serif" font-size="14.00">NtsFormsModule</text>
</g>
<!-- NtsAutocompleteComponent&#45;&gt;NtsFormsModule -->
<g id="edge1" class="edge">
<title>NtsAutocompleteComponent&#45;&gt;NtsFormsModule</title>
<path fill="none" stroke="black" d="M393.17,-84.91C393.17,-84.91 393.17,-103.79 393.17,-103.79"/>
<polygon fill="black" stroke="black" points="389.67,-103.79 393.17,-113.79 396.67,-103.79 389.67,-103.79"/>
</g>
<!-- NtsFilterFieldComponent -->
<g id="node2" class="node">
<title>NtsFilterFieldComponent</title>
<polygon fill="#ffffb3" stroke="black" points="361.88,-84.8 202.12,-84.8 202.12,-48.8 361.88,-48.8 361.88,-84.8"/>
<text text-anchor="middle" x="282" y="-62.6" font-family="Times,serif" font-size="14.00">NtsFilterFieldComponent</text>
</g>
<!-- NtsFilterFieldComponent&#45;&gt;NtsFormsModule -->
<g id="edge2" class="edge">
<title>NtsFilterFieldComponent&#45;&gt;NtsFormsModule</title>
<path fill="none" stroke="black" d="M326.78,-84.91C326.78,-84.91 326.78,-103.79 326.78,-103.79"/>
<polygon fill="black" stroke="black" points="323.28,-103.79 326.78,-113.79 330.28,-103.79 323.28,-103.79"/>
</g>
<!-- NtsFormFieldComponent -->
<g id="node3" class="node">
<title>NtsFormFieldComponent</title>
<polygon fill="#ffffb3" stroke="black" points="183.89,-84.8 24.11,-84.8 24.11,-48.8 183.89,-48.8 183.89,-84.8"/>
<text text-anchor="middle" x="104" y="-62.6" font-family="Times,serif" font-size="14.00">NtsFormFieldComponent</text>
</g>
<!-- NtsFormFieldComponent&#45;&gt;NtsFormsModule -->
<g id="edge3" class="edge">
<title>NtsFormFieldComponent&#45;&gt;NtsFormsModule</title>
<path fill="none" stroke="black" d="M135.12,-84.82C135.12,-102.17 135.12,-125.8 135.12,-125.8 135.12,-125.8 281.69,-125.8 281.69,-125.8"/>
<polygon fill="black" stroke="black" points="281.69,-129.3 291.69,-125.8 281.69,-122.3 281.69,-129.3"/>
</g>
<!-- NtsAutocompleteComponent  -->
<g id="node6" class="node">
<title>NtsAutocompleteComponent </title>
<polygon fill="#fb8072" stroke="black" points="631.59,-214.8 448.41,-214.8 448.41,-178.8 631.59,-178.8 631.59,-214.8"/>
<text text-anchor="middle" x="540" y="-192.6" font-family="Times,serif" font-size="14.00">NtsAutocompleteComponent </text>
</g>
<!-- NtsFormsModule&#45;&gt;NtsAutocompleteComponent  -->
<g id="edge5" class="edge">
<title>NtsFormsModule&#45;&gt;NtsAutocompleteComponent </title>
<path fill="none" stroke="black" stroke-dasharray="5,2" d="M406.32,-137.8C450.51,-137.8 504.12,-137.8 504.12,-137.8 504.12,-137.8 504.12,-168.78 504.12,-168.78"/>
<polygon fill="black" stroke="black" points="500.63,-168.78 504.12,-178.78 507.63,-168.78 500.63,-168.78"/>
</g>
<!-- NtsFilterFieldComponent  -->
<g id="node7" class="node">
<title>NtsFilterFieldComponent </title>
<polygon fill="#fb8072" stroke="black" points="430.88,-214.8 267.12,-214.8 267.12,-178.8 430.88,-178.8 430.88,-214.8"/>
<text text-anchor="middle" x="349" y="-192.6" font-family="Times,serif" font-size="14.00">NtsFilterFieldComponent </text>
</g>
<!-- NtsFormsModule&#45;&gt;NtsFilterFieldComponent  -->
<g id="edge6" class="edge">
<title>NtsFormsModule&#45;&gt;NtsFilterFieldComponent </title>
<path fill="none" stroke="black" stroke-dasharray="5,2" d="M349,-149.91C349,-149.91 349,-168.79 349,-168.79"/>
<polygon fill="black" stroke="black" points="345.5,-168.79 349,-178.79 352.5,-168.79 345.5,-168.79"/>
</g>
<!-- NtsFormFieldComponent  -->
<g id="node8" class="node">
<title>NtsFormFieldComponent </title>
<polygon fill="#fb8072" stroke="black" points="249.89,-214.8 86.11,-214.8 86.11,-178.8 249.89,-178.8 249.89,-214.8"/>
<text text-anchor="middle" x="168" y="-192.6" font-family="Times,serif" font-size="14.00">NtsFormFieldComponent </text>
</g>
<!-- NtsFormsModule&#45;&gt;NtsFormFieldComponent  -->
<g id="edge7" class="edge">
<title>NtsFormsModule&#45;&gt;NtsFormFieldComponent </title>
<path fill="none" stroke="black" stroke-dasharray="5,2" d="M291.4,-137.8C259.36,-137.8 225.88,-137.8 225.88,-137.8 225.88,-137.8 225.88,-168.78 225.88,-168.78"/>
<polygon fill="black" stroke="black" points="222.38,-168.78 225.88,-178.78 229.38,-168.78 222.38,-168.78"/>
</g>
<!-- CalendarModule -->
<g id="node5" class="node">
<title>CalendarModule</title>
<polygon fill="#8dd3c7" stroke="black" points="694.08,-84.8 691.08,-88.8 670.08,-88.8 667.08,-84.8 583.92,-84.8 583.92,-48.8 694.08,-48.8 694.08,-84.8"/>
<text text-anchor="middle" x="639" y="-62.6" font-family="Times,serif" font-size="14.00">CalendarModule</text>
</g>
<!-- CalendarModule&#45;&gt;NtsFormsModule -->
<g id="edge4" class="edge">
<title>CalendarModule&#45;&gt;NtsFormsModule</title>
<path fill="none" stroke="black" d="M607.88,-84.82C607.88,-102.17 607.88,-125.8 607.88,-125.8 607.88,-125.8 416.45,-125.8 416.45,-125.8"/>
<polygon fill="black" stroke="black" points="416.45,-122.3 406.45,-125.8 416.45,-129.3 416.45,-122.3"/>
</g>
</g>
</svg>
