<?xml version="1.0" encoding="UTF-8" standalone="no"?>
<!DOCTYPE svg PUBLIC "-//W3C//DTD SVG 1.1//EN"
 "http://www.w3.org/Graphics/SVG/1.1/DTD/svg11.dtd">
<!-- Generated by graphviz version 2.47.3 (20210619.1520)
 -->
<!-- Title: dependencies Pages: 1 -->
<svg width="1329pt" height="247pt"
 viewBox="0.00 0.00 1329.00 246.80" xmlns="http://www.w3.org/2000/svg" xmlns:xlink="http://www.w3.org/1999/xlink">
<g id="graph0" class="graph" transform="scale(1 1) rotate(0) translate(4 242.8)">
<title>dependencies</title>
<polygon fill="white" stroke="transparent" points="-4,4 -4,-242.8 1325,-242.8 1325,4 -4,4"/>
<text text-anchor="middle" x="660.5" y="-8.2" font-family="sans-serif" font-size="14.00">dependencies</text>
<g id="clust1" class="cluster">
<title>cluster_NtsGridModule</title>
<polygon fill="none" stroke="black" stroke-dasharray="1,5" points="8,-32.8 8,-230.8 1313,-230.8 1313,-32.8 8,-32.8"/>
</g>
<g id="clust11" class="cluster">
<title>cluster_NtsGridModule_exports</title>
<polygon fill="none" stroke="black" points="16,-170.8 16,-222.8 1305,-222.8 1305,-170.8 16,-170.8"/>
</g>
<g id="clust2" class="cluster">
<title>cluster_NtsGridModule_declarations</title>
<polygon fill="none" stroke="black" points="29,-40.8 29,-92.8 1292,-92.8 1292,-40.8 29,-40.8"/>
</g>
<!-- GridColumnCellDirective -->
<g id="node1" class="node">
<title>GridColumnCellDirective</title>
<polygon fill="#ffffb3" stroke="black" points="1284.19,-84.8 1121.81,-84.8 1121.81,-48.8 1284.19,-48.8 1284.19,-84.8"/>
<text text-anchor="middle" x="1203" y="-62.6" font-family="Times,serif" font-size="14.00">GridColumnCellDirective</text>
</g>
<!-- NtsGridModule -->
<g id="node8" class="node">
<title>NtsGridModule</title>
<polygon fill="#8dd3c7" stroke="black" points="748.15,-149.8 745.15,-153.8 724.15,-153.8 721.15,-149.8 643.85,-149.8 643.85,-113.8 748.15,-113.8 748.15,-149.8"/>
<text text-anchor="middle" x="696" y="-127.6" font-family="Times,serif" font-size="14.00">NtsGridModule</text>
</g>
<!-- GridColumnCellDirective&#45;&gt;NtsGridModule -->
<g id="edge1" class="edge">
<title>GridColumnCellDirective&#45;&gt;NtsGridModule</title>
<path fill="none" stroke="black" d="M1126.53,-85.02C1126.53,-103.63 1126.53,-129.8 1126.53,-129.8 1126.53,-129.8 758.36,-129.8 758.36,-129.8"/>
<polygon fill="black" stroke="black" points="758.36,-126.3 748.36,-129.8 758.36,-133.3 758.36,-126.3"/>
</g>
<!-- GridColumnDirective -->
<g id="node2" class="node">
<title>GridColumnDirective</title>
<polygon fill="#ffffb3" stroke="black" points="1103.36,-84.8 964.64,-84.8 964.64,-48.8 1103.36,-48.8 1103.36,-84.8"/>
<text text-anchor="middle" x="1034" y="-62.6" font-family="Times,serif" font-size="14.00">GridColumnDirective</text>
</g>
<!-- GridColumnDirective&#45;&gt;NtsGridModule -->
<g id="edge2" class="edge">
<title>GridColumnDirective&#45;&gt;NtsGridModule</title>
<path fill="none" stroke="black" d="M1059.23,-84.83C1059.23,-101.86 1059.23,-124.8 1059.23,-124.8 1059.23,-124.8 758.43,-124.8 758.43,-124.8"/>
<polygon fill="black" stroke="black" points="758.43,-121.3 748.43,-124.8 758.43,-128.3 758.43,-121.3"/>
</g>
<!-- GridColumnHeaderDirective -->
<g id="node3" class="node">
<title>GridColumnHeaderDirective</title>
<polygon fill="#ffffb3" stroke="black" points="946.77,-84.8 767.23,-84.8 767.23,-48.8 946.77,-48.8 946.77,-84.8"/>
<text text-anchor="middle" x="857" y="-62.6" font-family="Times,serif" font-size="14.00">GridColumnHeaderDirective</text>
</g>
<!-- GridColumnHeaderDirective&#45;&gt;NtsGridModule -->
<g id="edge3" class="edge">
<title>GridColumnHeaderDirective&#45;&gt;NtsGridModule</title>
<path fill="none" stroke="black" d="M887.63,-85.04C887.63,-100.37 887.63,-119.8 887.63,-119.8 887.63,-119.8 758.36,-119.8 758.36,-119.8"/>
<polygon fill="black" stroke="black" points="758.36,-116.3 748.36,-119.8 758.36,-123.3 758.36,-116.3"/>
</g>
<!-- GridComponent -->
<g id="node4" class="node">
<title>GridComponent</title>
<polygon fill="#ffffb3" stroke="black" points="749.49,-84.8 642.51,-84.8 642.51,-48.8 749.49,-48.8 749.49,-84.8"/>
<text text-anchor="middle" x="696" y="-62.6" font-family="Times,serif" font-size="14.00">GridComponent</text>
</g>
<!-- GridComponent&#45;&gt;NtsGridModule -->
<g id="edge4" class="edge">
<title>GridComponent&#45;&gt;NtsGridModule</title>
<path fill="none" stroke="black" d="M696,-84.91C696,-84.91 696,-103.79 696,-103.79"/>
<polygon fill="black" stroke="black" points="692.5,-103.79 696,-113.79 699.5,-103.79 692.5,-103.79"/>
</g>
<!-- GridRowExpansionDirective -->
<g id="node5" class="node">
<title>GridRowExpansionDirective</title>
<polygon fill="#ffffb3" stroke="black" points="624.79,-84.8 445.21,-84.8 445.21,-48.8 624.79,-48.8 624.79,-84.8"/>
<text text-anchor="middle" x="535" y="-62.6" font-family="Times,serif" font-size="14.00">GridRowExpansionDirective</text>
</g>
<!-- GridRowExpansionDirective&#45;&gt;NtsGridModule -->
<g id="edge5" class="edge">
<title>GridRowExpansionDirective&#45;&gt;NtsGridModule</title>
<path fill="none" stroke="black" d="M563.38,-85.04C563.38,-100.37 563.38,-119.8 563.38,-119.8 563.38,-119.8 633.59,-119.8 633.59,-119.8"/>
<polygon fill="black" stroke="black" points="633.59,-123.3 643.59,-119.8 633.59,-116.3 633.59,-123.3"/>
</g>
<!-- GridStatusBarComponent -->
<g id="node6" class="node">
<title>GridStatusBarComponent</title>
<polygon fill="#ffffb3" stroke="black" points="427.93,-84.8 266.07,-84.8 266.07,-48.8 427.93,-48.8 427.93,-84.8"/>
<text text-anchor="middle" x="347" y="-62.6" font-family="Times,serif" font-size="14.00">GridStatusBarComponent</text>
</g>
<!-- GridStatusBarComponent&#45;&gt;NtsGridModule -->
<g id="edge6" class="edge">
<title>GridStatusBarComponent&#45;&gt;NtsGridModule</title>
<path fill="none" stroke="black" d="M369.74,-84.83C369.74,-101.86 369.74,-124.8 369.74,-124.8 369.74,-124.8 633.58,-124.8 633.58,-124.8"/>
<polygon fill="black" stroke="black" points="633.58,-128.3 643.58,-124.8 633.58,-121.3 633.58,-128.3"/>
</g>
<!-- GridTemplateRendererComponent -->
<g id="node7" class="node">
<title>GridTemplateRendererComponent</title>
<polygon fill="#ffffb3" stroke="black" points="248.66,-84.8 37.34,-84.8 37.34,-48.8 248.66,-48.8 248.66,-84.8"/>
<text text-anchor="middle" x="143" y="-62.6" font-family="Times,serif" font-size="14.00">GridTemplateRendererComponent</text>
</g>
<!-- GridTemplateRendererComponent&#45;&gt;NtsGridModule -->
<g id="edge7" class="edge">
<title>GridTemplateRendererComponent&#45;&gt;NtsGridModule</title>
<path fill="none" stroke="black" d="M243.46,-85.02C243.46,-103.63 243.46,-129.8 243.46,-129.8 243.46,-129.8 633.65,-129.8 633.65,-129.8"/>
<polygon fill="black" stroke="black" points="633.65,-133.3 643.65,-129.8 633.65,-126.3 633.65,-133.3"/>
</g>
<!-- GridColumnCellDirective  -->
<g id="node9" class="node">
<title>GridColumnCellDirective </title>
<polygon fill="#fb8072" stroke="black" points="1296.69,-214.8 1131.31,-214.8 1131.31,-178.8 1296.69,-178.8 1296.69,-214.8"/>
<text text-anchor="middle" x="1214" y="-192.6" font-family="Times,serif" font-size="14.00">GridColumnCellDirective </text>
</g>
<!-- NtsGridModule&#45;&gt;GridColumnCellDirective  -->
<g id="edge8" class="edge">
<title>NtsGridModule&#45;&gt;GridColumnCellDirective </title>
<path fill="none" stroke="black" stroke-dasharray="5,2" d="M748.35,-134.8C878.74,-134.8 1207.62,-134.8 1207.62,-134.8 1207.62,-134.8 1207.62,-168.53 1207.62,-168.53"/>
<polygon fill="black" stroke="black" points="1204.13,-168.53 1207.62,-178.53 1211.13,-168.53 1204.13,-168.53"/>
</g>
<!-- GridColumnDirective  -->
<g id="node10" class="node">
<title>GridColumnDirective </title>
<polygon fill="#fb8072" stroke="black" points="1113.36,-214.8 970.64,-214.8 970.64,-178.8 1113.36,-178.8 1113.36,-214.8"/>
<text text-anchor="middle" x="1042" y="-192.6" font-family="Times,serif" font-size="14.00">GridColumnDirective </text>
</g>
<!-- NtsGridModule&#45;&gt;GridColumnDirective  -->
<g id="edge9" class="edge">
<title>NtsGridModule&#45;&gt;GridColumnDirective </title>
<path fill="none" stroke="black" stroke-dasharray="5,2" d="M748.32,-139.8C838.83,-139.8 1015.02,-139.8 1015.02,-139.8 1015.02,-139.8 1015.02,-168.76 1015.02,-168.76"/>
<polygon fill="black" stroke="black" points="1011.52,-168.76 1015.02,-178.76 1018.52,-168.76 1011.52,-168.76"/>
</g>
<!-- GridColumnHeaderDirective  -->
<g id="node11" class="node">
<title>GridColumnHeaderDirective </title>
<polygon fill="#fb8072" stroke="black" points="952.27,-214.8 769.73,-214.8 769.73,-178.8 952.27,-178.8 952.27,-214.8"/>
<text text-anchor="middle" x="861" y="-192.6" font-family="Times,serif" font-size="14.00">GridColumnHeaderDirective </text>
</g>
<!-- NtsGridModule&#45;&gt;GridColumnHeaderDirective  -->
<g id="edge10" class="edge">
<title>NtsGridModule&#45;&gt;GridColumnHeaderDirective </title>
<path fill="none" stroke="black" stroke-dasharray="5,2" d="M748.42,-144.8C785.49,-144.8 828.62,-144.8 828.62,-144.8 828.62,-144.8 828.62,-168.61 828.62,-168.61"/>
<polygon fill="black" stroke="black" points="825.12,-168.61 828.62,-178.61 832.12,-168.61 825.12,-168.61"/>
</g>
<!-- GridComponent  -->
<g id="node12" class="node">
<title>GridComponent </title>
<polygon fill="#fb8072" stroke="black" points="751.49,-214.8 640.51,-214.8 640.51,-178.8 751.49,-178.8 751.49,-214.8"/>
<text text-anchor="middle" x="696" y="-192.6" font-family="Times,serif" font-size="14.00">GridComponent </text>
</g>
<!-- NtsGridModule&#45;&gt;GridComponent  -->
<g id="edge11" class="edge">
<title>NtsGridModule&#45;&gt;GridComponent </title>
<path fill="none" stroke="black" stroke-dasharray="5,2" d="M696,-149.91C696,-149.91 696,-168.79 696,-168.79"/>
<polygon fill="black" stroke="black" points="692.5,-168.79 696,-178.79 699.5,-168.79 692.5,-168.79"/>
</g>
<!-- GridRowExpansionDirective  -->
<g id="node13" class="node">
<title>GridRowExpansionDirective </title>
<polygon fill="#fb8072" stroke="black" points="622.29,-214.8 439.71,-214.8 439.71,-178.8 622.29,-178.8 622.29,-214.8"/>
<text text-anchor="middle" x="531" y="-192.6" font-family="Times,serif" font-size="14.00">GridRowExpansionDirective </text>
</g>
<!-- NtsGridModule&#45;&gt;GridRowExpansionDirective  -->
<g id="edge12" class="edge">
<title>NtsGridModule&#45;&gt;GridRowExpansionDirective </title>
<path fill="none" stroke="black" stroke-dasharray="5,2" d="M643.64,-144.8C586.9,-144.8 504.37,-144.8 504.37,-144.8 504.37,-144.8 504.37,-168.61 504.37,-168.61"/>
<polygon fill="black" stroke="black" points="500.87,-168.61 504.37,-178.61 507.87,-168.61 500.87,-168.61"/>
</g>
<!-- GridStatusBarComponent  -->
<g id="node14" class="node">
<title>GridStatusBarComponent </title>
<polygon fill="#fb8072" stroke="black" points="421.43,-214.8 256.57,-214.8 256.57,-178.8 421.43,-178.8 421.43,-214.8"/>
<text text-anchor="middle" x="339" y="-192.6" font-family="Times,serif" font-size="14.00">GridStatusBarComponent </text>
</g>
<!-- NtsGridModule&#45;&gt;GridStatusBarComponent  -->
<g id="edge13" class="edge">
<title>NtsGridModule&#45;&gt;GridStatusBarComponent </title>
<path fill="none" stroke="black" stroke-dasharray="5,2" d="M643.84,-139.8C540.15,-139.8 318.01,-139.8 318.01,-139.8 318.01,-139.8 318.01,-168.76 318.01,-168.76"/>
<polygon fill="black" stroke="black" points="314.51,-168.76 318.01,-178.76 321.51,-168.76 314.51,-168.76"/>
</g>
<!-- GridTemplateRendererComponent  -->
<g id="node15" class="node">
<title>GridTemplateRendererComponent </title>
<polygon fill="#fb8072" stroke="black" points="238.16,-214.8 23.84,-214.8 23.84,-178.8 238.16,-178.8 238.16,-214.8"/>
<text text-anchor="middle" x="131" y="-192.6" font-family="Times,serif" font-size="14.00">GridTemplateRendererComponent </text>
</g>
<!-- NtsGridModule&#45;&gt;GridTemplateRendererComponent  -->
<g id="edge14" class="edge">
<title>NtsGridModule&#45;&gt;GridTemplateRendererComponent </title>
<path fill="none" stroke="black" stroke-dasharray="5,2" d="M643.74,-134.8C505,-134.8 137.88,-134.8 137.88,-134.8 137.88,-134.8 137.88,-168.53 137.88,-168.53"/>
<polygon fill="black" stroke="black" points="134.38,-168.53 137.88,-178.53 141.38,-168.53 134.38,-168.53"/>
</g>
</g>
</svg>
