<?xml version="1.0" encoding="UTF-8" standalone="no"?>
<!DOCTYPE svg PUBLIC "-//W3C//DTD SVG 1.1//EN"
 "http://www.w3.org/Graphics/SVG/1.1/DTD/svg11.dtd">
<!-- Generated by graphviz version 2.47.3 (20210619.1520)
 -->
<!-- Title: dependencies Pages: 1 -->
<svg width="334pt" height="247pt"
 viewBox="0.00 0.00 334.00 246.80" xmlns="http://www.w3.org/2000/svg" xmlns:xlink="http://www.w3.org/1999/xlink">
<g id="graph0" class="graph" transform="scale(1 1) rotate(0) translate(4 242.8)">
<title>dependencies</title>
<polygon fill="white" stroke="transparent" points="-4,4 -4,-242.8 330,-242.8 330,4 -4,4"/>
<text text-anchor="middle" x="163" y="-8.2" font-family="sans-serif" font-size="14.00">dependencies</text>
<g id="clust1" class="cluster">
<title>cluster_NtsTagsModule</title>
<polygon fill="none" stroke="black" stroke-dasharray="1,5" points="8,-32.8 8,-230.8 318,-230.8 318,-32.8 8,-32.8"/>
</g>
<g id="clust2" class="cluster">
<title>cluster_NtsTagsModule_declarations</title>
<polygon fill="none" stroke="black" points="19,-40.8 19,-92.8 307,-92.8 307,-40.8 19,-40.8"/>
</g>
<g id="clust6" class="cluster">
<title>cluster_NtsTagsModule_exports</title>
<polygon fill="none" stroke="black" points="16,-170.8 16,-222.8 310,-222.8 310,-170.8 16,-170.8"/>
</g>
<!-- TagBuilderComponent -->
<g id="node1" class="node">
<title>TagBuilderComponent</title>
<polygon fill="#ffffb3" stroke="black" points="298.59,-84.8 153.41,-84.8 153.41,-48.8 298.59,-48.8 298.59,-84.8"/>
<text text-anchor="middle" x="226" y="-62.6" font-family="Times,serif" font-size="14.00">TagBuilderComponent</text>
</g>
<!-- NtsTagsModule -->
<g id="node3" class="node">
<title>NtsTagsModule</title>
<polygon fill="#8dd3c7" stroke="black" points="135.2,-149.8 132.2,-153.8 111.2,-153.8 108.2,-149.8 28.8,-149.8 28.8,-113.8 135.2,-113.8 135.2,-149.8"/>
<text text-anchor="middle" x="82" y="-127.6" font-family="Times,serif" font-size="14.00">NtsTagsModule</text>
</g>
<!-- TagBuilderComponent&#45;&gt;NtsTagsModule -->
<g id="edge1" class="edge">
<title>TagBuilderComponent&#45;&gt;NtsTagsModule</title>
<path fill="none" stroke="black" d="M250.27,-84.82C250.27,-102.17 250.27,-125.8 250.27,-125.8 250.27,-125.8 145.24,-125.8 145.24,-125.8"/>
<polygon fill="black" stroke="black" points="145.24,-122.3 135.24,-125.8 145.24,-129.3 145.24,-122.3"/>
</g>
<!-- TagsComponent -->
<g id="node2" class="node">
<title>TagsComponent</title>
<polygon fill="#ffffb3" stroke="black" points="135.05,-84.8 26.95,-84.8 26.95,-48.8 135.05,-48.8 135.05,-84.8"/>
<text text-anchor="middle" x="81" y="-62.6" font-family="Times,serif" font-size="14.00">TagsComponent</text>
</g>
<!-- TagsComponent&#45;&gt;NtsTagsModule -->
<g id="edge2" class="edge">
<title>TagsComponent&#45;&gt;NtsTagsModule</title>
<path fill="none" stroke="black" d="M82,-84.91C82,-84.91 82,-103.79 82,-103.79"/>
<polygon fill="black" stroke="black" points="78.5,-103.79 82,-113.79 85.5,-103.79 78.5,-103.79"/>
</g>
<!-- TagBuilderComponent  -->
<g id="node4" class="node">
<title>TagBuilderComponent </title>
<polygon fill="#fb8072" stroke="black" points="302.09,-214.8 153.91,-214.8 153.91,-178.8 302.09,-178.8 302.09,-214.8"/>
<text text-anchor="middle" x="228" y="-192.6" font-family="Times,serif" font-size="14.00">TagBuilderComponent </text>
</g>
<!-- NtsTagsModule&#45;&gt;TagBuilderComponent  -->
<g id="edge3" class="edge">
<title>NtsTagsModule&#45;&gt;TagBuilderComponent </title>
<path fill="none" stroke="black" stroke-dasharray="5,2" d="M135.33,-137.8C167.37,-137.8 201.98,-137.8 201.98,-137.8 201.98,-137.8 201.98,-168.78 201.98,-168.78"/>
<polygon fill="black" stroke="black" points="198.48,-168.78 201.98,-178.78 205.48,-168.78 198.48,-168.78"/>
</g>
<!-- TagsComponent  -->
<g id="node5" class="node">
<title>TagsComponent </title>
<polygon fill="#fb8072" stroke="black" points="136.04,-214.8 23.96,-214.8 23.96,-178.8 136.04,-178.8 136.04,-214.8"/>
<text text-anchor="middle" x="80" y="-192.6" font-family="Times,serif" font-size="14.00">TagsComponent </text>
</g>
<!-- NtsTagsModule&#45;&gt;TagsComponent  -->
<g id="edge4" class="edge">
<title>NtsTagsModule&#45;&gt;TagsComponent </title>
<path fill="none" stroke="black" stroke-dasharray="5,2" d="M82,-149.91C82,-149.91 82,-168.79 82,-168.79"/>
<polygon fill="black" stroke="black" points="78.5,-168.79 82,-178.79 85.5,-168.79 78.5,-168.79"/>
</g>
</g>
</svg>
