<?xml version="1.0" encoding="UTF-8" standalone="no"?>
<!DOCTYPE svg PUBLIC "-//W3C//DTD SVG 1.1//EN"
 "http://www.w3.org/Graphics/SVG/1.1/DTD/svg11.dtd">
<!-- Generated by graphviz version 2.40.1 (20161225.0304)
 -->
<!-- Title: dependencies Pages: 1 -->
<svg width="682pt" height="284pt"
 viewBox="0.00 0.00 682.00 284.00" xmlns="http://www.w3.org/2000/svg" xmlns:xlink="http://www.w3.org/1999/xlink">
<g id="graph0" class="graph" transform="scale(1 1) rotate(0) translate(4 280)">
<title>dependencies</title>
<polygon fill="#ffffff" stroke="transparent" points="-4,4 -4,-280 678,-280 678,4 -4,4"/>
<text text-anchor="start" x="316.0091" y="-42.4" font-family="sans-serif" font-weight="bold" font-size="14.00" fill="#000000">Legend</text>
<polygon fill="#ffffb3" stroke="transparent" points="103,-10 103,-30 123,-30 123,-10 103,-10"/>
<text text-anchor="start" x="126.629" y="-15.4" font-family="sans-serif" font-size="14.00" fill="#000000"> &#160;Declarations</text>
<polygon fill="#8dd3c7" stroke="transparent" points="216,-10 216,-30 236,-30 236,-10 216,-10"/>
<text text-anchor="start" x="239.7251" y="-15.4" font-family="sans-serif" font-size="14.00" fill="#000000"> &#160;Module</text>
<polygon fill="#80b1d3" stroke="transparent" points="302,-10 302,-30 322,-30 322,-10 302,-10"/>
<text text-anchor="start" x="325.7812" y="-15.4" font-family="sans-serif" font-size="14.00" fill="#000000"> &#160;Bootstrap</text>
<polygon fill="#fdb462" stroke="transparent" points="399,-10 399,-30 419,-30 419,-10 399,-10"/>
<text text-anchor="start" x="422.6732" y="-15.4" font-family="sans-serif" font-size="14.00" fill="#000000"> &#160;Providers</text>
<polygon fill="#fb8072" stroke="transparent" points="495,-10 495,-30 515,-30 515,-10 495,-10"/>
<text text-anchor="start" x="518.7258" y="-15.4" font-family="sans-serif" font-size="14.00" fill="#000000"> &#160;Exports</text>
<g id="clust1" class="cluster">
<title>cluster_GridModule</title>
<polygon fill="none" stroke="#000000" stroke-dasharray="1,5" points="8,-70 8,-268 666,-268 666,-70 8,-70"/>
</g>
<g id="clust2" class="cluster">
<title>cluster_GridModule_declarations</title>
<polygon fill="none" stroke="#000000" points="16,-78 16,-130 658,-130 658,-78 16,-78"/>
</g>
<g id="clust8" class="cluster">
<title>cluster_GridModule_exports</title>
<polygon fill="none" stroke="#000000" points="66,-208 66,-260 608,-260 608,-208 66,-208"/>
</g>
<!-- GridComponent -->
<g id="node1" class="node">
<title>GridComponent</title>
<polygon fill="#ffffb3" stroke="#000000" points="650.4902,-122 543.5098,-122 543.5098,-86 650.4902,-86 650.4902,-122"/>
<text text-anchor="middle" x="597" y="-99.8" font-family="Times,serif" font-size="14.00" fill="#000000">GridComponent</text>
</g>
<!-- GridModule -->
<g id="node5" class="node">
<title>GridModule</title>
<polygon fill="#8dd3c7" stroke="#000000" points="431.7079,-187 428.7079,-191 407.7079,-191 404.7079,-187 346.2921,-187 346.2921,-151 431.7079,-151 431.7079,-187"/>
<text text-anchor="middle" x="389" y="-164.8" font-family="Times,serif" font-size="14.00" fill="#000000">GridModule</text>
</g>
<!-- GridComponent&#45;&gt;GridModule -->
<g id="edge1" class="edge">
<title>GridComponent&#45;&gt;GridModule</title>
<path fill="none" stroke="#000000" d="M571.875,-122.0225C571.875,-139.3734 571.875,-163 571.875,-163 571.875,-163 441.8761,-163 441.8761,-163"/>
<polygon fill="#000000" stroke="#000000" points="441.8761,-159.5001 431.8761,-163 441.876,-166.5001 441.8761,-159.5001"/>
</g>
<!-- GridStatusBarComponent -->
<g id="node2" class="node">
<title>GridStatusBarComponent</title>
<polygon fill="#ffffb3" stroke="#000000" points="525.9256,-122 364.0744,-122 364.0744,-86 525.9256,-86 525.9256,-122"/>
<text text-anchor="middle" x="445" y="-99.8" font-family="Times,serif" font-size="14.00" fill="#000000">GridStatusBarComponent</text>
</g>
<!-- GridStatusBarComponent&#45;&gt;GridModule -->
<g id="edge2" class="edge">
<title>GridStatusBarComponent&#45;&gt;GridModule</title>
<path fill="none" stroke="#000000" d="M397.9457,-122.1061C397.9457,-122.1061 397.9457,-140.991 397.9457,-140.991"/>
<polygon fill="#000000" stroke="#000000" points="394.4457,-140.9909 397.9457,-150.991 401.4457,-140.991 394.4457,-140.9909"/>
</g>
<!-- GridTemplateRendererComponent -->
<g id="node3" class="node">
<title>GridTemplateRendererComponent</title>
<polygon fill="#ffffb3" stroke="#000000" points="346.6601,-122 135.3399,-122 135.3399,-86 346.6601,-86 346.6601,-122"/>
<text text-anchor="middle" x="241" y="-99.8" font-family="Times,serif" font-size="14.00" fill="#000000">GridTemplateRendererComponent</text>
</g>
<!-- GridTemplateRendererComponent&#45;&gt;GridModule -->
<g id="edge3" class="edge">
<title>GridTemplateRendererComponent&#45;&gt;GridModule</title>
<path fill="none" stroke="#000000" d="M346.8326,-104C352.2052,-104 355.4338,-104 355.4338,-104 355.4338,-104 355.4338,-140.8939 355.4338,-140.8939"/>
<polygon fill="#000000" stroke="#000000" points="351.9338,-140.8938 355.4338,-150.8939 358.9338,-140.8939 351.9338,-140.8938"/>
</g>
<!-- TextCasePipe -->
<g id="node4" class="node">
<title>TextCasePipe</title>
<polygon fill="#ffffb3" stroke="#000000" points="117.7563,-122 24.2437,-122 24.2437,-86 117.7563,-86 117.7563,-122"/>
<text text-anchor="middle" x="71" y="-99.8" font-family="Times,serif" font-size="14.00" fill="#000000">TextCasePipe</text>
</g>
<!-- TextCasePipe&#45;&gt;GridModule -->
<g id="edge4" class="edge">
<title>TextCasePipe&#45;&gt;GridModule</title>
<path fill="none" stroke="#000000" d="M95.774,-122.0225C95.774,-139.3734 95.774,-163 95.774,-163 95.774,-163 336.3624,-163 336.3624,-163"/>
<polygon fill="#000000" stroke="#000000" points="336.3625,-166.5001 346.3624,-163 336.3624,-159.5001 336.3625,-166.5001"/>
</g>
<!-- GridComponent  -->
<g id="node6" class="node">
<title>GridComponent </title>
<polygon fill="#fb8072" stroke="#000000" points="600.4913,-252 489.5087,-252 489.5087,-216 600.4913,-216 600.4913,-252"/>
<text text-anchor="middle" x="545" y="-229.8" font-family="Times,serif" font-size="14.00" fill="#000000">GridComponent </text>
</g>
<!-- GridModule&#45;&gt;GridComponent  -->
<g id="edge5" class="edge">
<title>GridModule&#45;&gt;GridComponent </title>
<path fill="none" stroke="#000000" stroke-dasharray="5,2" d="M431.8656,-175C465.8754,-175 507.7337,-175 507.7337,-175 507.7337,-175 507.7337,-205.9775 507.7337,-205.9775"/>
<polygon fill="#000000" stroke="#000000" points="504.2338,-205.9774 507.7337,-215.9775 511.2338,-205.9775 504.2338,-205.9774"/>
</g>
<!-- GridStatusBarComponent  -->
<g id="node7" class="node">
<title>GridStatusBarComponent </title>
<polygon fill="#fb8072" stroke="#000000" points="471.425,-252 306.575,-252 306.575,-216 471.425,-216 471.425,-252"/>
<text text-anchor="middle" x="389" y="-229.8" font-family="Times,serif" font-size="14.00" fill="#000000">GridStatusBarComponent </text>
</g>
<!-- GridModule&#45;&gt;GridStatusBarComponent  -->
<g id="edge6" class="edge">
<title>GridModule&#45;&gt;GridStatusBarComponent </title>
<path fill="none" stroke="#000000" stroke-dasharray="5,2" d="M389,-187.1061C389,-187.1061 389,-205.991 389,-205.991"/>
<polygon fill="#000000" stroke="#000000" points="385.5001,-205.9909 389,-215.991 392.5001,-205.991 385.5001,-205.9909"/>
</g>
<!-- GridTemplateRendererComponent  -->
<g id="node8" class="node">
<title>GridTemplateRendererComponent </title>
<polygon fill="#fb8072" stroke="#000000" points="288.1603,-252 73.8397,-252 73.8397,-216 288.1603,-216 288.1603,-252"/>
<text text-anchor="middle" x="181" y="-229.8" font-family="Times,serif" font-size="14.00" fill="#000000">GridTemplateRendererComponent </text>
</g>
<!-- GridModule&#45;&gt;GridTemplateRendererComponent  -->
<g id="edge7" class="edge">
<title>GridModule&#45;&gt;GridTemplateRendererComponent </title>
<path fill="none" stroke="#000000" stroke-dasharray="5,2" d="M346.123,-175C293.7023,-175 211.875,-175 211.875,-175 211.875,-175 211.875,-205.9775 211.875,-205.9775"/>
<polygon fill="#000000" stroke="#000000" points="208.3751,-205.9774 211.875,-215.9775 215.3751,-205.9775 208.3751,-205.9774"/>
</g>
</g>
</svg>
