<?xml version="1.0" encoding="UTF-8" standalone="no"?>
<!DOCTYPE svg PUBLIC "-//W3C//DTD SVG 1.1//EN"
 "http://www.w3.org/Graphics/SVG/1.1/DTD/svg11.dtd">
<!-- Generated by graphviz version 2.47.3 (20210619.1520)
 -->
<!-- Title: dependencies Pages: 1 -->
<svg width="1595pt" height="247pt"
 viewBox="0.00 0.00 1595.00 246.80" xmlns="http://www.w3.org/2000/svg" xmlns:xlink="http://www.w3.org/1999/xlink">
<g id="graph0" class="graph" transform="scale(1 1) rotate(0) translate(4 242.8)">
<title>dependencies</title>
<polygon fill="white" stroke="transparent" points="-4,4 -4,-242.8 1591,-242.8 1591,4 -4,4"/>
<text text-anchor="middle" x="793.5" y="-8.2" font-family="sans-serif" font-size="14.00">dependencies</text>
<g id="clust1" class="cluster">
<title>cluster_NtsDocumentEditorModule</title>
<polygon fill="none" stroke="black" stroke-dasharray="1,5" points="8,-32.8 8,-230.8 1579,-230.8 1579,-32.8 8,-32.8"/>
</g>
<g id="clust15" class="cluster">
<title>cluster_NtsDocumentEditorModule_providers</title>
<polygon fill="none" stroke="black" points="1347,-40.8 1347,-92.8 1571,-92.8 1571,-40.8 1347,-40.8"/>
</g>
<g id="clust13" class="cluster">
<title>cluster_NtsDocumentEditorModule_exports</title>
<polygon fill="none" stroke="black" points="691,-170.8 691,-222.8 827,-222.8 827,-170.8 691,-170.8"/>
</g>
<g id="clust2" class="cluster">
<title>cluster_NtsDocumentEditorModule_declarations</title>
<polygon fill="none" stroke="black" points="16,-40.8 16,-92.8 1339,-92.8 1339,-40.8 16,-40.8"/>
</g>
<!-- DefaultComponent -->
<g id="node1" class="node">
<title>DefaultComponent</title>
<polygon fill="#ffffb3" stroke="black" points="1330.81,-84.8 1207.19,-84.8 1207.19,-48.8 1330.81,-48.8 1330.81,-84.8"/>
<text text-anchor="middle" x="1269" y="-62.6" font-family="Times,serif" font-size="14.00">DefaultComponent</text>
</g>
<!-- NtsDocumentEditorModule -->
<g id="node10" class="node">
<title>NtsDocumentEditorModule</title>
<polygon fill="#8dd3c7" stroke="black" points="845.3,-149.8 842.3,-153.8 821.3,-153.8 818.3,-149.8 672.7,-149.8 672.7,-113.8 845.3,-113.8 845.3,-149.8"/>
<text text-anchor="middle" x="759" y="-127.6" font-family="Times,serif" font-size="14.00">NtsDocumentEditorModule</text>
</g>
<!-- DefaultComponent&#45;&gt;NtsDocumentEditorModule -->
<g id="edge1" class="edge">
<title>DefaultComponent&#45;&gt;NtsDocumentEditorModule</title>
<path fill="none" stroke="black" d="M1269,-84.93C1269,-105.37 1269,-135.8 1269,-135.8 1269,-135.8 855.23,-135.8 855.23,-135.8"/>
<polygon fill="black" stroke="black" points="855.23,-132.3 845.23,-135.8 855.23,-139.3 855.23,-132.3"/>
</g>
<!-- DisplayComponent -->
<g id="node2" class="node">
<title>DisplayComponent</title>
<polygon fill="#ffffb3" stroke="black" points="1189.38,-84.8 1064.62,-84.8 1064.62,-48.8 1189.38,-48.8 1189.38,-84.8"/>
<text text-anchor="middle" x="1127" y="-62.6" font-family="Times,serif" font-size="14.00">DisplayComponent</text>
</g>
<!-- DisplayComponent&#45;&gt;NtsDocumentEditorModule -->
<g id="edge2" class="edge">
<title>DisplayComponent&#45;&gt;NtsDocumentEditorModule</title>
<path fill="none" stroke="black" d="M1127,-85.07C1127,-103.36 1127,-128.8 1127,-128.8 1127,-128.8 855.28,-128.8 855.28,-128.8"/>
<polygon fill="black" stroke="black" points="855.28,-125.3 845.28,-128.8 855.28,-132.3 855.28,-125.3"/>
</g>
<!-- DocumentComponent -->
<g id="node3" class="node">
<title>DocumentComponent</title>
<polygon fill="#ffffb3" stroke="black" points="1046.65,-84.8 907.35,-84.8 907.35,-48.8 1046.65,-48.8 1046.65,-84.8"/>
<text text-anchor="middle" x="977" y="-62.6" font-family="Times,serif" font-size="14.00">DocumentComponent</text>
</g>
<!-- DocumentComponent&#45;&gt;NtsDocumentEditorModule -->
<g id="edge3" class="edge">
<title>DocumentComponent&#45;&gt;NtsDocumentEditorModule</title>
<path fill="none" stroke="black" d="M977,-84.81C977,-100.85 977,-121.8 977,-121.8 977,-121.8 855.16,-121.8 855.16,-121.8"/>
<polygon fill="black" stroke="black" points="855.16,-118.3 845.16,-121.8 855.16,-125.3 855.16,-118.3"/>
</g>
<!-- EditorComponent -->
<g id="node4" class="node">
<title>EditorComponent</title>
<polygon fill="#ffffb3" stroke="black" points="889.33,-84.8 772.67,-84.8 772.67,-48.8 889.33,-48.8 889.33,-84.8"/>
<text text-anchor="middle" x="831" y="-62.6" font-family="Times,serif" font-size="14.00">EditorComponent</text>
</g>
<!-- EditorComponent&#45;&gt;NtsDocumentEditorModule -->
<g id="edge4" class="edge">
<title>EditorComponent&#45;&gt;NtsDocumentEditorModule</title>
<path fill="none" stroke="black" d="M808.99,-84.91C808.99,-84.91 808.99,-103.79 808.99,-103.79"/>
<polygon fill="black" stroke="black" points="805.49,-103.79 808.99,-113.79 812.49,-103.79 805.49,-103.79"/>
</g>
<!-- MultiDocComponent -->
<g id="node5" class="node">
<title>MultiDocComponent</title>
<polygon fill="#ffffb3" stroke="black" points="754.77,-84.8 619.23,-84.8 619.23,-48.8 754.77,-48.8 754.77,-84.8"/>
<text text-anchor="middle" x="687" y="-62.6" font-family="Times,serif" font-size="14.00">MultiDocComponent</text>
</g>
<!-- MultiDocComponent&#45;&gt;NtsDocumentEditorModule -->
<g id="edge5" class="edge">
<title>MultiDocComponent&#45;&gt;NtsDocumentEditorModule</title>
<path fill="none" stroke="black" d="M713.87,-84.91C713.87,-84.91 713.87,-103.79 713.87,-103.79"/>
<polygon fill="black" stroke="black" points="710.37,-103.79 713.87,-113.79 717.37,-103.79 710.37,-103.79"/>
</g>
<!-- PageComponent -->
<g id="node6" class="node">
<title>PageComponent</title>
<polygon fill="#ffffb3" stroke="black" points="601.05,-84.8 492.95,-84.8 492.95,-48.8 601.05,-48.8 601.05,-84.8"/>
<text text-anchor="middle" x="547" y="-62.6" font-family="Times,serif" font-size="14.00">PageComponent</text>
</g>
<!-- PageComponent&#45;&gt;NtsDocumentEditorModule -->
<g id="edge6" class="edge">
<title>PageComponent&#45;&gt;NtsDocumentEditorModule</title>
<path fill="none" stroke="black" d="M547,-84.81C547,-100.85 547,-121.8 547,-121.8 547,-121.8 662.77,-121.8 662.77,-121.8"/>
<polygon fill="black" stroke="black" points="662.77,-125.3 672.77,-121.8 662.77,-118.3 662.77,-125.3"/>
</g>
<!-- ToolbarComponent -->
<g id="node7" class="node">
<title>ToolbarComponent</title>
<polygon fill="#ffffb3" stroke="black" points="474.65,-84.8 349.35,-84.8 349.35,-48.8 474.65,-48.8 474.65,-84.8"/>
<text text-anchor="middle" x="412" y="-62.6" font-family="Times,serif" font-size="14.00">ToolbarComponent</text>
</g>
<!-- ToolbarComponent&#45;&gt;NtsDocumentEditorModule -->
<g id="edge7" class="edge">
<title>ToolbarComponent&#45;&gt;NtsDocumentEditorModule</title>
<path fill="none" stroke="black" d="M412,-85.07C412,-103.36 412,-128.8 412,-128.8 412,-128.8 662.78,-128.8 662.78,-128.8"/>
<polygon fill="black" stroke="black" points="662.78,-132.3 672.78,-128.8 662.78,-125.3 662.78,-132.3"/>
</g>
<!-- ViewerComponent -->
<g id="node8" class="node">
<title>ViewerComponent</title>
<polygon fill="#ffffb3" stroke="black" points="331.03,-84.8 208.97,-84.8 208.97,-48.8 331.03,-48.8 331.03,-84.8"/>
<text text-anchor="middle" x="270" y="-62.6" font-family="Times,serif" font-size="14.00">ViewerComponent</text>
</g>
<!-- ViewerComponent&#45;&gt;NtsDocumentEditorModule -->
<g id="edge8" class="edge">
<title>ViewerComponent&#45;&gt;NtsDocumentEditorModule</title>
<path fill="none" stroke="black" d="M270,-84.93C270,-105.37 270,-135.8 270,-135.8 270,-135.8 662.7,-135.8 662.7,-135.8"/>
<polygon fill="black" stroke="black" points="662.7,-139.3 672.7,-135.8 662.7,-132.3 662.7,-139.3"/>
</g>
<!-- ViewerToolbarComponent -->
<g id="node9" class="node">
<title>ViewerToolbarComponent</title>
<polygon fill="#ffffb3" stroke="black" points="190.34,-84.8 23.66,-84.8 23.66,-48.8 190.34,-48.8 190.34,-84.8"/>
<text text-anchor="middle" x="107" y="-62.6" font-family="Times,serif" font-size="14.00">ViewerToolbarComponent</text>
</g>
<!-- ViewerToolbarComponent&#45;&gt;NtsDocumentEditorModule -->
<g id="edge9" class="edge">
<title>ViewerToolbarComponent&#45;&gt;NtsDocumentEditorModule</title>
<path fill="none" stroke="black" d="M107,-84.81C107,-107.29 107,-142.8 107,-142.8 107,-142.8 662.76,-142.8 662.76,-142.8"/>
<polygon fill="black" stroke="black" points="662.76,-146.3 672.76,-142.8 662.76,-139.3 662.76,-146.3"/>
</g>
<!-- EditorComponent  -->
<g id="node11" class="node">
<title>EditorComponent </title>
<polygon fill="#fb8072" stroke="black" points="818.83,-214.8 699.17,-214.8 699.17,-178.8 818.83,-178.8 818.83,-214.8"/>
<text text-anchor="middle" x="759" y="-192.6" font-family="Times,serif" font-size="14.00">EditorComponent </text>
</g>
<!-- NtsDocumentEditorModule&#45;&gt;EditorComponent  -->
<g id="edge10" class="edge">
<title>NtsDocumentEditorModule&#45;&gt;EditorComponent </title>
<path fill="none" stroke="black" stroke-dasharray="5,2" d="M759,-149.91C759,-149.91 759,-168.79 759,-168.79"/>
<polygon fill="black" stroke="black" points="755.5,-168.79 759,-178.79 762.5,-168.79 755.5,-168.79"/>
</g>
<!-- DocumentEditorService -->
<g id="node12" class="node">
<title>DocumentEditorService</title>
<ellipse fill="#fdb462" stroke="black" cx="1459" cy="-66.8" rx="104.21" ry="18"/>
<text text-anchor="middle" x="1459" y="-62.6" font-family="Times,serif" font-size="14.00">DocumentEditorService</text>
</g>
<!-- DocumentEditorService&#45;&gt;NtsDocumentEditorModule -->
<g id="edge11" class="edge">
<title>DocumentEditorService&#45;&gt;NtsDocumentEditorModule</title>
<path fill="none" stroke="black" d="M1459,-84.81C1459,-107.29 1459,-142.8 1459,-142.8 1459,-142.8 855.18,-142.8 855.18,-142.8"/>
<polygon fill="black" stroke="black" points="855.18,-139.3 845.18,-142.8 855.18,-146.3 855.18,-139.3"/>
</g>
</g>
</svg>
