<?xml version="1.0" encoding="UTF-8" standalone="no"?>
<!DOCTYPE svg PUBLIC "-//W3C//DTD SVG 1.1//EN"
 "http://www.w3.org/Graphics/SVG/1.1/DTD/svg11.dtd">
<!-- Generated by graphviz version 2.47.3 (20210619.1520)
 -->
<!-- Title: dependencies Pages: 1 -->
<svg width="1787pt" height="174pt"
 viewBox="0.00 0.00 1787.00 173.80" xmlns="http://www.w3.org/2000/svg" xmlns:xlink="http://www.w3.org/1999/xlink">
<g id="graph0" class="graph" transform="scale(1 1) rotate(0) translate(4 169.8)">
<title>dependencies</title>
<polygon fill="white" stroke="transparent" points="-4,4 -4,-169.8 1783,-169.8 1783,4 -4,4"/>
<text text-anchor="middle" x="889.5" y="-8.2" font-family="sans-serif" font-size="14.00">dependencies</text>
<g id="clust1" class="cluster">
<title>cluster_QaModule</title>
<polygon fill="none" stroke="black" stroke-dasharray="1,5" points="8,-32.8 8,-157.8 1771,-157.8 1771,-32.8 8,-32.8"/>
</g>
<g id="clust11" class="cluster">
<title>cluster_QaModule_imports</title>
<polygon fill="none" stroke="black" points="1153,-40.8 1153,-92.8 1763,-92.8 1763,-40.8 1153,-40.8"/>
</g>
<g id="clust2" class="cluster">
<title>cluster_QaModule_declarations</title>
<polygon fill="none" stroke="black" points="16,-40.8 16,-92.8 1145,-92.8 1145,-40.8 16,-40.8"/>
</g>
<!-- CalendarComponent -->
<g id="node1" class="node">
<title>CalendarComponent</title>
<polygon fill="#ffffb3" stroke="black" points="1136.86,-84.8 1005.14,-84.8 1005.14,-48.8 1136.86,-48.8 1136.86,-84.8"/>
<text text-anchor="middle" x="1071" y="-62.6" font-family="Times,serif" font-size="14.00">CalendarComponent</text>
</g>
<!-- QaModule -->
<g id="node9" class="node">
<title>QaModule</title>
<polygon fill="#8dd3c7" stroke="black" points="888.87,-149.8 885.87,-153.8 864.87,-153.8 861.87,-149.8 813.13,-149.8 813.13,-113.8 888.87,-113.8 888.87,-149.8"/>
<text text-anchor="middle" x="851" y="-127.6" font-family="Times,serif" font-size="14.00">QaModule</text>
</g>
<!-- CalendarComponent&#45;&gt;QaModule -->
<g id="edge1" class="edge">
<title>CalendarComponent&#45;&gt;QaModule</title>
<path fill="none" stroke="black" d="M1071,-85.04C1071,-100.37 1071,-119.8 1071,-119.8 1071,-119.8 899.32,-119.8 899.32,-119.8"/>
<polygon fill="black" stroke="black" points="899.32,-116.3 889.32,-119.8 899.32,-123.3 899.32,-116.3"/>
</g>
<!-- ChartsComponent -->
<g id="node2" class="node">
<title>ChartsComponent</title>
<polygon fill="#ffffb3" stroke="black" points="986.88,-84.8 869.12,-84.8 869.12,-48.8 986.88,-48.8 986.88,-84.8"/>
<text text-anchor="middle" x="928" y="-62.6" font-family="Times,serif" font-size="14.00">ChartsComponent</text>
</g>
<!-- ChartsComponent&#45;&gt;QaModule -->
<g id="edge2" class="edge">
<title>ChartsComponent&#45;&gt;QaModule</title>
<path fill="none" stroke="black" d="M879,-84.91C879,-84.91 879,-103.79 879,-103.79"/>
<polygon fill="black" stroke="black" points="875.5,-103.79 879,-113.79 882.5,-103.79 875.5,-103.79"/>
</g>
<!-- DemoModalComponent -->
<g id="node3" class="node">
<title>DemoModalComponent</title>
<polygon fill="#ffffb3" stroke="black" points="851.09,-84.8 698.91,-84.8 698.91,-48.8 851.09,-48.8 851.09,-84.8"/>
<text text-anchor="middle" x="775" y="-62.6" font-family="Times,serif" font-size="14.00">DemoModalComponent</text>
</g>
<!-- DemoModalComponent&#45;&gt;QaModule -->
<g id="edge3" class="edge">
<title>DemoModalComponent&#45;&gt;QaModule</title>
<path fill="none" stroke="black" d="M832.06,-84.91C832.06,-84.91 832.06,-103.79 832.06,-103.79"/>
<polygon fill="black" stroke="black" points="828.56,-103.79 832.06,-113.79 835.56,-103.79 828.56,-103.79"/>
</g>
<!-- EntityStoreComponent -->
<g id="node4" class="node">
<title>EntityStoreComponent</title>
<polygon fill="#ffffb3" stroke="black" points="680.61,-84.8 535.39,-84.8 535.39,-48.8 680.61,-48.8 680.61,-84.8"/>
<text text-anchor="middle" x="608" y="-62.6" font-family="Times,serif" font-size="14.00">EntityStoreComponent</text>
</g>
<!-- EntityStoreComponent&#45;&gt;QaModule -->
<g id="edge4" class="edge">
<title>EntityStoreComponent&#45;&gt;QaModule</title>
<path fill="none" stroke="black" d="M608,-85.04C608,-100.37 608,-119.8 608,-119.8 608,-119.8 803.03,-119.8 803.03,-119.8"/>
<polygon fill="black" stroke="black" points="803.03,-123.3 813.03,-119.8 803.03,-116.3 803.03,-123.3"/>
</g>
<!-- FormsComponent -->
<g id="node5" class="node">
<title>FormsComponent</title>
<polygon fill="#ffffb3" stroke="black" points="517.61,-84.8 400.39,-84.8 400.39,-48.8 517.61,-48.8 517.61,-84.8"/>
<text text-anchor="middle" x="459" y="-62.6" font-family="Times,serif" font-size="14.00">FormsComponent</text>
</g>
<!-- FormsComponent&#45;&gt;QaModule -->
<g id="edge5" class="edge">
<title>FormsComponent&#45;&gt;QaModule</title>
<path fill="none" stroke="black" d="M478.52,-84.83C478.52,-101.86 478.52,-124.8 478.52,-124.8 478.52,-124.8 802.89,-124.8 802.89,-124.8"/>
<polygon fill="black" stroke="black" points="802.89,-128.3 812.89,-124.8 802.89,-121.3 802.89,-128.3"/>
</g>
<!-- FormsComponent&#45;&gt;QaModule -->
<g id="edge6" class="edge">
<title>FormsComponent&#45;&gt;QaModule</title>
<path fill="none" stroke="black" d="M439.48,-85.02C439.48,-103.63 439.48,-129.8 439.48,-129.8 439.48,-129.8 803.02,-129.8 803.02,-129.8"/>
<polygon fill="black" stroke="black" points="803.02,-133.3 813.02,-129.8 803.02,-126.3 803.02,-133.3"/>
</g>
<!-- MapComponent -->
<g id="node6" class="node">
<title>MapComponent</title>
<polygon fill="#ffffb3" stroke="black" points="382.49,-84.8 275.51,-84.8 275.51,-48.8 382.49,-48.8 382.49,-84.8"/>
<text text-anchor="middle" x="329" y="-62.6" font-family="Times,serif" font-size="14.00">MapComponent</text>
</g>
<!-- MapComponent&#45;&gt;QaModule -->
<g id="edge7" class="edge">
<title>MapComponent&#45;&gt;QaModule</title>
<path fill="none" stroke="black" d="M329,-85.02C329,-105.17 329,-134.8 329,-134.8 329,-134.8 803.04,-134.8 803.04,-134.8"/>
<polygon fill="black" stroke="black" points="803.04,-138.3 813.04,-134.8 803.04,-131.3 803.04,-138.3"/>
</g>
<!-- QaComponent -->
<g id="node7" class="node">
<title>QaComponent</title>
<polygon fill="#ffffb3" stroke="black" points="257.65,-84.8 160.35,-84.8 160.35,-48.8 257.65,-48.8 257.65,-84.8"/>
<text text-anchor="middle" x="209" y="-62.6" font-family="Times,serif" font-size="14.00">QaComponent</text>
</g>
<!-- QaComponent&#45;&gt;QaModule -->
<g id="edge8" class="edge">
<title>QaComponent&#45;&gt;QaModule</title>
<path fill="none" stroke="black" d="M209,-84.84C209,-106.46 209,-139.8 209,-139.8 209,-139.8 802.76,-139.8 802.76,-139.8"/>
<polygon fill="black" stroke="black" points="802.76,-143.3 812.76,-139.8 802.76,-136.3 802.76,-143.3"/>
</g>
<!-- TablesComponent -->
<g id="node8" class="node">
<title>TablesComponent</title>
<polygon fill="#ffffb3" stroke="black" points="142.15,-84.8 23.85,-84.8 23.85,-48.8 142.15,-48.8 142.15,-84.8"/>
<text text-anchor="middle" x="83" y="-62.6" font-family="Times,serif" font-size="14.00">TablesComponent</text>
</g>
<!-- TablesComponent&#45;&gt;QaModule -->
<g id="edge9" class="edge">
<title>TablesComponent&#45;&gt;QaModule</title>
<path fill="none" stroke="black" d="M83,-84.89C83,-107.93 83,-144.8 83,-144.8 83,-144.8 802.91,-144.8 802.91,-144.8"/>
<polygon fill="black" stroke="black" points="802.91,-148.3 812.91,-144.8 802.91,-141.3 802.91,-148.3"/>
</g>
<!-- NtsChartModule -->
<g id="node10" class="node">
<title>NtsChartModule</title>
<polygon fill="#8dd3c7" stroke="black" points="1755.09,-84.8 1752.09,-88.8 1731.09,-88.8 1728.09,-84.8 1644.91,-84.8 1644.91,-48.8 1755.09,-48.8 1755.09,-84.8"/>
<text text-anchor="middle" x="1700" y="-62.6" font-family="Times,serif" font-size="14.00">NtsChartModule</text>
</g>
<!-- NtsChartModule&#45;&gt;QaModule -->
<g id="edge10" class="edge">
<title>NtsChartModule&#45;&gt;QaModule</title>
<path fill="none" stroke="black" d="M1700,-84.89C1700,-107.93 1700,-144.8 1700,-144.8 1700,-144.8 899.13,-144.8 899.13,-144.8"/>
<polygon fill="black" stroke="black" points="899.13,-141.3 889.13,-144.8 899.13,-148.3 899.13,-141.3"/>
</g>
<!-- NtsFormsModule -->
<g id="node11" class="node">
<title>NtsFormsModule</title>
<polygon fill="#8dd3c7" stroke="black" points="1627.27,-84.8 1624.27,-88.8 1603.27,-88.8 1600.27,-84.8 1512.73,-84.8 1512.73,-48.8 1627.27,-48.8 1627.27,-84.8"/>
<text text-anchor="middle" x="1570" y="-62.6" font-family="Times,serif" font-size="14.00">NtsFormsModule</text>
</g>
<!-- NtsFormsModule&#45;&gt;QaModule -->
<g id="edge11" class="edge">
<title>NtsFormsModule&#45;&gt;QaModule</title>
<path fill="none" stroke="black" d="M1570,-84.84C1570,-106.46 1570,-139.8 1570,-139.8 1570,-139.8 898.9,-139.8 898.9,-139.8"/>
<polygon fill="black" stroke="black" points="898.9,-136.3 888.9,-139.8 898.9,-143.3 898.9,-136.3"/>
</g>
<!-- NtsGridModule -->
<g id="node12" class="node">
<title>NtsGridModule</title>
<polygon fill="#8dd3c7" stroke="black" points="1494.15,-84.8 1491.15,-88.8 1470.15,-88.8 1467.15,-84.8 1389.85,-84.8 1389.85,-48.8 1494.15,-48.8 1494.15,-84.8"/>
<text text-anchor="middle" x="1442" y="-62.6" font-family="Times,serif" font-size="14.00">NtsGridModule</text>
</g>
<!-- NtsGridModule&#45;&gt;QaModule -->
<g id="edge12" class="edge">
<title>NtsGridModule&#45;&gt;QaModule</title>
<path fill="none" stroke="black" d="M1442,-85.02C1442,-105.17 1442,-134.8 1442,-134.8 1442,-134.8 899.32,-134.8 899.32,-134.8"/>
<polygon fill="black" stroke="black" points="899.32,-131.3 889.32,-134.8 899.32,-138.3 899.32,-131.3"/>
</g>
<!-- NtsTableModule -->
<g id="node13" class="node">
<title>NtsTableModule</title>
<polygon fill="#8dd3c7" stroke="black" points="1371.36,-84.8 1368.36,-88.8 1347.36,-88.8 1344.36,-84.8 1260.64,-84.8 1260.64,-48.8 1371.36,-48.8 1371.36,-84.8"/>
<text text-anchor="middle" x="1316" y="-62.6" font-family="Times,serif" font-size="14.00">NtsTableModule</text>
</g>
<!-- NtsTableModule&#45;&gt;QaModule -->
<g id="edge13" class="edge">
<title>NtsTableModule&#45;&gt;QaModule</title>
<path fill="none" stroke="black" d="M1316,-85.02C1316,-103.63 1316,-129.8 1316,-129.8 1316,-129.8 899.05,-129.8 899.05,-129.8"/>
<polygon fill="black" stroke="black" points="899.05,-126.3 889.05,-129.8 899.05,-133.3 899.05,-126.3"/>
</g>
<!-- SiteModule -->
<g id="node14" class="node">
<title>SiteModule</title>
<polygon fill="#8dd3c7" stroke="black" points="1242.83,-84.8 1239.83,-88.8 1218.83,-88.8 1215.83,-84.8 1161.17,-84.8 1161.17,-48.8 1242.83,-48.8 1242.83,-84.8"/>
<text text-anchor="middle" x="1202" y="-62.6" font-family="Times,serif" font-size="14.00">SiteModule</text>
</g>
<!-- SiteModule&#45;&gt;QaModule -->
<g id="edge14" class="edge">
<title>SiteModule&#45;&gt;QaModule</title>
<path fill="none" stroke="black" d="M1202,-84.83C1202,-101.86 1202,-124.8 1202,-124.8 1202,-124.8 898.9,-124.8 898.9,-124.8"/>
<polygon fill="black" stroke="black" points="898.9,-121.3 888.9,-124.8 898.9,-128.3 898.9,-121.3"/>
</g>
</g>
</svg>
